<svg width="169" height="56" viewBox="0 0 169 56" fill="none" xmlns="http://www.w3.org/2000/svg">
<mask id="mask0" mask-type="alpha" maskUnits="userSpaceOnUse" x="0" y="0" width="63" height="57">
<path d="M44.4145 2.68896e-06C46.2192 2.68896e-06 47.8838 0.972501 48.7701 2.54457L61.7362 25.5446C62.5955 27.0688 62.5955 28.9312 61.7362 30.4554L48.7701 53.4554C47.8838 55.0275 46.2192 56 44.4145 56H18.706C16.9013 56 15.2367 55.0275 14.3504 53.4554L1.38424 30.4554C0.524986 28.9312 0.524987 27.0688 1.38424 25.5446L14.3504 2.54458C15.2367 0.972503 16.9013 2.68896e-06 18.706 2.68896e-06H44.4145Z" fill="#F5B33C"/>
</mask>
<g mask="url(#mask0)">
<path d="M44.4145 2.68896e-06C46.2192 2.68896e-06 47.8838 0.972501 48.7701 2.54457L61.7362 25.5446C62.5955 27.0688 62.5955 28.9312 61.7362 30.4554L48.7701 53.4554C47.8838 55.0275 46.2192 56 44.4145 56H18.706C16.9013 56 15.2367 55.0275 14.3504 53.4554L1.38424 30.4554C0.524986 28.9312 0.524987 27.0688 1.38424 25.5446L14.3504 2.54458C15.2367 0.972503 16.9013 2.68896e-06 18.706 2.68896e-06H44.4145Z" fill="white"/>
<path d="M46.9579 2.83653e-06C48.7634 2.83653e-06 50.4286 0.973365 51.3146 2.54654L65.1324 27.0831C65.9902 28.6063 65.9902 30.4669 65.1324 31.99L51.3146 56.5266C50.4286 58.0998 48.7634 59.0732 46.9579 59.0732H19.5561C17.7506 59.0732 16.0854 58.0998 15.1995 56.5266L1.38167 31.99C0.523895 30.4669 0.523895 28.6063 1.38167 27.0831L15.1995 2.54654C16.0854 0.973367 17.7506 2.83653e-06 19.5561 2.83653e-06H46.9579Z" transform="translate(-36.6145 -8.51172)" fill="#42C7BB" style="mix-blend-mode:multiply"/>
<path d="M46.2059 0C48.0053 0 49.6659 0.966847 50.5541 2.53168L64.0948 26.3853C64.9638 27.9162 64.9638 29.7912 64.0948 31.322L50.5541 55.1756C49.6659 56.7405 48.0053 57.7073 46.2059 57.7073H19.2901C17.4907 57.7073 15.8301 56.7405 14.9418 55.1756L1.40115 31.322C0.532175 29.7912 0.532175 27.9162 1.40115 26.3853L14.9418 2.53168C15.8301 0.966848 17.4907 0 19.2901 0H46.2059Z" transform="translate(0.678711 18.4395)" fill="#B2A5D1"/>
<path d="M50.2778 0C52.0772 0 53.7377 0.966801 54.626 2.53157L69.5244 28.7755C70.3935 30.3064 70.3935 32.1814 69.5244 33.7123L54.626 59.9562C53.7377 61.521 52.0772 62.4878 50.2778 62.4878H20.6478C18.8485 62.4878 17.1879 61.521 16.2996 59.9562L1.40129 33.7123C0.532234 32.1814 0.532234 30.3064 1.40129 28.7755L16.2996 2.53158C17.1879 0.966801 18.8485 0 20.6478 0H50.2778Z" transform="translate(7.46594 -20.4883)" fill="#73C8CC" style="mix-blend-mode:multiply"/>
<path d="M40.3512 2.44302e-06C42.1513 2.44302e-06 43.8125 0.967618 44.7005 2.53343L56.2919 22.9725C57.1596 24.5024 57.1596 26.3757 56.2919 27.9056L44.7005 48.3446C43.8125 49.9104 42.1513 50.8781 40.3512 50.8781H17.3395C15.5394 50.8781 13.8783 49.9104 12.9903 48.3446L1.39885 27.9056C0.531197 26.3757 0.531198 24.5024 1.39885 22.9725L12.9903 2.53344C13.8783 0.967619 15.5394 2.44302e-06 17.3395 2.44302e-06H40.3512Z" transform="translate(29.1848 33.0732)" fill="#C7D6FF" style="mix-blend-mode:multiply"/>
</g>
<path d="M24.0384 27.0532H22.5313C22.3532 27.0532 22.2069 27.0086 22.0925 26.9194C21.978 26.8174 21.889 26.69 21.8254 26.537L18.6393 18.6792H5.38003L2.21306 26.537C2.16219 26.6772 2.07316 26.7983 1.94597 26.9003C1.81878 27.0022 1.66616 27.0532 1.48809 27.0532H0L11.0462 0H12.9922L24.0384 27.0532ZM5.97146 17.2261H18.067L12.5534 3.55611C12.4644 3.33943 12.3753 3.09726 12.2863 2.8296C12.1973 2.54919 12.1083 2.25603 12.0192 1.95013C11.9302 2.25603 11.8412 2.54919 11.7521 2.8296C11.6631 3.09726 11.5741 3.3458 11.485 3.57523L5.97146 17.2261Z" transform="translate(74.6587 10.9268)" fill="#3C4A63"/>
<path d="M33.655 7.70491C34.4817 7.70491 35.2449 7.80688 35.9444 8.01082C36.6566 8.21475 37.2926 8.50153 37.8522 8.87117H42.7171V9.50209C42.7171 9.82074 42.5391 9.99281 42.1829 10.0183L39.3021 10.2286C39.6583 10.713 39.9317 11.261 40.1225 11.8728C40.3133 12.4719 40.4087 13.1156 40.4087 13.8038C40.4087 14.7215 40.2433 15.5564 39.9126 16.3084C39.582 17.0477 39.1177 17.685 38.5199 18.2203C37.9349 18.7429 37.229 19.1508 36.4023 19.4439C35.5755 19.7371 34.6598 19.8836 33.655 19.8836C32.5612 19.8836 31.5691 19.718 30.6788 19.3866C30.1446 19.6925 29.7249 20.0557 29.4197 20.4763C29.1144 20.8969 28.9618 21.3048 28.9618 21.6999C28.9618 22.248 29.1526 22.6686 29.5341 22.9618C29.9157 23.2549 30.4181 23.4716 31.0413 23.6118C31.6772 23.7393 32.3959 23.8221 33.1971 23.8604C34.0111 23.8986 34.8315 23.9432 35.6582 23.9942C36.4977 24.0324 37.318 24.1089 38.1193 24.2236C38.9333 24.3384 39.6519 24.5423 40.2751 24.8354C40.9111 25.1159 41.4198 25.5173 41.8014 26.0399C42.1829 26.5498 42.3737 27.2317 42.3737 28.0857C42.3737 28.8759 42.1766 29.6343 41.7823 30.3608C41.388 31.0873 40.8157 31.731 40.0653 32.2918C39.3276 32.8526 38.4309 33.2987 37.3753 33.6301C36.3196 33.9743 35.1368 34.1463 33.8267 34.1463C32.4912 34.1463 31.3211 34.0061 30.3163 33.7257C29.3116 33.4581 28.4658 33.0884 27.779 32.6168C27.1049 32.158 26.5961 31.6226 26.2527 31.0108C25.9093 30.399 25.7376 29.749 25.7376 29.0607C25.7376 28.0538 26.0683 27.1871 26.7297 26.4605C27.391 25.734 28.3004 25.1732 29.4578 24.7781C28.8219 24.5614 28.3131 24.2491 27.9316 23.8413C27.5627 23.4334 27.3783 22.8662 27.3783 22.1397C27.3783 21.872 27.4292 21.5916 27.5309 21.2984C27.6327 21.0053 27.7853 20.7185 27.9888 20.4381C28.1923 20.1449 28.434 19.8709 28.7138 19.616C29.0063 19.3611 29.3434 19.1316 29.7249 18.9277C28.8219 18.4051 28.116 17.7105 27.6072 16.8437C27.1112 15.977 26.8632 14.9637 26.8632 13.8038C26.8632 12.8861 27.0222 12.0576 27.3402 11.3184C27.6708 10.5664 28.1287 9.9227 28.7138 9.38738C29.3116 8.85205 30.0302 8.4378 30.8696 8.14465C31.709 7.85149 32.6375 7.70491 33.655 7.70491ZM40.6948 28.3342C40.6948 27.7351 40.5359 27.2572 40.2179 26.9003C39.9126 26.5307 39.4993 26.2439 38.9778 26.0399C38.4563 25.836 37.8522 25.6958 37.1654 25.6193C36.4913 25.5301 35.779 25.4664 35.0286 25.4281C34.291 25.3899 33.5469 25.3517 32.7965 25.3134C32.0461 25.2752 31.3466 25.1987 30.6979 25.084C30.2146 25.2752 29.7631 25.4982 29.3434 25.7531C28.9364 25.9953 28.5866 26.2757 28.2941 26.5944C28.0015 26.9003 27.7726 27.238 27.6072 27.6077C27.4419 27.9901 27.3592 28.4043 27.3592 28.8504C27.3592 29.4112 27.4991 29.9274 27.779 30.399C28.0715 30.8834 28.4912 31.2976 29.0381 31.6418C29.5977 31.9987 30.2782 32.2791 31.0795 32.483C31.8808 32.6869 32.8029 32.7889 33.8458 32.7889C34.8124 32.7889 35.7091 32.6806 36.5358 32.4639C37.3753 32.2472 38.1002 31.9413 38.7107 31.5462C39.3339 31.151 39.8173 30.6794 40.1607 30.1314C40.5168 29.5833 40.6948 28.9842 40.6948 28.3342ZM33.655 18.6409C34.469 18.6409 35.194 18.5262 35.8299 18.2968C36.4659 18.0546 37 17.7232 37.4325 17.3026C37.8649 16.882 38.1893 16.3785 38.4055 15.7922C38.6344 15.2059 38.7489 14.5559 38.7489 13.8421C38.7489 13.1283 38.6344 12.4783 38.4055 11.892C38.1765 11.2929 37.8395 10.7831 37.3943 10.3624C36.9619 9.94182 36.4277 9.6168 35.7918 9.38738C35.1685 9.15795 34.4563 9.04324 33.655 9.04324C32.8537 9.04324 32.1351 9.15795 31.4992 9.38738C30.8632 9.6168 30.3227 9.94182 29.8775 10.3624C29.4451 10.7831 29.1144 11.2929 28.8855 11.892C28.6565 12.4783 28.5421 13.1283 28.5421 13.8421C28.5421 14.5559 28.6565 15.2059 28.8855 15.7922C29.1144 16.3785 29.4451 16.882 29.8775 17.3026C30.3227 17.7232 30.8632 18.0546 31.4992 18.2968C32.1351 18.5262 32.8537 18.6409 33.655 18.6409Z" transform="translate(74.6587 10.9268)" fill="#3C4A63"/>
<path d="M53.8924 7.72403C55.2534 7.72403 56.468 7.95983 57.5364 8.43143C58.6175 8.89028 59.5269 9.5467 60.2645 10.4007C61.0022 11.2547 61.5619 12.2871 61.9434 13.4979C62.3377 14.6961 62.5348 16.0408 62.5348 17.532C62.5348 19.0233 62.3377 20.368 61.9434 21.5661C61.5619 22.7642 61.0022 23.7903 60.2645 24.6443C59.5269 25.4982 58.6175 26.1546 57.5364 26.6135C56.468 27.0724 55.2534 27.3018 53.8924 27.3018C52.5315 27.3018 51.3105 27.0724 50.2294 26.6135C49.1611 26.1546 48.2517 25.4982 47.5013 24.6443C46.7636 23.7903 46.1976 22.7642 45.8033 21.5661C45.4218 20.368 45.231 19.0233 45.231 17.532C45.231 16.0408 45.4218 14.6961 45.8033 13.4979C46.1976 12.2871 46.7636 11.2547 47.5013 10.4007C48.2517 9.5467 49.1611 8.89028 50.2294 8.43143C51.3105 7.95983 52.5315 7.72403 53.8924 7.72403ZM53.8924 25.8679C55.0244 25.8679 56.0101 25.6767 56.8496 25.2943C57.7017 24.8992 58.4076 24.3383 58.9672 23.6118C59.5396 22.8853 59.9656 22.0122 60.2455 20.9925C60.5253 19.9601 60.6652 18.8066 60.6652 17.532C60.6652 16.2702 60.5253 15.123 60.2455 14.0906C59.9656 13.0582 59.5396 12.1787 58.9672 11.4522C58.4076 10.713 57.7017 10.1458 56.8496 9.75064C56.0101 9.35551 55.0244 9.15795 53.8924 9.15795C52.7605 9.15795 51.7684 9.35551 50.9163 9.75064C50.0768 10.1458 49.3709 10.713 48.7986 11.4522C48.239 12.1787 47.8129 13.0582 47.5203 14.0906C47.2405 15.123 47.1006 16.2702 47.1006 17.532C47.1006 18.8066 47.2405 19.9601 47.5203 20.9925C47.8129 22.0122 48.239 22.8853 48.7986 23.6118C49.3709 24.3383 50.0768 24.8992 50.9163 25.2943C51.7684 25.6767 52.7605 25.8679 53.8924 25.8679Z" transform="translate(74.6587 10.9268)" fill="#3C4A63"/>
<path d="M67.305 27.0532V8.02993H68.2589C68.4751 8.02993 68.6277 8.07455 68.7167 8.16377C68.8185 8.25299 68.8757 8.40594 68.8884 8.62262L69.0411 12.6376C69.6516 11.0953 70.4656 9.89084 71.4831 9.02412C72.5006 8.14465 73.7534 7.70491 75.2415 7.70491C75.8138 7.70491 76.3416 7.76864 76.825 7.8961C77.3083 8.01082 77.7661 8.18289 78.1986 8.41231L77.9506 9.67416C77.9124 9.87809 77.7852 9.98006 77.569 9.98006C77.4927 9.98006 77.3846 9.95457 77.2447 9.90359C77.1048 9.8526 76.9267 9.79525 76.7105 9.73152C76.507 9.66779 76.2526 9.61043 75.9474 9.55945C75.6421 9.50846 75.2923 9.48297 74.8981 9.48297C73.4608 9.48297 72.278 9.92908 71.3495 10.8213C70.4338 11.7135 69.6897 13.0008 69.1174 14.6833V27.0532H67.305Z" transform="translate(74.6587 10.9268)" fill="#3C4A63"/>
<path d="M93.6164 27.0532C93.2348 27.0532 92.9995 26.8748 92.9105 26.5179L92.6434 24.0898C92.1219 24.5996 91.6005 25.0585 91.079 25.4664C90.5702 25.8742 90.0361 26.2184 89.4764 26.4988C88.9168 26.7792 88.3127 26.9895 87.664 27.1297C87.0154 27.2827 86.3031 27.3591 85.5273 27.3591C84.8786 27.3591 84.249 27.2635 83.6385 27.0723C83.028 26.8812 82.4875 26.588 82.0169 26.1929C81.5463 25.7978 81.1647 25.2943 80.8722 24.6825C80.5924 24.0579 80.4525 23.3123 80.4525 22.4456C80.4525 21.6426 80.6814 20.8969 81.1393 20.2087C81.5972 19.5204 82.3094 18.9213 83.276 18.4115C84.2554 17.9017 85.5082 17.4938 87.0344 17.1879C88.5734 16.882 90.4176 16.7035 92.5671 16.6526V14.6642C92.5671 12.9053 92.1855 11.5542 91.4224 10.611C90.672 9.65504 89.5527 9.17707 88.0647 9.17707C87.1489 9.17707 86.3667 9.30453 85.718 9.55945C85.0821 9.81436 84.5416 10.0948 84.0964 10.4007C83.6512 10.7066 83.2888 10.987 83.0089 11.2419C82.7291 11.4968 82.4938 11.6243 82.3031 11.6243C82.0487 11.6243 81.8579 11.5096 81.7307 11.2801L81.4064 10.7257C82.3985 9.73152 83.4414 8.97951 84.5352 8.46967C85.629 7.95983 86.8691 7.70491 88.2554 7.70491C89.2729 7.70491 90.1633 7.87061 90.9264 8.202C91.6895 8.52065 92.3191 8.98588 92.8151 9.59768C93.3239 10.1967 93.7054 10.9296 93.9598 11.7964C94.2142 12.6503 94.3414 13.6063 94.3414 14.6642V27.0532H93.6164ZM85.9851 26.0399C86.7228 26.0399 87.3969 25.9635 88.0074 25.8105C88.6306 25.6448 89.203 25.4218 89.7244 25.1413C90.2586 24.8482 90.7547 24.504 91.2125 24.1089C91.6704 23.7138 92.1219 23.2868 92.5671 22.828V17.8762C90.761 17.9271 89.203 18.0674 87.893 18.2968C86.5956 18.5135 85.5209 18.813 84.6687 19.1954C83.8293 19.5777 83.2061 20.0366 82.7991 20.5719C82.4048 21.0945 82.2077 21.6936 82.2077 22.3691C82.2077 23.0064 82.3094 23.5608 82.5129 24.0324C82.7291 24.4913 83.009 24.8737 83.3524 25.1796C83.6958 25.4727 84.0964 25.6894 84.5543 25.8296C85.0122 25.9698 85.4891 26.0399 85.9851 26.0399Z" transform="translate(74.6587 10.9268)" fill="#3C4A63"/>
</svg>
