<svg width="1446" height="938" viewBox="0 0 1446 938" fill="none" xmlns="http://www.w3.org/2000/svg">
<rect width="1446" height="938" fill="url(#paint0_linear)" fill-opacity="0.25"/>
<mask id="mask0" mask-type="alpha" maskUnits="userSpaceOnUse" x="0" y="0" width="1446" height="938">
<rect width="1446" height="938" fill="url(#paint1_linear)"/>
</mask>
<g mask="url(#mask0)">
<g opacity="0.9">
<path opacity="0.3" d="M1320.73 131L1358 195.5L1320.73 260H1246.23L1209 195.5L1246.23 131H1320.73Z" fill="url(#paint2_linear)"/>
<g opacity="0.5">
<path opacity="0.4" d="M985.727 324L1023 388L985.727 452H911.227L874 388L911.227 324H985.727Z" fill="url(#paint3_linear)"/>
<path opacity="0.3" d="M873.727 645L911 709L873.727 773H799.227L762 709L799.227 645H873.727Z" fill="url(#paint4_linear)"/>
<path opacity="0.3" d="M1208.77 324L1246 388.5L1208.77 453H1134.23L1097 388.5L1134.23 324H1208.77Z" fill="url(#paint5_linear)"/>
<path opacity="0.3" d="M540.727 193L578 257.5L540.727 322H466.273L429 257.5L466.273 193H540.727Z" fill="url(#paint6_linear)"/>
<path opacity="0.3" d="M205.022 642L242 706.477L205.022 771H131.022L94 706.477L131.022 642H205.022Z" fill="url(#paint7_linear)"/>
<path opacity="0.2" d="M428.739 386L466 450L428.739 514H354.261L317 450L354.261 386H428.739Z" fill="url(#paint8_linear)"/>
<path opacity="0.2" d="M1095.73 646L1133 710L1095.73 774H1021.23L984 710L1021.23 646H1095.73Z" fill="url(#paint9_linear)"/>
<path opacity="0.3" d="M206.5 385L244 449.5L206.5 514H131.5L94 449.5L131.5 385H206.5Z" fill="url(#paint10_linear)"/>
<path opacity="0.3" d="M-17.25 512L20 577L-17.25 642H-91.75L-129 577L-91.75 512H-17.25Z" fill="url(#paint11_linear)"/>
</g>
<path d="M-684.97 393.699C-683.654 393.727 -682.348 393.466 -681.143 392.934L-652.193 442.891C-652.908 443.476 -653.488 444.21 -653.892 445.042C-654.297 445.873 -654.516 446.782 -654.534 447.706C-654.535 449.316 -653.944 450.87 -652.875 452.073C-651.805 453.277 -650.331 454.046 -648.731 454.235C-647.132 454.423 -645.519 454.019 -644.199 453.097C-642.878 452.176 -641.942 450.802 -641.567 449.237H-583.036C-582.897 450.681 -582.411 452.07 -581.62 453.286C-580.828 454.501 -579.755 455.508 -578.49 456.22C-577.225 456.931 -575.807 457.327 -574.357 457.373C-572.906 457.418 -571.466 457.113 -570.159 456.483L-540.894 506.89C-541.766 507.56 -542.478 508.418 -542.977 509.399C-543.475 510.38 -543.748 511.46 -543.775 512.56C-543.811 514.483 -543.103 516.346 -541.799 517.761C-540.495 519.175 -538.696 520.033 -536.776 520.154C-534.855 520.276 -532.962 519.653 -531.49 518.414C-530.018 517.176 -529.08 515.418 -528.872 513.505H-471.827C-471.596 514.94 -471.021 516.297 -470.152 517.461C-469.282 518.625 -468.143 519.561 -466.833 520.19C-465.523 520.819 -464.08 521.121 -462.627 521.071C-461.175 521.021 -459.756 520.621 -458.492 519.904C-457.228 519.187 -456.156 518.175 -455.369 516.954C-454.581 515.733 -454.101 514.339 -453.969 512.893C-453.837 511.446 -454.057 509.989 -454.611 508.645C-455.165 507.302 -456.036 506.113 -457.149 505.179L-428.469 455.672C-427.52 456.103 -426.493 456.332 -425.452 456.348C-423.508 456.392 -421.618 455.704 -420.159 454.42C-418.699 453.136 -417.776 451.35 -417.573 449.417H-358.681C-358.624 450.671 -358.254 451.89 -357.607 452.966C-356.96 454.042 -356.055 454.939 -354.974 455.578C-353.892 456.216 -352.669 456.576 -351.414 456.624C-350.159 456.672 -348.912 456.407 -347.786 455.853L-318.16 507.205C-319.22 508.037 -319.996 509.177 -320.382 510.468C-320.768 511.758 -320.745 513.137 -320.315 514.414C-319.886 515.691 -319.072 516.805 -317.985 517.601C-316.898 518.397 -315.59 518.837 -314.243 518.861C-312.695 518.899 -311.184 518.385 -309.98 517.413C-308.776 516.44 -307.957 515.071 -307.669 513.55H-247.247C-247.052 515.426 -246.182 517.167 -244.799 518.45C-243.416 519.733 -241.614 520.471 -239.728 520.526C-238.56 520.567 -237.401 520.32 -236.351 519.806L-206.455 571.968C-207.266 572.557 -207.929 573.324 -208.396 574.21C-208.862 575.096 -209.118 576.077 -209.144 577.078C-209.17 578.078 -208.965 579.072 -208.546 579.981C-208.127 580.89 -207.504 581.69 -206.725 582.32L-236.531 633.537C-237.708 633.052 -238.986 632.864 -240.252 632.99C-241.518 633.116 -242.734 633.552 -243.792 634.26C-244.849 634.967 -245.716 635.924 -246.316 637.046C-246.915 638.168 -247.229 639.421 -247.229 640.693C-247.229 641.965 -246.915 643.218 -246.316 644.34C-245.716 645.462 -244.849 646.419 -243.792 647.126C-242.734 647.834 -241.518 648.27 -240.252 648.396C-238.986 648.522 -237.708 648.334 -236.531 647.849L-207.941 697.806C-209.614 698.879 -210.885 700.477 -211.555 702.348C-212.224 704.219 -212.256 706.259 -211.644 708.15C-211.032 710.041 -209.812 711.676 -208.173 712.801C-206.534 713.926 -204.568 714.477 -202.583 714.368C-200.268 714.457 -198.008 713.651 -196.272 712.117C-194.536 710.583 -193.459 708.44 -193.263 706.132H-136.263C-136.19 707.389 -135.812 708.609 -135.164 709.688C-134.515 710.768 -133.614 711.673 -132.539 712.328C-131.463 712.983 -130.244 713.368 -128.988 713.448C-127.731 713.529 -126.473 713.304 -125.322 712.793L-97.002 762.3C-98.0881 763.124 -98.9725 764.185 -99.5887 765.401C-100.205 766.617 -100.537 767.958 -100.559 769.321C-100.653 770.52 -100.511 771.727 -100.139 772.872C-99.7669 774.016 -99.1731 775.077 -98.3912 775.992C-97.6094 776.907 -96.6549 777.659 -95.5822 778.206C-94.5095 778.752 -93.3397 779.082 -92.1394 779.177C-90.9391 779.272 -89.732 779.129 -88.5869 778.757C-87.4418 778.385 -86.3812 777.792 -85.4656 777.01C-84.5499 776.229 -83.7973 775.275 -83.2505 774.202C-82.7039 773.13 -82.3737 771.961 -82.2791 770.761H-23.7479C-23.6236 771.851 -23.2282 772.892 -22.5978 773.791C-21.9674 774.689 -21.1221 775.414 -20.139 775.902C-19.1559 776.39 -18.0663 776.624 -16.9695 776.583C-15.8728 776.541 -14.8038 776.226 -13.8602 775.666C-12.9166 775.106 -12.1282 774.318 -11.5671 773.375C-11.006 772.432 -10.6901 771.364 -10.648 770.268C-10.606 769.172 -10.8393 768.082 -11.3265 767.099C-11.8137 766.116 -12.5394 765.271 -13.4374 764.64L15.8732 714.323C17.1296 715.019 18.5345 715.405 19.9705 715.448C21.1642 715.496 22.3556 715.307 23.4752 714.89C24.5948 714.473 25.6203 713.838 26.4919 713.021C27.3635 712.204 28.0639 711.222 28.5521 710.132C29.0402 709.042 29.3065 707.866 29.3353 706.672H86.3808C86.4935 708.603 87.3298 710.422 88.7232 711.764C90.1166 713.107 91.9648 713.876 93.8998 713.918C94.9951 713.955 96.0855 713.756 97.0965 713.333L125.867 763.605C124.911 764.393 124.158 765.399 123.672 766.538C123.186 767.677 122.98 768.917 123.073 770.152C123.165 771.387 123.552 772.582 124.202 773.636C124.852 774.691 125.745 775.574 126.807 776.212C127.87 776.85 129.069 777.223 130.306 777.302C131.542 777.38 132.78 777.16 133.914 776.662C135.048 776.163 136.046 775.399 136.823 774.435C137.601 773.471 138.136 772.334 138.384 771.121L198.491 771.391C198.801 772.834 199.586 774.133 200.72 775.079C201.854 776.025 203.273 776.564 204.749 776.612C205.547 776.62 206.341 776.483 207.09 776.207L208.666 775.396C209.51 774.808 210.203 774.028 210.688 773.121C211.173 772.213 211.437 771.204 211.457 770.176C211.475 769.204 211.278 768.241 210.881 767.354C210.485 766.468 209.897 765.679 209.161 765.045L238.652 714.413C239.776 714.899 240.984 715.159 242.209 715.178C244.467 715.262 246.674 714.494 248.393 713.027C250.111 711.559 251.214 709.5 251.484 707.257V705.502C251.414 703.162 250.434 700.941 248.753 699.311C247.072 697.681 244.821 696.77 242.479 696.771C241.012 696.736 239.559 697.061 238.247 697.716L209.386 647.309C210.154 646.625 210.748 645.769 211.122 644.811C211.496 643.854 211.638 642.821 211.537 641.798C211.436 640.775 211.095 639.791 210.541 638.925C209.987 638.059 209.237 637.336 208.35 636.814C207.464 636.293 206.467 635.989 205.441 635.926C204.414 635.863 203.387 636.043 202.444 636.452C201.5 636.86 200.667 637.486 200.011 638.278C199.356 639.07 198.896 640.005 198.671 641.008H137.033C136.746 639.537 135.964 638.208 134.817 637.242C133.671 636.276 132.229 635.731 130.729 635.697C130.075 635.695 129.423 635.786 128.793 635.967L98.4472 582.995C99.2662 582.393 99.9321 581.606 100.391 580.7C100.85 579.793 101.089 578.791 101.089 577.774C101.089 576.758 100.85 575.756 100.391 574.849C99.9321 573.942 99.2662 573.156 98.4472 572.554L128.703 520.571C129.493 520.889 130.33 521.071 131.18 521.111C132.99 521.138 134.74 520.464 136.066 519.232C137.391 517.999 138.189 516.302 138.293 514.496H199.481C199.671 516.17 200.502 517.706 201.799 518.782C203.096 519.858 204.76 520.39 206.441 520.268C208.122 520.146 209.691 519.379 210.819 518.126C211.947 516.874 212.547 515.235 212.493 513.55C212.514 512.537 212.297 511.532 211.859 510.618C211.421 509.703 210.775 508.904 209.972 508.285L239.237 458.058C240.265 458.488 241.365 458.718 242.479 458.733C244.823 458.832 247.114 458.013 248.863 456.45C250.612 454.886 251.682 452.702 251.844 450.362L309.655 450.587C309.767 452.634 310.643 454.566 312.11 455.999C313.577 457.432 315.529 458.263 317.579 458.328C318.757 458.325 319.922 458.079 321.001 457.608L350.266 508.69C349.479 509.279 348.836 510.039 348.384 510.911C347.932 511.784 347.682 512.748 347.655 513.73C347.625 514.846 347.878 515.95 348.389 516.942C348.901 517.933 349.655 518.779 350.582 519.401L319.83 572.194C319.175 571.979 318.493 571.858 317.804 571.833C316.901 571.742 315.989 571.839 315.125 572.117C314.261 572.396 313.465 572.85 312.785 573.451C312.106 574.053 311.558 574.788 311.177 575.612C310.796 576.435 310.589 577.328 310.571 578.236C310.552 579.143 310.721 580.044 311.068 580.882C311.415 581.721 311.932 582.478 312.586 583.107C313.24 583.736 314.017 584.223 314.869 584.536C315.721 584.85 316.628 584.984 317.534 584.93C318.253 584.965 318.972 584.858 319.65 584.615L348.601 635.112C347.508 636.038 346.652 637.212 346.104 638.535C345.556 639.858 345.332 641.293 345.45 642.72C345.568 644.147 346.025 645.526 346.783 646.741C347.541 647.956 348.578 648.973 349.809 649.707C351.039 650.441 352.427 650.871 353.856 650.961C355.286 651.051 356.717 650.799 358.029 650.226C359.342 649.653 360.499 648.774 361.404 647.664C362.309 646.554 362.937 645.244 363.233 643.843H421.765C422.021 645.448 422.864 646.901 424.13 647.921C425.395 648.942 426.994 649.457 428.618 649.367C430.241 649.278 431.774 648.59 432.92 647.437C434.066 646.283 434.743 644.747 434.822 643.123C434.85 642.124 434.645 641.132 434.223 640.226C433.801 639.32 433.173 638.524 432.39 637.903L462.466 586.28C463.444 586.725 464.5 586.97 465.573 587.001C466.693 587.105 467.823 586.977 468.891 586.626C469.96 586.275 470.945 585.708 471.785 584.96C472.625 584.211 473.301 583.298 473.773 582.277C474.244 581.256 474.5 580.149 474.525 579.025C474.55 577.901 474.343 576.784 473.917 575.743C473.491 574.702 472.855 573.76 472.049 572.976C471.243 572.191 470.284 571.581 469.232 571.183C468.18 570.785 467.057 570.608 465.933 570.663C464.771 570.631 463.616 570.861 462.556 571.338L434.191 521.832C435.509 521.048 436.604 519.94 437.374 518.614C438.144 517.289 438.562 515.788 438.589 514.256C438.616 512.723 438.251 511.209 437.529 509.857C436.806 508.505 435.75 507.359 434.461 506.529L463.727 456.303C464.537 456.661 465.408 456.859 466.293 456.888C467.925 456.93 469.513 456.356 470.74 455.28C471.967 454.204 472.742 452.705 472.912 451.082H532.614C532.757 452.317 533.181 453.503 533.854 454.549C534.527 455.595 535.43 456.473 536.495 457.116C537.56 457.759 538.758 458.15 539.997 458.259C541.236 458.367 542.484 458.191 543.645 457.743L572.46 508.015C571.568 508.751 570.844 509.671 570.339 510.711C569.834 511.752 569.559 512.889 569.533 514.046C569.52 516.082 570.27 518.05 571.636 519.562C573.003 521.073 574.886 522.017 576.914 522.21C578.943 522.402 580.97 521.827 582.595 520.599C584.221 519.371 585.328 517.579 585.697 515.576H642.472C642.654 517.836 643.682 519.945 645.352 521.48C647.021 523.015 649.208 523.864 651.477 523.857C652.775 523.892 654.065 523.647 655.259 523.137L684.48 574.084C683.751 574.681 683.161 575.429 682.749 576.275C682.337 577.122 682.114 578.048 682.093 578.989C682.074 579.97 682.279 580.942 682.692 581.831C683.106 582.72 683.717 583.503 684.48 584.12L654.809 635.067C653.783 634.632 652.682 634.403 651.567 634.392C650.35 634.554 649.18 634.963 648.127 635.593C647.074 636.224 646.161 637.063 645.444 638.059C644.728 639.055 644.223 640.187 643.959 641.385C643.696 642.584 643.681 643.823 643.915 645.028C644.148 646.232 644.626 647.376 645.318 648.39C646.01 649.403 646.902 650.264 647.939 650.92C648.976 651.577 650.136 652.014 651.349 652.205C652.561 652.397 653.8 652.339 654.989 652.034L683.129 701.226C681.839 702.282 680.905 703.707 680.451 705.31C679.997 706.913 680.046 708.617 680.59 710.191C681.135 711.766 682.149 713.135 683.497 714.115C684.844 715.096 686.46 715.639 688.127 715.673C690.107 715.705 692.032 715.014 693.54 713.73C695.048 712.446 696.037 710.657 696.321 708.697H754.132C754.339 710.656 755.254 712.472 756.704 713.806C758.154 715.14 760.041 715.9 762.011 715.943C763.141 715.992 764.266 715.777 765.298 715.313L795.194 767.565C794.566 768.137 794.063 768.832 793.714 769.606C793.366 770.38 793.18 771.217 793.167 772.066C793.165 773.669 793.765 775.215 794.849 776.396C795.932 777.578 797.421 778.309 799.019 778.445C800.617 778.581 802.208 778.112 803.475 777.13C804.744 776.149 805.596 774.727 805.864 773.146L865.071 773.371C865.385 775.233 866.34 776.926 867.771 778.158C869.201 779.391 871.017 780.086 872.905 780.122C875.068 780.159 877.158 779.344 878.724 777.854C880.291 776.363 881.209 774.317 881.28 772.156C881.301 770.913 881.036 769.682 880.505 768.559C879.974 767.435 879.191 766.448 878.218 765.675L908.294 714.053C909.118 714.468 910.028 714.684 910.95 714.683C912.511 714.717 914.032 714.191 915.238 713.2C916.444 712.209 917.255 710.82 917.524 709.282L975.515 709.507C975.646 710.947 976.122 712.334 976.903 713.551C977.683 714.768 978.746 715.779 980 716.499C981.255 717.218 982.664 717.625 984.109 717.685C985.554 717.745 986.992 717.457 988.302 716.843L1017.43 767.7C1016.33 768.507 1015.51 769.64 1015.08 770.938C1014.66 772.237 1014.65 773.636 1015.06 774.938C1015.48 776.24 1016.29 777.38 1017.38 778.198C1018.48 779.015 1019.8 779.467 1021.17 779.492C1022.73 779.519 1024.26 778.991 1025.47 778.002C1026.68 777.014 1027.5 775.628 1027.79 774.091H1087.58C1087.78 775.399 1088.3 776.637 1089.08 777.701C1089.87 778.764 1090.91 779.619 1092.1 780.193C1093.29 780.767 1094.6 781.042 1095.93 780.995C1097.25 780.947 1098.54 780.579 1099.69 779.921C1100.84 779.263 1101.81 778.335 1102.52 777.219C1103.22 776.102 1103.65 774.829 1103.76 773.511C1103.86 772.192 1103.65 770.868 1103.13 769.652C1102.61 768.435 1101.8 767.364 1100.77 766.53L1129.32 717.519C1130.53 718.181 1131.89 718.536 1133.28 718.554C1134.49 718.58 1135.69 718.369 1136.82 717.931C1137.95 717.493 1138.98 716.837 1139.85 716.001C1140.72 715.165 1141.42 714.166 1141.91 713.059C1142.4 711.953 1142.66 710.761 1142.69 709.552C1142.72 708.344 1142.5 707.142 1142.07 706.015C1141.63 704.888 1140.97 703.858 1140.14 702.985C1139.3 702.112 1138.3 701.411 1137.19 700.924C1136.09 700.437 1134.89 700.173 1133.68 700.146C1132.27 700.12 1130.86 700.428 1129.59 701.046L1100.28 649.829C1101.13 649.169 1101.81 648.31 1102.25 647.326C1102.69 646.342 1102.89 645.264 1102.81 644.188C1102.74 643.112 1102.4 642.07 1101.83 641.155C1101.26 640.239 1100.48 639.478 1099.54 638.939C1098.61 638.4 1097.55 638.1 1096.47 638.064C1095.4 638.028 1094.32 638.258 1093.36 638.734C1092.39 639.21 1091.55 639.916 1090.92 640.792C1090.29 641.667 1089.88 642.684 1089.74 643.753H1028.28C1028.12 642.164 1027.39 640.686 1026.22 639.594C1025.05 638.502 1023.53 637.87 1021.93 637.812C1021.09 637.797 1020.25 637.95 1019.46 638.263L989.922 586.685C990.893 585.952 991.685 585.008 992.239 583.924C992.793 582.841 993.094 581.646 993.119 580.43C993.121 578.373 992.345 576.392 990.947 574.884C989.548 573.376 987.631 572.453 985.579 572.299C983.528 572.145 981.494 572.772 979.886 574.055C978.279 575.338 977.215 577.181 976.911 579.214H921.351C921.221 577.45 920.646 575.747 919.681 574.264C918.715 572.781 917.39 571.567 915.828 570.734C914.266 569.901 912.519 569.476 910.749 569.5C908.979 569.523 907.244 569.994 905.705 570.868C904.167 571.743 902.874 572.992 901.948 574.5C901.022 576.008 900.493 577.725 900.41 579.493C900.327 581.26 900.692 583.02 901.472 584.608C902.253 586.196 903.422 587.561 904.872 588.576L876.777 636.822C875.822 636.413 874.799 636.184 873.761 636.147C871.745 636.11 869.787 636.821 868.265 638.143C866.744 639.464 865.766 641.303 865.521 643.303H805.684C805.414 641.82 804.639 640.476 803.49 639.5C802.341 638.524 800.889 637.975 799.381 637.948C798.632 637.916 797.885 638.023 797.175 638.263L768.539 588.261C769.964 587.322 771.136 586.049 771.955 584.554C772.773 583.058 773.213 581.384 773.235 579.679C773.257 577.974 772.861 576.29 772.082 574.773C771.303 573.256 770.164 571.954 768.765 570.978L797.49 521.471C798.175 521.758 798.909 521.911 799.651 521.922C801.255 521.969 802.82 521.42 804.042 520.381C805.265 519.342 806.059 517.886 806.27 516.296L866.062 516.521C866.259 518.488 867.169 520.315 868.62 521.658C870.071 523.001 871.964 523.767 873.941 523.812C875.686 523.865 877.403 523.356 878.837 522.36C880.272 521.365 881.348 519.934 881.908 518.281C882.468 516.627 882.482 514.837 881.947 513.176C881.412 511.514 880.358 510.067 878.938 509.05L907.123 460.713C908.413 461.291 909.807 461.597 911.221 461.613C913.787 461.672 916.285 460.788 918.244 459.13C920.202 457.471 921.483 455.152 921.846 452.612H979.567C979.763 454.288 980.559 455.836 981.809 456.97C983.059 458.103 984.678 458.746 986.366 458.778C987.111 458.765 987.852 458.659 988.572 458.463L1016.8 507.97C1015.19 508.862 1013.85 510.163 1012.9 511.741C1011.95 513.318 1011.43 515.117 1011.4 516.957C1011.37 518.797 1011.82 520.613 1012.72 522.223C1013.61 523.832 1014.91 525.179 1016.49 526.127C1018.06 527.075 1019.86 527.591 1021.7 527.624C1023.54 527.657 1025.36 527.205 1026.97 526.314C1028.58 525.422 1029.93 524.123 1030.88 522.546C1031.83 520.97 1032.35 519.171 1032.38 517.331H1088.84C1089.14 519.346 1090.18 521.178 1091.76 522.464C1093.34 523.75 1095.34 524.398 1097.38 524.279C1099.41 524.161 1101.33 523.284 1102.75 521.823C1104.17 520.362 1104.99 518.422 1105.05 516.386C1104.95 515.195 1104.58 514.041 1103.98 513.007C1103.38 511.972 1102.56 511.082 1101.58 510.4L1129.5 462.693C1131.05 463.465 1132.78 463.832 1134.52 463.76C1136.26 463.689 1137.95 463.181 1139.44 462.284C1140.93 461.387 1142.17 460.13 1143.04 458.629C1143.92 457.127 1144.4 455.429 1144.44 453.692H1197.84C1198.05 456.269 1199.21 458.678 1201.09 460.455C1202.96 462.233 1205.43 463.254 1208.02 463.324C1209.57 463.359 1211.11 463.036 1212.52 462.378L1240.89 511.885C1239.85 512.735 1239.09 513.883 1238.72 515.174C1238.36 516.465 1238.39 517.838 1238.83 519.108C1239.27 520.378 1240.08 521.483 1241.17 522.276C1242.25 523.069 1243.55 523.511 1244.89 523.542C1246.45 523.558 1247.96 523.025 1249.16 522.037C1250.37 521.05 1251.18 519.67 1251.47 518.141L1309.46 518.366C1309.55 521.007 1310.64 523.514 1312.51 525.378C1314.39 527.243 1316.9 528.324 1319.54 528.402C1320.99 528.449 1322.43 528.188 1323.78 527.637L1351.78 576.604C1350.76 577.46 1350.03 578.606 1349.68 579.89C1349.33 581.173 1349.38 582.533 1349.83 583.786C1350.27 585.04 1351.09 586.127 1352.17 586.902C1353.25 587.678 1354.55 588.105 1355.88 588.126C1357.36 588.168 1358.82 587.699 1360 586.798C1361.18 585.896 1362.01 584.618 1362.36 583.175H1419.81C1420.04 584.876 1420.68 586.495 1421.69 587.888C1422.69 589.282 1424.02 590.406 1425.56 591.162C1427.1 591.918 1428.81 592.283 1430.53 592.224C1432.24 592.165 1433.92 591.683 1435.4 590.823C1436.89 589.962 1438.14 588.748 1439.04 587.289C1439.95 585.83 1440.48 584.171 1440.59 582.458C1440.7 580.745 1440.39 579.031 1439.67 577.469C1438.96 575.906 1437.88 574.542 1436.52 573.499L1465.02 524.577C1465.73 524.862 1466.49 525.03 1467.27 525.072C1469.01 525.114 1470.7 524.462 1471.96 523.259C1473.22 522.056 1473.96 520.401 1474 518.659C1474.04 516.916 1473.39 515.228 1472.18 513.966C1470.98 512.704 1469.33 511.972 1467.58 511.93C1466.83 511.929 1466.09 512.051 1465.38 512.29L1436.88 462.513C1438.56 461.213 1439.81 459.429 1440.46 457.4C1441.11 455.371 1441.13 453.192 1440.5 451.155C1439.88 449.117 1438.66 447.316 1436.99 445.993C1435.32 444.669 1433.28 443.886 1431.16 443.746C1428.52 443.689 1425.96 444.631 1423.99 446.384C1422.02 448.138 1420.78 450.572 1420.53 453.197L1362.9 452.972C1362.64 451.481 1361.87 450.126 1360.72 449.141C1359.57 448.156 1358.11 447.601 1356.6 447.571C1355.78 447.54 1354.97 447.678 1354.21 447.976L1324.27 395.724C1325.21 395.049 1325.98 394.165 1326.52 393.142C1327.06 392.119 1327.35 390.984 1327.38 389.828C1327.43 387.906 1326.75 386.035 1325.47 384.598C1324.19 383.161 1322.41 382.265 1320.49 382.093C1318.58 381.921 1316.67 382.485 1315.15 383.672C1313.64 384.858 1312.63 386.577 1312.34 388.478H1252.05C1251.88 386.906 1251.14 385.45 1249.97 384.382C1248.8 383.314 1247.29 382.706 1245.7 382.672C1244.78 382.665 1243.86 382.849 1243 383.213L1214.55 333.706C1215.98 332.752 1217.15 331.46 1217.96 329.945C1218.77 328.43 1219.2 326.738 1219.2 325.02C1219.2 323.301 1218.77 321.609 1217.96 320.094C1217.15 318.579 1215.98 317.287 1214.55 316.333L1243 267.457C1243.74 267.785 1244.54 267.954 1245.34 267.952C1247.03 267.979 1248.66 267.359 1249.9 266.22C1251.14 265.081 1251.89 263.51 1252.01 261.831H1312.38C1312.54 263.069 1313 264.249 1313.72 265.265C1314.45 266.282 1315.41 267.105 1316.53 267.659C1317.65 268.214 1318.88 268.483 1320.13 268.443C1321.38 268.404 1322.6 268.056 1323.68 267.431C1324.76 266.807 1325.67 265.925 1326.32 264.864C1326.98 263.803 1327.36 262.596 1327.44 261.351C1327.52 260.106 1327.28 258.861 1326.76 257.728C1326.24 256.594 1325.45 255.607 1324.45 254.855L1354.71 202.873C1355.33 203.098 1355.98 203.234 1356.64 203.278C1358.32 203.383 1359.98 202.846 1361.27 201.776C1362.57 200.706 1363.41 199.184 1363.62 197.517V195.762C1363.43 194.196 1362.68 192.751 1361.52 191.687C1360.36 190.622 1358.85 190.009 1357.27 189.956C1356.49 189.951 1355.71 190.088 1354.98 190.361L1324.45 137.299C1325.23 136.693 1325.86 135.918 1326.29 135.032C1326.72 134.147 1326.94 133.175 1326.94 132.19C1326.94 131.206 1326.72 130.234 1326.29 129.349C1325.86 128.463 1325.23 127.688 1324.45 127.082L1322.92 126.182C1322.17 125.84 1321.36 125.656 1320.53 125.642C1318.96 125.65 1317.44 126.229 1316.25 127.272C1315.07 128.314 1314.3 129.75 1314.1 131.313H1252.77C1252.58 129.645 1251.75 128.116 1250.46 127.044C1249.17 125.971 1247.51 125.437 1245.84 125.553C1244.16 125.669 1242.6 126.426 1241.46 127.666C1240.33 128.906 1239.72 130.535 1239.76 132.213C1239.74 133.184 1239.94 134.147 1240.34 135.034C1240.73 135.921 1241.32 136.709 1242.06 137.344L1212.16 188.651C1211.15 188.165 1210.04 187.904 1208.92 187.886C1206.85 187.856 1204.86 188.61 1203.33 189.997C1201.8 191.384 1200.85 193.3 1200.68 195.357L1145.21 195.132C1144.95 192.612 1143.77 190.274 1141.91 188.559C1140.04 186.843 1137.61 185.868 1135.08 185.815C1133.53 185.759 1131.99 186.067 1130.58 186.715L1102.12 136.849C1102.85 136.253 1103.44 135.506 1103.86 134.659C1104.27 133.812 1104.49 132.885 1104.51 131.943C1104.61 130.269 1104.06 128.622 1102.98 127.342C1101.89 126.063 1100.36 125.249 1098.69 125.069C1097.02 124.89 1095.35 125.359 1094.02 126.379C1092.69 127.399 1091.8 128.892 1091.54 130.548H1032.02C1031.88 129.204 1031.42 127.915 1030.66 126.797C1029.9 125.679 1028.88 124.767 1027.68 124.142C1026.48 123.518 1025.14 123.202 1023.79 123.221C1022.44 123.241 1021.12 123.596 1019.94 124.255C1018.76 124.914 1017.76 125.855 1017.04 126.995C1016.31 128.135 1015.88 129.437 1015.78 130.784C1015.69 132.131 1015.93 133.481 1016.48 134.713C1017.04 135.944 1017.89 137.019 1018.96 137.839L989.022 189.011C988.375 188.76 987.69 188.623 986.996 188.606C985.345 188.697 983.789 189.407 982.639 190.593C981.488 191.78 980.827 193.356 980.787 195.009C980.747 196.661 981.332 198.267 982.424 199.508C983.516 200.749 985.036 201.532 986.681 201.703C987.432 201.719 988.18 201.597 988.887 201.342L1019.37 254.63C1018.54 255.3 1017.89 256.163 1017.47 257.143C1017.05 258.123 1016.88 259.19 1016.97 260.251C1017.06 261.313 1017.41 262.336 1017.99 263.231C1018.57 264.127 1019.35 264.868 1020.28 265.389C1021.21 265.911 1022.25 266.197 1023.32 266.224C1024.38 266.25 1025.44 266.015 1026.39 265.54C1027.35 265.065 1028.17 264.363 1028.79 263.497C1029.41 262.631 1029.81 261.626 1029.95 260.571H1089.47C1089.71 262.505 1090.64 264.289 1092.08 265.595C1093.53 266.901 1095.4 267.642 1097.35 267.682C1098.48 267.679 1099.59 267.465 1100.64 267.052L1130.26 318.809C1129.46 319.413 1128.81 320.195 1128.36 321.093C1127.91 321.991 1127.68 322.981 1127.68 323.984C1127.68 324.988 1127.91 325.978 1128.36 326.876C1128.81 327.774 1129.46 328.556 1130.26 329.16L1101.27 378.667C1099.95 378.06 1098.53 377.723 1097.08 377.677C1094.43 377.632 1091.86 378.591 1089.89 380.361C1087.92 382.131 1086.69 384.58 1086.45 387.218H1030.8C1030.56 385.292 1029.62 383.519 1028.18 382.222C1026.73 380.925 1024.87 380.19 1022.93 380.152C1021.81 380.111 1020.71 380.311 1019.68 380.737L991.093 330.825C992.516 329.845 993.59 328.438 994.16 326.808C994.73 325.178 994.768 323.409 994.267 321.756C993.766 320.103 992.752 318.652 991.373 317.613C989.993 316.574 988.318 315.999 986.591 315.973C984.605 315.94 982.675 316.63 981.159 317.913C979.643 319.196 978.646 320.986 978.351 322.949L922.387 322.724C922.27 320.953 921.704 319.24 920.744 317.746C919.784 316.253 918.461 315.027 916.897 314.185C915.334 313.342 913.582 312.91 911.806 312.929C910.03 312.948 908.288 313.417 906.744 314.293C905.199 315.169 903.901 316.423 902.974 317.936C902.046 319.45 901.518 321.175 901.438 322.948C901.359 324.722 901.732 326.486 902.522 328.077C903.311 329.667 904.492 331.031 905.953 332.04L877.047 381.547C876.314 381.257 875.539 381.09 874.751 381.052C873.134 380.979 871.554 381.548 870.356 382.636C869.158 383.724 868.439 385.242 868.358 386.858H806.72C806.513 385.207 805.715 383.686 804.474 382.577C803.232 381.469 801.631 380.847 799.966 380.827C799.046 380.803 798.13 380.962 797.271 381.293C796.413 381.624 795.628 382.122 794.963 382.758C794.297 383.394 793.764 384.155 793.394 384.998C793.024 385.841 792.825 386.748 792.807 387.668C792.793 388.773 793.039 389.865 793.523 390.858C794.008 391.85 794.719 392.716 795.599 393.384L766.468 443.341C765.353 442.828 764.139 442.567 762.911 442.576C760.575 442.488 758.296 443.313 756.556 444.875C754.817 446.438 753.754 448.615 753.592 450.947H697.672C697.602 449.547 697.169 448.188 696.417 447.005C695.665 445.822 694.618 444.854 693.379 444.196C692.14 443.539 690.752 443.214 689.35 443.253C687.948 443.292 686.58 443.695 685.38 444.421L655.754 392.664C656.568 391.988 657.207 391.127 657.616 390.152C658.025 389.177 658.193 388.118 658.106 387.065C658.018 386.011 657.678 384.995 657.113 384.101C656.548 383.207 655.776 382.462 654.862 381.93C653.948 381.398 652.92 381.095 651.863 381.045C650.807 380.995 649.754 381.201 648.794 381.645C647.835 382.089 646.996 382.758 646.35 383.595C645.704 384.432 645.27 385.412 645.084 386.453H588.308C588.169 384.749 587.61 383.106 586.68 381.67C585.751 380.235 584.48 379.052 582.982 378.228C581.484 377.403 579.804 376.962 578.094 376.945C576.384 376.927 574.695 377.333 573.18 378.127L544.41 327.81C545.108 327.212 545.673 326.475 546.069 325.645C546.464 324.816 546.682 323.913 546.706 322.994C546.715 322.02 546.51 321.055 546.106 320.169C545.701 319.283 545.107 318.496 544.365 317.864L575.702 263.946C576.402 264.233 577.151 264.386 577.908 264.396C579.483 264.44 581.02 263.912 582.236 262.911C583.453 261.91 584.266 260.504 584.526 258.95H643.823C644.126 260.977 645.182 262.815 646.781 264.098C648.379 265.38 650.402 266.014 652.447 265.872C654.492 265.73 656.408 264.823 657.814 263.332C659.22 261.84 660.012 259.874 660.032 257.825C659.989 256.609 659.671 255.418 659.101 254.343C658.532 253.267 657.726 252.334 656.745 251.614L686.731 200.172C687.467 200.453 688.241 200.62 689.027 200.667C690.624 200.685 692.173 200.126 693.389 199.092C694.605 198.058 695.407 196.62 695.646 195.042V193.286C695.461 191.722 694.717 190.277 693.55 189.218C692.383 188.159 690.873 187.558 689.297 187.526C688.451 187.518 687.611 187.671 686.821 187.976L657.87 137.074C659.074 136.261 660.062 135.169 660.752 133.892C661.442 132.614 661.813 131.189 661.833 129.738C661.89 128.253 661.578 126.778 660.926 125.443C660.274 124.108 659.302 122.955 658.096 122.087L656.565 121.186C655.223 120.499 653.729 120.16 652.222 120.199C650.714 120.239 649.24 120.656 647.936 121.414C646.632 122.171 645.539 123.243 644.757 124.532C643.976 125.822 643.531 127.286 643.463 128.793H586.282C585.984 126.775 584.939 124.942 583.354 123.657C581.77 122.372 579.76 121.728 577.723 121.853C575.687 121.977 573.771 122.861 572.354 124.329C570.938 125.797 570.124 127.743 570.074 129.783C570.053 131.054 570.326 132.312 570.873 133.46C571.42 134.608 572.225 135.614 573.225 136.399L545.13 184.645C543.848 184.093 542.474 183.787 541.078 183.745C538.52 183.697 536.032 184.586 534.083 186.244C532.135 187.902 530.859 190.214 530.497 192.746L475.568 192.521C475.277 190.329 474.208 188.314 472.555 186.843C470.902 185.373 468.776 184.545 466.564 184.51C465.38 184.51 464.205 184.724 463.097 185.14L435.497 136.849C437.273 135.851 438.659 134.28 439.427 132.394C440.195 130.507 440.3 128.416 439.725 126.461C439.15 124.507 437.929 122.806 436.261 121.635C434.594 120.464 432.578 119.894 430.544 120.016C428.305 119.969 426.124 120.737 424.409 122.178C422.695 123.619 421.563 125.634 421.224 127.847H363.549C363.363 125.856 362.454 124.001 360.994 122.633C359.534 121.265 357.624 120.479 355.624 120.421C354.514 120.38 353.408 120.58 352.383 121.006L350.852 121.862C349.747 122.608 348.842 123.613 348.216 124.79C347.59 125.967 347.263 127.28 347.263 128.612C347.263 129.945 347.59 131.258 348.216 132.435C348.842 133.612 349.747 134.617 350.852 135.363L321.766 185.32C320.84 184.926 319.846 184.712 318.84 184.69C316.793 184.647 314.807 185.379 313.278 186.74C311.75 188.101 310.793 189.989 310.6 192.026V193.781C310.809 195.736 311.725 197.547 313.176 198.873C314.627 200.199 316.513 200.95 318.48 200.982C319.557 201.038 320.634 200.853 321.631 200.442L350.582 250.489C349.625 251.223 348.845 252.162 348.3 253.237C347.754 254.312 347.457 255.495 347.43 256.7C347.363 258.78 348.095 260.806 349.476 262.363C350.856 263.921 352.78 264.891 354.854 265.075C356.927 265.259 358.992 264.643 360.626 263.354C362.259 262.064 363.337 260.199 363.639 258.14L422.62 258.365C422.766 259.397 423.14 260.383 423.715 261.252C424.29 262.122 425.051 262.852 425.944 263.391C426.836 263.929 427.837 264.262 428.874 264.366C429.911 264.47 430.959 264.342 431.94 263.991L461.026 314.848C459.837 315.662 458.861 316.748 458.179 318.017C457.497 319.286 457.13 320.699 457.108 322.139C457.063 323.593 457.372 325.037 458.007 326.346C458.642 327.655 459.585 328.79 460.755 329.655L432.39 378.307C431.486 377.949 430.526 377.751 429.554 377.722C427.477 377.692 425.467 378.451 423.929 379.847C422.391 381.242 421.44 383.169 421.269 385.238H361.342C361.212 383.643 360.505 382.151 359.353 381.041C358.201 379.93 356.683 379.278 355.084 379.207C354.205 379.206 353.333 379.374 352.518 379.702L322.847 327.855C324.214 326.856 325.235 325.457 325.77 323.852C326.305 322.246 326.326 320.514 325.831 318.896C325.336 317.278 324.349 315.854 323.008 314.822C321.666 313.79 320.036 313.202 318.344 313.138C316.291 313.083 314.292 313.81 312.754 315.172C311.216 316.534 310.253 318.429 310.06 320.474H250.718C250.566 319.419 250.159 318.417 249.533 317.554C248.907 316.692 248.08 315.994 247.124 315.522C246.168 315.05 245.112 314.817 244.046 314.844C242.98 314.871 241.937 315.157 241.006 315.677C240.075 316.197 239.285 316.935 238.703 317.829C238.121 318.722 237.766 319.743 237.667 320.805C237.568 321.866 237.729 322.935 238.136 323.92C238.543 324.906 239.184 325.777 240.003 326.46L208.936 379.702C208.341 379.502 207.718 379.396 207.09 379.387C205.571 379.314 204.074 379.773 202.858 380.685C201.641 381.597 200.781 382.905 200.427 384.383H141.4C141.215 381.96 140.075 379.709 138.23 378.127C136.385 376.544 133.986 375.759 131.562 375.944C129.138 376.129 126.887 377.269 125.304 379.113C123.721 380.957 122.935 383.355 123.12 385.778C123.08 387.172 123.364 388.556 123.95 389.821C124.536 391.086 125.408 392.198 126.497 393.069L98.8074 440.595C97.6864 440.095 96.4778 439.82 95.2505 439.785C94.0641 439.737 92.8799 439.924 91.7661 440.335C90.6522 440.746 89.6306 441.374 88.7601 442.181C87.8897 442.988 87.1876 443.96 86.6943 445.039C86.2009 446.119 85.9261 447.285 85.8856 448.471H27.3544C27.0477 446.905 26.2161 445.489 24.9966 444.458C23.777 443.427 22.2423 442.843 20.6458 442.801C19.8019 442.774 18.9609 442.912 18.1694 443.206L-9.88049 393.384C-8.52875 392.468 -7.41516 391.243 -6.63214 389.811C-5.84906 388.378 -5.41913 386.78 -5.37811 385.148C-5.23694 382.444 -6.15186 379.791 -7.92993 377.749C-9.70801 375.707 -12.2101 374.435 -14.9084 374.201C-17.6068 373.967 -20.2905 374.791 -22.3932 376.497C-24.4959 378.204 -25.8534 380.66 -26.1792 383.348H-80.7484C-80.9095 380.924 -82.0271 378.665 -83.8551 377.065C-85.6832 375.466 -88.072 374.658 -90.496 374.819C-92.92 374.98 -95.1808 376.097 -96.7808 377.924C-98.3809 379.752 -99.1893 382.14 -99.0281 384.563C-99.067 385.945 -98.7865 387.318 -98.2087 388.575C-97.6309 389.831 -96.7712 390.938 -95.6963 391.809L-125.052 442.216C-125.84 441.894 -126.678 441.712 -127.528 441.676C-129.174 441.595 -130.789 442.139 -132.05 443.199C-133.311 444.259 -134.124 445.757 -134.327 447.391H-193.443C-193.625 445.131 -194.653 443.022 -196.323 441.487C-197.992 439.952 -200.18 439.103 -202.448 439.11C-203.849 439.103 -205.234 439.411 -206.5 440.01L-234.28 391.854C-233.041 391.038 -232.023 389.93 -231.317 388.626C-230.61 387.323 -230.236 385.865 -230.228 384.383C-230.142 383.201 -230.29 382.013 -230.664 380.888C-231.037 379.763 -231.628 378.723 -232.404 377.827C-233.179 376.93 -234.124 376.195 -235.184 375.664C-236.243 375.132 -237.397 374.815 -238.58 374.729C-240.968 374.556 -243.327 375.338 -245.139 376.904C-246.035 377.679 -246.771 378.623 -247.302 379.683C-247.834 380.742 -248.152 381.895 -248.238 383.078H-306.769C-306.954 381.517 -307.7 380.078 -308.868 379.026C-310.036 377.975 -311.546 377.383 -313.117 377.362C-314.114 377.339 -315.102 377.555 -315.999 377.992L-344.544 328.485C-343.133 327.533 -341.976 326.25 -341.177 324.747C-340.378 323.244 -339.96 321.568 -339.96 319.866C-339.96 318.164 -340.378 316.488 -341.177 314.986C-341.976 313.483 -343.133 312.199 -344.544 311.248L-315.864 261.741C-314.963 262.092 -313.997 262.241 -313.032 262.176C-312.068 262.111 -311.13 261.835 -310.285 261.366C-309.439 260.898 -308.708 260.249 -308.142 259.465C-307.577 258.682 -307.191 257.783 -307.012 256.834C-306.834 255.884 -306.867 254.907 -307.109 253.972C-307.352 253.036 -307.798 252.166 -308.415 251.423C-309.032 250.679 -309.806 250.081 -310.681 249.671C-311.556 249.261 -312.511 249.048 -313.477 249.049C-314.355 249.015 -315.23 249.168 -316.044 249.499L-346.705 196.887C-345.832 196.268 -345.117 195.452 -344.616 194.507C-344.116 193.561 -343.844 192.511 -343.824 191.441C-343.763 189.637 -344.404 187.88 -345.612 186.539C-346.82 185.198 -348.502 184.377 -350.303 184.249C-352.104 184.12 -353.884 184.695 -355.271 185.852C-356.657 187.008 -357.54 188.657 -357.736 190.451H-415.997C-416.299 189.058 -416.927 187.757 -417.83 186.655C-418.733 185.552 -419.885 184.68 -421.191 184.109C-422.497 183.538 -423.92 183.286 -425.342 183.372C-426.765 183.458 -428.147 183.88 -429.375 184.605C-430.602 185.329 -431.64 186.334 -432.403 187.538C-433.167 188.741 -433.633 190.108 -433.764 191.527C-433.896 192.946 -433.688 194.376 -433.159 195.699C-432.63 197.022 -431.794 198.2 -430.72 199.137L-459.85 249.634C-460.564 249.332 -461.327 249.164 -462.102 249.139C-463.845 249.103 -465.531 249.761 -466.789 250.968C-468.047 252.175 -468.774 253.832 -468.81 255.575C-468.846 257.318 -468.188 259.003 -466.98 260.261C-465.773 261.518 -464.115 262.245 -462.372 262.281C-461.492 262.282 -460.621 262.114 -459.805 261.786L-430.765 312.103C-431.986 312.946 -432.979 314.079 -433.656 315.399C-434.333 316.719 -434.674 318.185 -434.647 319.669C-434.62 321.152 -434.227 322.605 -433.503 323.9C-432.778 325.195 -431.745 326.291 -430.495 327.09L-458.5 375.651C-459.817 375.063 -461.256 374.8 -462.696 374.883C-464.136 374.967 -465.535 375.395 -466.775 376.131C-468.015 376.868 -469.059 377.892 -469.821 379.116C-470.583 380.341 -471.039 381.73 -471.151 383.168H-527.702C-527.922 380.918 -528.96 378.828 -530.62 377.293C-532.28 375.758 -534.446 374.886 -536.706 374.841C-538.055 374.832 -539.39 375.108 -540.624 375.651L-569.214 325.875C-568.34 325.175 -567.629 324.292 -567.132 323.29C-566.634 322.287 -566.361 321.188 -566.332 320.069C-566.322 318.115 -567.052 316.229 -568.376 314.79C-569.699 313.352 -571.518 312.467 -573.467 312.313C-575.416 312.159 -577.351 312.748 -578.884 313.961C-580.416 315.174 -581.433 316.922 -581.73 318.854H-641.477C-641.755 317.374 -642.533 316.035 -643.68 315.06C-644.828 314.085 -646.275 313.534 -647.781 313.498C-649.517 313.485 -651.19 314.151 -652.444 315.353C-653.697 316.555 -654.431 318.199 -654.489 319.934C-654.509 320.914 -654.304 321.886 -653.89 322.775C-653.477 323.665 -652.865 324.448 -652.103 325.065L-681.414 375.922C-682.421 375.529 -683.485 375.301 -684.565 375.246C-685.777 375.22 -686.983 375.432 -688.113 375.871C-689.243 376.31 -690.275 376.968 -691.151 377.806C-692.92 379.498 -693.944 381.823 -693.998 384.27C-694.052 386.717 -693.131 389.085 -691.438 390.853C-689.745 392.622 -687.418 393.645 -684.97 393.699ZM-125.727 698.661C-126.609 698.282 -127.559 698.083 -128.519 698.076C-130.366 698.037 -132.167 698.66 -133.596 699.832C-135.024 701.004 -135.986 702.648 -136.308 704.467L-193.443 704.242C-193.581 701.949 -194.59 699.796 -196.264 698.223C-197.939 696.65 -200.151 695.776 -202.448 695.781C-204.007 695.747 -205.55 696.086 -206.951 696.771L-235.496 646.859C-234.492 646.143 -233.674 645.197 -233.109 644.101C-232.545 643.005 -232.25 641.791 -232.25 640.558C-232.25 639.325 -232.545 638.11 -233.109 637.014C-233.674 635.919 -234.492 634.973 -235.496 634.257L-205.735 583.13C-204.952 583.468 -204.111 583.651 -203.259 583.67C-201.572 583.708 -199.936 583.092 -198.694 581.951C-197.452 580.81 -196.699 579.232 -196.595 577.549L-135.678 577.909C-135.523 579.108 -135.091 580.254 -134.414 581.255C-133.738 582.256 -132.836 583.085 -131.781 583.676C-130.727 584.266 -129.548 584.602 -128.341 584.656C-127.133 584.709 -125.93 584.48 -124.827 583.985L-95.156 636.417C-95.9219 637.008 -96.5458 637.762 -96.9822 638.625C-97.4186 639.488 -97.6563 640.438 -97.6779 641.404C-97.6995 642.371 -97.5043 643.33 -97.1069 644.212C-96.7095 645.093 -96.1199 645.875 -95.3811 646.499L-125.727 698.661ZM15.513 583.535L-13.4824 633.357C-14.4638 632.988 -15.4968 632.776 -16.5441 632.727C-18.8239 632.633 -21.0541 633.409 -22.7842 634.896C-24.5142 636.383 -25.615 638.471 -25.864 640.738H-84.3953C-84.6182 639.202 -85.3779 637.794 -86.54 636.764C-87.702 635.735 -89.1912 635.149 -90.7437 635.112C-91.6684 635.093 -92.5873 635.261 -93.4451 635.607L-123.476 583.13C-122.545 582.427 -121.783 581.524 -121.245 580.488C-120.708 579.453 -120.408 578.31 -120.369 577.144C-120.347 575.889 -120.631 574.647 -121.195 573.526C-121.76 572.405 -122.589 571.438 -123.611 570.708L-94.5707 520.886C-93.4385 521.407 -92.2143 521.698 -90.9688 521.742C-88.6954 521.782 -86.4871 520.982 -84.7672 519.496C-83.0472 518.009 -81.9368 515.94 -81.6487 513.685H-25.2337C-25.0739 515.962 -24.0551 518.093 -22.3834 519.647C-20.7117 521.201 -18.5118 522.062 -16.2289 522.057C-14.9978 522.095 -13.7719 521.881 -12.627 521.427L15.6931 570.933C14.7158 571.653 13.9213 572.592 13.3737 573.674C12.8262 574.757 12.541 575.953 12.541 577.167C12.541 578.38 12.8262 579.576 13.3737 580.659C13.9213 581.742 14.7158 582.681 15.6931 583.4L15.513 583.535ZM14.3875 713.693L-15.0132 764.19C-15.6839 763.908 -16.4019 763.755 -17.1294 763.74C-18.7242 763.701 -20.278 764.247 -21.4974 765.276C-22.7168 766.304 -23.5174 767.743 -23.7479 769.321H-82.2791C-82.3494 766.98 -83.329 764.76 -85.0103 763.13C-86.6914 761.5 -88.9418 760.588 -91.2839 760.589C-92.8492 760.537 -94.4011 760.894 -95.7863 761.625L-124.106 712.118C-123.137 711.393 -122.351 710.452 -121.809 709.37C-121.267 708.288 -120.985 707.094 -120.985 705.884C-120.985 704.674 -121.267 703.481 -121.809 702.399C-122.351 701.317 -123.137 700.376 -124.106 699.651L-93.7152 647.489C-92.9071 647.903 -92.012 648.119 -91.1039 648.119C-89.4836 648.155 -87.9073 647.591 -86.6774 646.536C-85.4475 645.481 -84.6508 644.009 -84.4402 642.403H-25.9091C-25.866 643.879 -25.4603 645.323 -24.7275 646.605C-23.9948 647.888 -22.9576 648.97 -21.7074 649.757C-20.4572 650.544 -19.0325 651.012 -17.5589 651.119C-16.0853 651.225 -14.608 650.968 -13.2573 650.369L14.6575 699.066C13.4974 699.88 12.546 700.956 11.8805 702.208C11.2151 703.459 10.8545 704.849 10.8282 706.266C10.8019 707.683 11.1105 709.085 11.729 710.36C12.3475 711.635 13.2584 712.746 14.3875 713.603V713.693ZM130.549 649.109C132.224 649.16 133.854 648.56 135.096 647.435C136.339 646.311 137.097 644.75 137.213 643.078H198.671C198.771 644.719 199.484 646.263 200.668 647.404C201.851 648.546 203.42 649.202 205.064 649.244C206.096 649.273 207.118 649.041 208.036 648.569L236.851 698.931C235.737 699.77 234.827 700.848 234.187 702.087C233.548 703.326 233.197 704.693 233.159 706.087C233.104 707.587 233.426 709.077 234.094 710.421C234.763 711.765 235.757 712.921 236.986 713.783L207.54 764.37C206.753 763.992 205.892 763.792 205.019 763.785C203.325 763.747 201.683 764.37 200.439 765.52C199.196 766.671 198.449 768.26 198.356 769.951L138.474 769.726C138.428 767.735 137.616 765.838 136.207 764.43C134.799 763.022 132.901 762.21 130.91 762.165C129.66 762.127 128.421 762.406 127.308 762.975L98.4472 712.928C99.4174 712.231 100.214 711.321 100.777 710.268C101.339 709.214 101.651 708.045 101.689 706.852C101.718 705.557 101.419 704.277 100.821 703.128C100.223 701.979 99.3445 701 98.2672 700.281L128.343 648.659C129.045 648.941 129.793 649.094 130.549 649.109ZM127.263 637.002C126.336 637.553 125.561 638.327 125.009 639.252C124.456 640.178 124.144 641.227 124.099 642.304C124.054 643.381 124.279 644.452 124.753 645.42C125.227 646.388 125.934 647.223 126.812 647.849L96.7363 699.426C95.9362 699.098 95.0797 698.93 94.215 698.931C92.3519 698.886 90.5356 699.518 89.1032 700.71C87.6708 701.901 86.7195 703.572 86.4258 705.412L29.2003 705.187C29.0353 703.758 28.5306 702.39 27.7281 701.197C26.9257 700.004 25.849 699.02 24.5881 698.328C23.3272 697.636 21.9189 697.257 20.481 697.22C19.0431 697.184 17.6174 697.493 16.3234 698.121L-11.5464 649.469C-10.2515 648.634 -9.19287 647.481 -8.4715 646.119C-7.75018 644.758 -7.39038 643.235 -7.42651 641.695C-7.46265 640.155 -7.89355 638.65 -8.67798 637.324C-9.4624 635.998 -10.574 634.896 -11.9066 634.122L17.0438 584.615C17.9632 584.982 18.9367 585.195 19.9254 585.245C21.8272 585.284 23.6769 584.622 25.1218 583.386C26.5666 582.149 27.5056 580.424 27.7595 578.539L88.0016 578.764C88.1096 579.773 88.4529 580.742 89.004 581.594C89.5551 582.446 90.2985 583.157 91.1746 583.669C92.0505 584.181 93.0346 584.481 94.0475 584.544C95.0605 584.606 96.0739 584.43 97.0064 584.03L127.263 637.002ZM460.845 572.509C459.814 573.242 458.968 574.206 458.374 575.323C457.78 576.44 457.455 577.68 457.424 578.944C457.395 580.261 457.683 581.565 458.262 582.748C458.842 583.93 459.697 584.956 460.755 585.74L430.724 637.272C429.948 636.914 429.103 636.729 428.248 636.732C426.637 636.686 425.067 637.242 423.843 638.29C422.62 639.338 421.83 640.805 421.63 642.403H363.098C363.086 640.855 362.676 639.336 361.905 637.993C361.134 636.651 360.03 635.529 358.7 634.737C357.369 633.946 355.856 633.51 354.308 633.473C352.76 633.437 351.228 633.799 349.861 634.527L321.046 584.165C321.937 583.569 322.668 582.762 323.173 581.816C323.679 580.87 323.943 579.814 323.943 578.742C323.943 577.67 323.679 576.614 323.173 575.668C322.668 574.722 321.937 573.915 321.046 573.319L351.797 520.481C352.458 520.737 353.16 520.874 353.868 520.886C355.423 520.922 356.939 520.403 358.144 519.421C359.349 518.439 360.164 517.06 360.442 515.531H419.603C419.865 517.748 420.921 519.795 422.577 521.293C424.232 522.791 426.375 523.638 428.608 523.677C429.871 523.688 431.124 523.459 432.3 523.002L460.845 572.509ZM1019.14 651.494C1019.8 651.724 1020.48 651.861 1021.17 651.899C1022.73 651.923 1024.26 651.387 1025.46 650.388C1026.67 649.39 1027.47 647.995 1027.74 646.454H1089.29C1089.4 647.463 1089.74 648.433 1090.29 649.284C1090.84 650.136 1091.59 650.845 1092.46 651.354C1093.34 651.863 1094.33 652.158 1095.34 652.213C1096.35 652.269 1097.37 652.084 1098.3 651.674L1127.65 702.891C1126.47 703.703 1125.51 704.784 1124.83 706.043C1124.15 707.303 1123.79 708.706 1123.76 710.136C1123.73 711.565 1124.05 712.981 1124.68 714.265C1125.31 715.548 1126.23 716.664 1127.38 717.519L1099.06 766.935C1097.96 766.4 1096.77 766.094 1095.55 766.035C1093.43 765.998 1091.38 766.784 1089.84 768.229C1088.29 769.674 1087.37 771.663 1087.26 773.776L1027.56 773.551C1027.47 771.955 1026.79 770.447 1025.67 769.312C1024.54 768.177 1023.04 767.492 1021.44 767.385C1020.58 767.347 1019.71 767.501 1018.92 767.835L989.787 717.023C991.04 716.228 992.077 715.135 992.806 713.843C993.534 712.55 993.931 711.098 993.963 709.614C993.994 708.131 993.658 706.663 992.984 705.341C992.311 704.019 991.321 702.884 990.103 702.036L1019.14 651.494ZM905.953 590.151C907.471 590.908 909.152 591.281 910.848 591.236C912.544 591.192 914.203 590.732 915.679 589.896C917.155 589.06 918.404 587.875 919.314 586.444C920.225 585.013 920.769 583.381 920.901 581.69H976.415C976.572 583.697 977.47 585.573 978.935 586.955C980.4 588.336 982.326 589.122 984.34 589.161C985.589 589.198 986.828 588.919 987.942 588.351L1017.48 639.883C1016.62 640.48 1015.92 641.275 1015.44 642.2C1014.96 643.124 1014.71 644.151 1014.71 645.193C1014.71 646.236 1014.96 647.263 1015.44 648.188C1015.92 649.112 1016.62 649.907 1017.48 650.504L988.122 700.911C986.95 700.36 985.678 700.053 984.385 700.011C982.018 699.959 979.722 700.817 977.971 702.408C976.22 704 975.147 706.203 974.974 708.562H917.074C916.95 706.958 916.23 705.458 915.054 704.359C913.879 703.259 912.335 702.639 910.725 702.621C909.644 702.581 908.572 702.829 907.619 703.342L877.993 651.539C879.026 650.788 879.865 649.803 880.445 648.665C881.024 647.527 881.326 646.268 881.326 644.991C881.326 643.714 881.024 642.455 880.445 641.317C879.865 640.179 879.026 639.194 877.993 638.443L905.953 590.151ZM798.616 651.539C800.313 651.601 801.967 650.994 803.221 649.85C804.476 648.705 805.231 647.114 805.324 645.419H865.071C865.173 646.706 865.584 647.951 866.268 649.046C866.953 650.142 867.891 651.057 869.003 651.715C870.115 652.372 871.37 652.753 872.66 652.824C873.95 652.895 875.239 652.655 876.417 652.125L906.133 704.062C905.464 704.684 904.937 705.442 904.586 706.285C904.235 707.128 904.069 708.036 904.099 708.949C904.128 709.862 904.354 710.757 904.759 711.576C905.164 712.394 905.74 713.116 906.448 713.693L876.372 765.315C875.282 764.76 874.083 764.452 872.86 764.415C870.725 764.378 868.659 765.175 867.103 766.638C865.547 768.101 864.624 770.113 864.531 772.246H805.504C805.301 770.729 804.564 769.334 803.426 768.312C802.287 767.289 800.821 766.705 799.291 766.665C798.243 766.668 797.21 766.915 796.274 767.385L766.423 715.268C767.487 714.532 768.36 713.553 768.97 712.413C769.58 711.272 769.909 710.003 769.931 708.71C769.953 707.417 769.667 706.137 769.096 704.977C768.526 703.816 767.686 702.808 766.648 702.036L796.409 650.909C797.148 651.293 797.963 651.508 798.796 651.539H798.616ZM795.149 639.523C794.287 640.1 793.575 640.873 793.069 641.778C792.564 642.683 792.28 643.695 792.24 644.73C792.201 645.766 792.407 646.797 792.842 647.738C793.277 648.678 793.928 649.503 794.743 650.144L764.983 701.271C764.021 700.827 762.98 700.582 761.921 700.551C759.866 700.519 757.873 701.259 756.339 702.627C754.804 703.994 753.84 705.887 753.637 707.932H695.961C695.827 705.905 694.94 704.001 693.474 702.594C692.008 701.187 690.068 700.378 688.037 700.326C686.691 700.298 685.36 700.608 684.164 701.226L656.07 652.215C657.383 651.41 658.467 650.282 659.22 648.938C659.972 647.595 660.367 646.081 660.367 644.541C660.367 643.001 659.972 641.487 659.22 640.144C658.467 638.8 657.383 637.672 656.07 636.867L685.695 586.1C686.51 586.442 687.379 586.64 688.262 586.685C689.853 586.702 691.396 586.141 692.605 585.106C693.814 584.072 694.606 582.634 694.835 581.06H752.061C752.292 583.616 753.458 585.998 755.335 587.749C757.212 589.501 759.669 590.5 762.236 590.556C763.793 590.571 765.332 590.233 766.739 589.566L795.149 639.523ZM1356.28 460.893C1357.94 460.934 1359.55 460.343 1360.79 459.24C1362.03 458.136 1362.8 456.603 1362.95 454.952L1420.49 455.177C1420.66 457.79 1421.8 460.243 1423.69 462.052C1425.59 463.861 1428.09 464.893 1430.71 464.944C1432.27 464.976 1433.81 464.636 1435.21 463.954L1463.67 513.46C1462.79 514.038 1462.07 514.819 1461.57 515.737C1461.07 516.654 1460.8 517.68 1460.78 518.726C1460.76 519.768 1460.99 520.801 1461.44 521.739C1461.9 522.678 1462.56 523.496 1463.4 524.127L1434.94 572.959C1433.55 572.229 1432.01 571.815 1430.44 571.743C1427.69 571.694 1425.03 572.721 1423.03 574.604C1421.02 576.488 1419.84 579.079 1419.72 581.825H1362.59C1362.56 580.145 1361.89 578.539 1360.7 577.347C1359.52 576.155 1357.92 575.469 1356.24 575.434C1355.23 575.408 1354.22 575.624 1353.31 576.064L1325.35 527.232C1326.93 526.32 1328.24 525.007 1329.16 523.427C1330.07 521.847 1330.55 520.055 1330.55 518.231C1330.55 516.407 1330.07 514.615 1329.16 513.035C1328.24 511.455 1326.93 510.143 1325.35 509.23L1353.9 460.173C1354.64 460.567 1355.45 460.812 1356.28 460.893ZM1243 395.049C1243.78 395.366 1244.6 395.549 1245.43 395.589C1247.02 395.607 1248.56 395.053 1249.76 394.027C1250.97 393.002 1251.77 391.574 1252.01 390.008H1312.29C1312.42 391.88 1313.24 393.636 1314.6 394.928C1315.96 396.221 1317.76 396.955 1319.63 396.984C1320.71 397.021 1321.79 396.821 1322.78 396.399L1352.64 448.561C1351.81 449.148 1351.13 449.919 1350.65 450.814C1350.18 451.708 1349.91 452.701 1349.89 453.715C1349.86 454.728 1350.07 455.733 1350.5 456.651C1350.93 457.569 1351.57 458.374 1352.37 459.003L1323.73 508.15C1322.55 507.644 1321.28 507.369 1319.99 507.34C1317.35 507.355 1314.82 508.365 1312.89 510.166C1310.96 511.968 1309.79 514.43 1309.59 517.061H1251.69C1251.54 515.456 1250.81 513.962 1249.63 512.859C1248.45 511.757 1246.91 511.123 1245.3 511.075C1244.34 511.061 1243.38 511.26 1242.51 511.66L1214.19 462.153C1215.62 461.2 1216.79 459.908 1217.6 458.393C1218.41 456.878 1218.84 455.186 1218.84 453.467C1218.84 451.749 1218.41 450.057 1217.6 448.542C1216.79 447.026 1215.62 445.735 1214.19 444.781L1243 395.049ZM1243.59 138.199C1244.33 138.515 1245.12 138.698 1245.93 138.739C1247.58 138.769 1249.19 138.174 1250.42 137.073C1251.66 135.972 1252.43 134.445 1252.59 132.798L1314.1 133.068C1314.3 134.621 1315.05 136.05 1316.21 137.098C1317.38 138.145 1318.88 138.744 1320.44 138.784C1321.34 138.78 1322.22 138.612 1323.06 138.289L1353.4 191.216C1352.53 191.816 1351.81 192.619 1351.32 193.556C1350.83 194.493 1350.57 195.536 1350.57 196.594C1350.57 197.653 1350.83 198.696 1351.32 199.633C1351.81 200.57 1352.53 201.373 1353.4 201.973L1323.1 253.865C1322.17 253.471 1321.18 253.257 1320.17 253.235C1318.28 253.192 1316.43 253.869 1315.01 255.129C1313.59 256.39 1312.7 258.141 1312.52 260.031L1252.01 259.806C1251.71 258.35 1250.93 257.037 1249.8 256.081C1248.66 255.125 1247.23 254.582 1245.75 254.54C1245.03 254.546 1244.31 254.668 1243.63 254.9L1213.69 202.603C1214.69 201.847 1215.5 200.871 1216.06 199.75C1216.61 198.63 1216.9 197.396 1216.9 196.144C1216.9 194.893 1216.61 193.659 1216.06 192.538C1215.5 191.418 1214.69 190.441 1213.69 189.686L1243.59 138.199ZM1097.71 251.569C1095.64 251.528 1093.63 252.278 1092.09 253.665C1090.55 255.053 1089.6 256.976 1089.43 259.04H1029.95C1029.82 258.044 1029.46 257.091 1028.9 256.255C1028.34 255.419 1027.6 254.724 1026.73 254.223C1025.86 253.722 1024.88 253.429 1023.88 253.367C1022.88 253.305 1021.87 253.475 1020.94 253.865L990.553 200.802C991.435 200.199 992.157 199.39 992.655 198.445C993.154 197.5 993.415 196.448 993.415 195.379C993.415 194.311 993.154 193.258 992.655 192.313C992.157 191.368 991.435 190.559 990.553 189.956L1020.4 138.694C1021.58 139.247 1022.87 139.51 1024.17 139.462C1025.47 139.413 1026.74 139.055 1027.87 138.416C1029.01 137.777 1029.97 136.877 1030.68 135.79C1031.4 134.703 1031.84 133.461 1031.97 132.168L1091.41 132.393C1091.57 134.016 1092.34 135.519 1093.56 136.609C1094.77 137.699 1096.35 138.297 1097.98 138.289C1098.97 138.289 1099.96 138.074 1100.86 137.659L1129.27 187.166C1127.84 188.089 1126.65 189.35 1125.82 190.837C1124.98 192.325 1124.52 193.994 1124.48 195.699C1124.44 197.404 1124.82 199.093 1125.59 200.618C1126.35 202.143 1127.48 203.458 1128.87 204.448L1101.09 252.109C1100 251.726 1098.86 251.543 1097.71 251.569ZM1102.21 266.421C1103.27 265.698 1104.14 264.733 1104.75 263.606C1105.36 262.479 1105.7 261.222 1105.72 259.941C1105.75 258.658 1105.47 257.388 1104.91 256.232C1104.36 255.075 1103.54 254.064 1102.53 253.28L1130.35 205.573C1131.91 206.33 1133.64 206.685 1135.38 206.608C1137.11 206.53 1138.8 206.021 1140.29 205.128C1141.77 204.234 1143.02 202.984 1143.9 201.49C1144.78 199.996 1145.28 198.306 1145.35 196.572L1200.72 196.797C1200.88 198.805 1201.77 200.686 1203.22 202.081C1204.67 203.476 1206.59 204.286 1208.6 204.358C1209.82 204.361 1211.02 204.1 1212.12 203.593L1242.06 255.575C1241.2 256.161 1240.49 256.943 1240 257.856C1239.5 258.77 1239.23 259.789 1239.21 260.828C1239.19 261.867 1239.41 262.896 1239.87 263.83C1240.33 264.764 1241 265.575 1241.83 266.196L1213.33 315.028C1212.02 314.421 1210.59 314.084 1209.14 314.038C1206.46 313.996 1203.86 314.978 1201.88 316.784C1199.9 318.591 1198.68 321.085 1198.47 323.759L1140.93 323.534C1140.81 321.93 1140.09 320.43 1138.91 319.331C1137.74 318.231 1136.19 317.611 1134.58 317.594C1133.66 317.574 1132.74 317.743 1131.88 318.089L1102.21 266.421ZM1131.93 330.375C1132.64 330.667 1133.41 330.82 1134.18 330.825C1135.74 330.859 1137.26 330.333 1138.47 329.342C1139.67 328.352 1140.48 326.962 1140.75 325.425L1198.38 325.65C1198.69 328.154 1199.88 330.465 1201.75 332.159C1203.62 333.854 1206.04 334.818 1208.56 334.876C1210.11 334.918 1211.65 334.61 1213.06 333.976L1241.56 383.753C1240.81 384.348 1240.2 385.1 1239.78 385.955C1239.35 386.81 1239.11 387.748 1239.09 388.703C1239.07 389.7 1239.29 390.686 1239.71 391.59C1240.13 392.493 1240.75 393.291 1241.52 393.924L1212.66 443.431C1211.13 442.71 1209.45 442.372 1207.76 442.446C1206.08 442.519 1204.43 443.002 1202.97 443.853C1201.52 444.704 1200.29 445.897 1199.39 447.329C1198.5 448.761 1197.97 450.389 1197.84 452.072H1144.4C1144.24 450.43 1143.7 448.849 1142.81 447.46C1141.92 446.07 1140.71 444.912 1139.29 444.081C1137.86 443.25 1136.26 442.77 1134.61 442.68C1132.96 442.591 1131.32 442.894 1129.81 443.566L1103.16 397.074C1104.54 396.108 1105.67 394.822 1106.45 393.325C1107.23 391.829 1107.64 390.166 1107.64 388.478C1107.64 386.791 1107.23 385.128 1106.45 383.631C1105.67 382.135 1104.54 380.849 1103.16 379.882L1131.93 330.375ZM1022.7 396.669C1024.78 396.722 1026.79 395.976 1028.33 394.586C1029.87 393.196 1030.82 391.267 1030.98 389.198H1086.59C1086.76 391.803 1087.9 394.25 1089.78 396.058C1091.66 397.866 1094.15 398.903 1096.76 398.965C1098.32 398.971 1099.87 398.617 1101.27 397.93L1127.88 444.421C1126.48 445.386 1125.34 446.674 1124.56 448.175C1123.77 449.676 1123.36 451.345 1123.36 453.04C1123.36 454.734 1123.77 456.403 1124.56 457.904C1125.34 459.405 1126.48 460.693 1127.88 461.658L1100.1 509.5C1099.07 509.015 1097.95 508.754 1096.81 508.735C1094.73 508.683 1092.7 509.435 1091.16 510.835C1089.62 512.234 1088.67 514.174 1088.53 516.251H1031.97C1031.63 513.791 1030.43 511.534 1028.57 509.885C1026.71 508.235 1024.33 507.301 1021.84 507.25C1020.59 507.224 1019.33 507.438 1018.15 507.88L989.922 458.373C990.912 457.757 991.731 456.902 992.305 455.888C992.879 454.874 993.19 453.732 993.209 452.567C993.248 451.377 992.973 450.197 992.412 449.147C991.851 448.096 991.023 447.212 990.013 446.581L1019.55 395.949C1020.54 396.4 1021.61 396.645 1022.7 396.669ZM878.623 382.582L907.573 333.076C908.894 333.719 910.337 334.072 911.806 334.111C914.441 334.158 916.997 333.211 918.966 331.46C920.934 329.709 922.172 327.281 922.432 324.659L978.531 324.884C978.675 326.908 979.566 328.806 981.03 330.212C982.494 331.617 984.427 332.429 986.456 332.491C987.581 332.488 988.696 332.274 989.742 331.86L1018.47 381.997C1017.39 382.717 1016.51 383.687 1015.89 384.823C1015.27 385.96 1014.93 387.229 1014.91 388.523C1014.88 389.807 1015.15 391.081 1015.71 392.239C1016.26 393.397 1017.08 394.407 1018.11 395.184L988.527 445.996C987.882 445.802 987.217 445.682 986.546 445.636C984.83 445.601 983.163 446.202 981.866 447.325C980.568 448.447 979.733 450.01 979.522 451.712H921.801C921.698 449.052 920.583 446.532 918.684 444.666C916.784 442.801 914.243 441.731 911.581 441.676C910.021 441.677 908.482 442.031 907.078 442.711L878.398 392.619C879.169 392.084 879.806 391.378 880.258 390.556C880.71 389.734 880.966 388.819 881.006 387.881C881.045 386.944 880.866 386.01 880.484 385.153C880.102 384.297 879.527 383.54 878.803 382.943L878.623 382.582ZM797.58 394.014C798.374 394.372 799.231 394.571 800.101 394.599C801.852 394.622 803.548 393.995 804.862 392.839C806.176 391.683 807.015 390.081 807.215 388.343L868.943 388.613C869.219 389.887 869.897 391.039 870.878 391.898C871.859 392.757 873.091 393.278 874.391 393.384C875.047 393.411 875.703 393.32 876.327 393.114L905.097 443.296C903.704 444.256 902.565 445.54 901.779 447.037C900.992 448.535 900.581 450.201 900.581 451.892C900.581 453.583 900.992 455.249 901.779 456.747C902.565 458.244 903.704 459.528 905.097 460.488L877.362 508.87C876.387 508.421 875.33 508.176 874.256 508.15C872.219 508.116 870.244 508.846 868.719 510.195C867.194 511.545 866.23 513.416 866.017 515.441L806.27 515.216C806.066 513.663 805.315 512.234 804.151 511.186C802.987 510.138 801.487 509.54 799.921 509.5C799.077 509.474 798.236 509.611 797.445 509.905L768.359 459.048C769.533 458.219 770.497 457.129 771.177 455.864C771.857 454.598 772.233 453.192 772.276 451.757C772.299 450.235 771.95 448.73 771.26 447.374C770.569 446.017 769.558 444.849 768.314 443.971L797.58 394.014ZM685.785 458.103C686.911 458.748 688.18 459.104 689.477 459.138C691.445 459.172 693.358 458.494 694.864 457.229C696.37 455.963 697.368 454.195 697.672 452.252H753.682C753.863 454.512 754.891 456.621 756.561 458.156C758.23 459.692 760.418 460.54 762.686 460.533C763.99 460.581 765.286 460.319 766.468 459.768L795.599 510.625C794.818 511.217 794.181 511.978 793.737 512.851C793.292 513.724 793.051 514.686 793.033 515.666C793.009 516.719 793.239 517.763 793.701 518.71C794.163 519.658 794.844 520.481 795.689 521.111L767.009 570.393C765.474 569.631 763.774 569.261 762.062 569.317C760.349 569.373 758.677 569.853 757.195 570.714C755.714 571.575 754.469 572.79 753.573 574.25C752.677 575.71 752.157 577.369 752.061 579.079H694.925C694.732 577.519 693.985 576.079 692.82 575.022C691.655 573.965 690.15 573.361 688.577 573.319C687.582 573.318 686.599 573.533 685.695 573.949L656.745 523.047C658.024 522.254 659.083 521.153 659.826 519.845C660.57 518.537 660.973 517.063 661 515.559C661.027 514.055 660.676 512.568 659.98 511.235C659.284 509.901 658.265 508.763 657.015 507.925L685.785 458.103ZM577.728 397.299C580.416 397.364 583.026 396.389 585.014 394.578C587.001 392.767 588.214 390.26 588.398 387.578H645.039C645.161 389.191 645.878 390.701 647.051 391.815C648.224 392.93 649.769 393.569 651.387 393.609C652.397 393.613 653.395 393.398 654.314 392.979L684.029 444.826C682.432 446.345 681.495 448.429 681.418 450.632C681.401 451.815 681.642 452.987 682.124 454.067C682.606 455.148 683.318 456.11 684.21 456.888L655.124 506.799C654 506.313 652.792 506.053 651.567 506.034C649.223 505.935 646.932 506.754 645.183 508.318C643.434 509.881 642.364 512.066 642.202 514.406H585.562C585.461 512.354 584.588 510.417 583.118 508.982C581.649 507.546 579.692 506.719 577.638 506.664C576.253 506.639 574.885 506.98 573.676 507.655L544.995 457.518C546.084 456.783 546.983 455.8 547.617 454.65C548.251 453.499 548.603 452.215 548.642 450.902C548.668 449.549 548.356 448.211 547.735 447.009C547.114 445.807 546.204 444.778 545.085 444.016L573.045 396.039C574.504 396.815 576.121 397.246 577.773 397.299H577.728ZM574.666 137.119C575.721 137.633 576.87 137.925 578.043 137.974C580.137 138.013 582.166 137.245 583.708 135.829C585.251 134.412 586.189 132.457 586.327 130.368H643.463C643.666 132.612 644.703 134.698 646.37 136.215C648.038 137.732 650.213 138.568 652.468 138.559C653.762 138.555 655.044 138.311 656.25 137.839L685.38 188.696C684.587 189.29 683.94 190.056 683.488 190.938C683.035 191.819 682.789 192.791 682.769 193.781C682.755 194.816 682.984 195.84 683.437 196.77C683.891 197.7 684.556 198.511 685.38 199.137L655.484 250.489C654.398 249.877 653.174 249.552 651.927 249.544C649.815 249.495 647.768 250.271 646.22 251.709C644.673 253.146 643.748 255.131 643.643 257.24L584.436 257.015C584.283 255.426 583.552 253.949 582.382 252.863C581.212 251.776 579.684 251.156 578.088 251.119C577.162 251.078 576.238 251.247 575.386 251.614L547.156 202.108C548.507 201.104 549.596 199.791 550.331 198.278C551.067 196.766 551.428 195.098 551.384 193.417C551.34 191.736 550.892 190.09 550.078 188.618C549.264 187.146 548.107 185.892 546.706 184.96L574.666 137.119ZM429.824 250.354C428.056 250.298 426.332 250.912 424.996 252.072C423.661 253.231 422.812 254.852 422.62 256.61L363.323 256.385C363.2 254.35 362.318 252.435 360.851 251.018C359.384 249.602 357.438 248.787 355.399 248.734C354.121 248.702 352.855 248.98 351.707 249.544L323.027 199.497C324.132 198.751 325.037 197.746 325.663 196.569C326.288 195.392 326.616 194.079 326.616 192.746C326.616 191.413 326.288 190.101 325.663 188.924C325.037 187.747 324.132 186.741 323.027 185.995L352.113 136.039C353.047 136.484 354.053 136.759 355.084 136.849C357.1 136.886 359.057 136.175 360.579 134.853C362.101 133.531 363.079 131.693 363.323 129.693H420.999C421.166 131.987 422.18 134.137 423.844 135.726C425.508 137.314 427.704 138.228 430.004 138.289C431.304 138.296 432.591 138.036 433.786 137.524L461.476 185.815C460.138 186.581 459.02 187.677 458.227 188.998C457.434 190.32 456.995 191.823 456.949 193.363C456.904 194.903 457.255 196.429 457.969 197.795C458.683 199.16 459.735 200.32 461.026 201.162L432.075 250.669C431.348 250.44 430.587 250.333 429.824 250.354ZM433.606 263.136C434.529 262.511 435.288 261.674 435.821 260.695C436.353 259.716 436.644 258.624 436.668 257.51C436.682 256.399 436.437 255.3 435.952 254.3C435.468 253.301 434.757 252.427 433.876 251.749L462.781 202.243C463.882 202.703 465.056 202.963 466.248 203.008C468.636 203.058 470.951 202.182 472.706 200.562C474.461 198.942 475.519 196.705 475.658 194.322L530.408 194.547C530.509 197.215 531.621 199.746 533.519 201.626C535.416 203.506 537.957 204.595 540.628 204.673C542.3 204.68 543.95 204.295 545.446 203.548L573.721 253.055C572.991 253.641 572.4 254.38 571.987 255.22C571.575 256.06 571.352 256.98 571.334 257.915C571.307 258.963 571.535 260.002 571.997 260.943C572.46 261.883 573.144 262.698 573.991 263.316L542.969 316.513C542.162 316.141 541.291 315.927 540.403 315.883C538.824 315.851 537.286 316.388 536.071 317.396C534.855 318.405 534.044 319.817 533.784 321.374H475.568C475.323 319.162 474.268 317.12 472.605 315.64C470.942 314.161 468.79 313.349 466.564 313.363C465.198 313.329 463.844 313.606 462.601 314.173L433.606 263.136ZM434.056 379.072L462.331 330.375C463.553 330.977 464.887 331.314 466.248 331.365C467.435 331.414 468.619 331.227 469.733 330.816C470.847 330.404 471.868 329.777 472.739 328.97C473.609 328.163 474.311 327.191 474.805 326.112C475.298 325.032 475.573 323.865 475.613 322.679H533.739C533.933 324.24 534.68 325.68 535.845 326.737C537.009 327.794 538.515 328.398 540.088 328.44C541.105 328.469 542.113 328.237 543.014 327.765L571.785 378.037C570.496 378.987 569.44 380.219 568.699 381.638C567.958 383.058 567.55 384.627 567.507 386.228C567.47 387.868 567.822 389.494 568.534 390.973C569.246 392.451 570.298 393.74 571.604 394.734L543.6 442.801C542.685 442.426 541.707 442.227 540.718 442.216C538.664 442.161 536.666 442.888 535.128 444.25C533.59 445.612 532.627 447.507 532.434 449.552H472.732C472.491 448.027 471.724 446.635 470.565 445.616C469.406 444.597 467.927 444.015 466.383 443.971C465.47 443.963 464.565 444.147 463.727 444.511L433.966 392.529C435.089 391.811 436.017 390.828 436.669 389.666C437.321 388.504 437.676 387.2 437.703 385.868C437.7 384.523 437.366 383.199 436.73 382.014C436.094 380.829 435.175 379.818 434.056 379.072ZM354.814 392.574C356.418 392.621 357.983 392.072 359.205 391.033C360.428 389.994 361.221 388.538 361.432 386.948H421.449C421.706 388.871 422.641 390.639 424.085 391.934C425.529 393.229 427.389 393.967 429.329 394.014C430.31 394.015 431.285 393.847 432.21 393.519L462.061 445.636C461.316 446.248 460.716 447.018 460.304 447.889C459.893 448.761 459.679 449.713 459.679 450.677C459.679 451.641 459.893 452.593 460.304 453.464C460.716 454.336 461.316 455.105 462.061 455.717L432.75 505.899C431.405 505.248 429.919 504.942 428.426 505.009C426.932 505.075 425.479 505.512 424.197 506.28C422.915 507.048 421.844 508.123 421.082 509.408C420.319 510.693 419.888 512.148 419.828 513.64H360.757C360.634 512.032 359.915 510.527 358.741 509.42C357.567 508.313 356.022 507.684 354.409 507.655C353.516 507.617 352.626 507.77 351.797 508.105L322.577 457.068C323.595 456.325 324.428 455.358 325.014 454.242C325.599 453.126 325.921 451.891 325.954 450.632C325.991 449.271 325.685 447.922 325.063 446.711C324.441 445.5 323.524 444.464 322.397 443.701L352.563 391.944C353.276 392.235 354.043 392.373 354.814 392.349V392.574ZM241.353 327.405C242.29 327.87 243.326 328.1 244.372 328.075C245.418 328.049 246.442 327.77 247.355 327.26C248.269 326.75 249.044 326.026 249.614 325.149C250.185 324.273 250.533 323.27 250.628 322.229H309.97C310.178 324.188 311.092 326.004 312.542 327.338C313.992 328.672 315.879 329.431 317.849 329.475C319.058 329.493 320.257 329.247 321.361 328.755L351.032 380.557C350.23 381.166 349.579 381.952 349.131 382.854C348.683 383.755 348.45 384.749 348.45 385.755C348.45 386.762 348.683 387.755 349.131 388.657C349.579 389.559 350.23 390.345 351.032 390.954L320.731 442.891C319.864 442.512 318.93 442.313 317.984 442.306C316.021 442.26 314.108 442.928 312.601 444.187C311.094 445.445 310.095 447.207 309.79 449.147H251.889C251.718 446.878 250.695 444.759 249.024 443.214C247.354 441.669 245.16 440.814 242.884 440.82C241.701 440.786 240.523 440.985 239.417 441.406L211.007 390.954C211.854 390.327 212.536 389.506 212.997 388.559C213.457 387.612 213.681 386.568 213.65 385.516C213.619 384.463 213.334 383.434 212.819 382.516C212.304 381.598 211.574 380.817 210.692 380.242L241.353 327.405ZM100.338 441.225L127.938 393.834C129.226 394.531 130.661 394.917 132.125 394.959C133.341 395.014 134.556 394.822 135.696 394.394C136.836 393.966 137.877 393.312 138.756 392.47C139.636 391.629 140.335 390.618 140.813 389.499C141.291 388.379 141.536 387.175 141.535 385.958H200.337C200.448 387.591 201.165 389.123 202.348 390.255C203.53 391.388 205.093 392.038 206.73 392.079C207.543 392.079 208.349 391.942 209.116 391.674L238.022 441.991C236.728 442.788 235.658 443.899 234.91 445.221C234.162 446.543 233.761 448.033 233.744 449.552C233.724 451.117 234.097 452.662 234.828 454.045C235.56 455.429 236.627 456.608 237.932 457.473L208.756 507.61C207.996 507.297 207.19 507.115 206.37 507.07C204.722 507.038 203.122 507.627 201.888 508.719C200.654 509.811 199.875 511.327 199.706 512.965H138.474C138.166 511.403 137.332 509.993 136.112 508.97C134.891 507.946 133.358 507.371 131.765 507.34C131.002 507.308 130.239 507.415 129.514 507.655L100.113 456.393C101.406 455.583 102.472 454.458 103.211 453.124C103.951 451.789 104.338 450.289 104.338 448.764C104.338 447.239 103.951 445.739 103.211 444.404C102.472 443.07 101.406 441.945 100.113 441.135L100.338 441.225ZM20.4206 456.393C22.2266 456.431 23.9769 455.767 25.3036 454.542C26.6303 453.316 27.4299 451.624 27.5344 449.822H86.0656C86.3208 452.025 87.381 454.057 89.0429 455.527C90.7048 456.998 92.8513 457.802 95.0704 457.788C96.2874 457.832 97.4996 457.617 98.6273 457.158L127.758 508.06C126.814 508.692 126.036 509.54 125.487 510.535C124.939 511.529 124.637 512.64 124.606 513.775C124.587 514.892 124.834 515.997 125.327 516.999C125.82 518.001 126.546 518.871 127.443 519.536L97.1865 571.518C96.4456 571.197 95.6522 571.014 94.8453 570.978C93.2378 570.955 91.6782 571.525 90.4651 572.58C89.2522 573.634 88.4712 575.1 88.2718 576.694H31.1814H28.0297C27.8846 574.787 27.0341 573.002 25.644 571.687C24.254 570.372 22.4239 569.622 20.5107 569.583C19.3779 569.555 18.2537 569.786 17.2239 570.258L-11.0512 520.751C-9.70746 519.954 -8.5943 518.822 -7.82111 517.464C-7.04797 516.107 -6.64148 514.572 -6.64148 513.01C-6.64148 511.449 -7.04797 509.914 -7.82111 508.556C-8.5943 507.199 -9.70746 506.066 -11.0512 505.269L17.8543 455.762C18.6649 456.125 19.5342 456.339 20.4206 456.393ZM-123.656 443.206L-94.3005 392.844C-92.9356 393.632 -91.3878 394.047 -89.8117 394.05C-88.2356 394.052 -86.6865 393.641 -85.3192 392.857C-83.9518 392.074 -82.8141 390.945 -82.02 389.584C-81.2258 388.224 -80.8029 386.678 -80.7933 385.103L-26.4944 385.328C-26.4603 388.039 -25.3768 390.632 -23.4711 392.562C-21.5655 394.493 -18.9859 395.61 -16.2739 395.679C-14.5818 395.692 -12.9122 395.29 -11.4113 394.509L16.6836 443.566C15.741 444.185 14.9647 445.025 14.4231 446.014C13.8814 447.003 13.5908 448.109 13.5769 449.237C13.5557 450.305 13.7802 451.363 14.2329 452.331C14.6857 453.298 15.3547 454.149 16.1884 454.817L-12.7621 504.324C-13.7894 503.894 -14.8899 503.664 -16.0038 503.649C-18.3333 503.561 -20.6062 504.38 -22.3444 505.932C-24.0826 507.485 -25.1506 509.651 -25.3238 511.975H-81.6938C-81.6938 509.588 -82.6425 507.298 -84.3312 505.61C-86.02 503.922 -88.3104 502.974 -90.6986 502.974C-92.1632 502.96 -93.6113 503.284 -94.9308 503.919L-123.881 453.332C-123.107 452.734 -122.476 451.971 -122.032 451.1C-121.588 450.228 -121.343 449.269 -121.315 448.291C-121.304 447.308 -121.517 446.335 -121.939 445.446C-122.36 444.557 -122.978 443.775 -123.746 443.161L-123.656 443.206ZM-206.095 456.708C-205.012 457.173 -203.852 457.432 -202.673 457.473C-200.322 457.572 -198.025 456.746 -196.274 455.173C-194.524 453.6 -193.459 451.405 -193.308 449.057H-134.237C-134.122 450.061 -133.775 451.025 -133.221 451.872C-132.667 452.718 -131.923 453.423 -131.048 453.93C-130.173 454.438 -129.191 454.733 -128.181 454.794C-127.171 454.854 -126.161 454.677 -125.232 454.277L-96.2366 504.954C-97.3226 505.779 -98.2072 506.839 -98.8234 508.056C-99.4395 509.272 -99.7712 510.612 -99.7935 511.975C-99.8508 513.487 -99.526 514.988 -98.8492 516.341C-98.1725 517.694 -97.1655 518.855 -95.9214 519.716L-124.962 569.538C-125.862 569.161 -126.823 568.948 -127.798 568.908C-129.731 568.863 -131.609 569.547 -133.06 570.823C-134.511 572.098 -135.43 573.873 -135.633 575.794H-195.965C-196.278 574.372 -197.062 573.096 -198.189 572.174C-199.316 571.251 -200.721 570.735 -202.178 570.708C-203.022 570.677 -203.864 570.815 -204.654 571.113L-234.73 518.771C-233.819 518.066 -233.076 517.167 -232.554 516.14C-232.033 515.112 -231.746 513.982 -231.714 512.83C-231.669 511.559 -231.942 510.296 -232.508 509.157C-233.074 508.017 -233.915 507.037 -234.956 506.304L-206.095 456.708ZM-316.224 389.963C-315.448 390.266 -314.625 390.434 -313.793 390.459C-312.196 390.495 -310.642 389.94 -309.429 388.902C-308.216 387.864 -307.429 386.415 -307.219 384.833H-248.688C-248.499 387.106 -247.474 389.23 -245.811 390.792C-244.148 392.355 -241.965 393.246 -239.683 393.294C-238.384 393.296 -237.097 393.036 -235.901 392.529L-207.716 440.685C-208.961 441.505 -209.982 442.621 -210.689 443.933C-211.396 445.245 -211.766 446.711 -211.766 448.201C-211.766 449.691 -211.396 451.158 -210.689 452.47C-209.982 453.782 -208.961 454.898 -207.716 455.717L-226.941 488.932L-236.576 505.449C-237.425 505.112 -238.322 504.915 -239.233 504.864C-241.146 504.838 -243.001 505.516 -244.446 506.769C-245.891 508.022 -246.824 509.763 -247.067 511.66H-307.579C-307.702 510.047 -308.419 508.537 -309.592 507.423C-310.765 506.309 -312.31 505.669 -313.928 505.629C-314.858 505.595 -315.783 505.78 -316.629 506.169L-346.3 454.817C-345.376 454.121 -344.62 453.225 -344.09 452.196C-343.56 451.168 -343.269 450.033 -343.238 448.877C-343.22 447.616 -343.505 446.369 -344.069 445.241C-344.633 444.114 -345.46 443.138 -346.48 442.396L-316.224 389.963ZM-458.275 260.886C-457.456 260.283 -456.79 259.497 -456.331 258.59C-455.872 257.683 -455.633 256.681 -455.633 255.665C-455.633 254.649 -455.872 253.647 -456.331 252.74C-456.79 251.833 -457.456 251.046 -458.275 250.444L-429.234 200.082C-427.998 200.689 -426.648 201.026 -425.272 201.072C-424.06 201.121 -422.85 200.924 -421.715 200.493C-420.581 200.063 -419.545 199.408 -418.671 198.567C-417.796 197.726 -417.1 196.717 -416.625 195.601C-416.15 194.485 -415.906 193.284 -415.907 192.071H-357.736C-357.513 193.72 -356.711 195.235 -355.474 196.348C-354.238 197.46 -352.646 198.098 -350.982 198.147C-350.03 198.147 -349.085 197.98 -348.191 197.652L-317.935 250.264C-318.727 250.849 -319.374 251.607 -319.826 252.481C-320.279 253.355 -320.525 254.321 -320.546 255.305C-320.561 256.378 -320.315 257.438 -319.829 258.395C-319.342 259.351 -318.631 260.175 -317.755 260.796L-346.39 310.303C-347.914 309.565 -349.595 309.21 -351.288 309.269C-352.98 309.328 -354.633 309.8 -356.101 310.643C-357.57 311.485 -358.811 312.674 -359.715 314.105C-360.62 315.536 -361.162 317.166 -361.293 318.854H-416.132C-416.214 316.521 -417.199 314.312 -418.878 312.692C-420.558 311.071 -422.802 310.166 -425.137 310.167C-426.575 310.133 -427.999 310.458 -429.279 311.113L-458.275 260.886ZM-428.964 327.945C-427.864 328.406 -426.689 328.665 -425.497 328.71C-423.258 328.745 -421.083 327.965 -419.377 326.516C-417.671 325.067 -416.55 323.048 -416.222 320.834H-361.293C-361.062 323.395 -359.898 325.781 -358.022 327.54C-356.146 329.3 -353.689 330.308 -351.117 330.375C-349.559 330.36 -348.023 330.007 -346.615 329.34L-318.025 378.847C-318.735 379.451 -319.305 380.203 -319.694 381.051C-320.083 381.898 -320.281 382.82 -320.276 383.753C-320.28 384.735 -320.064 385.706 -319.643 386.594C-319.223 387.482 -318.608 388.264 -317.845 388.883L-348.236 441.496C-349.065 441.153 -349.951 440.969 -350.847 440.955C-352.704 440.909 -354.515 441.534 -355.946 442.717C-357.378 443.9 -358.333 445.56 -358.636 447.391H-417.573C-417.72 446.2 -418.145 445.06 -418.815 444.063C-419.484 443.066 -420.379 442.241 -421.426 441.654C-422.474 441.066 -423.645 440.734 -424.845 440.683C-426.045 440.632 -427.24 440.864 -428.334 441.361L-456.969 391.854C-455.646 391.051 -454.552 389.922 -453.792 388.574C-453.033 387.226 -452.634 385.705 -452.634 384.158C-452.634 382.611 -453.033 381.09 -453.792 379.742C-454.552 378.394 -455.646 377.264 -456.969 376.462L-428.964 327.945ZM-540.398 392.529C-539.073 393.128 -537.622 393.398 -536.169 393.314C-534.716 393.23 -533.306 392.796 -532.058 392.049C-530.81 391.301 -529.762 390.262 -529.003 389.021C-528.244 387.78 -527.798 386.374 -527.702 384.923H-471.151C-471.014 387.215 -470.004 389.368 -468.33 390.941C-466.656 392.514 -464.444 393.388 -462.147 393.384C-460.866 393.384 -459.598 393.14 -458.41 392.664L-430.99 440.1L-429.774 442.261C-430.715 442.962 -431.482 443.871 -432.013 444.917C-432.544 445.963 -432.826 447.118 -432.836 448.291C-432.861 449.515 -432.596 450.728 -432.064 451.83C-431.532 452.933 -430.748 453.895 -429.774 454.637L-458.455 504.144C-459.65 503.516 -460.976 503.177 -462.327 503.154C-464.664 503.054 -466.948 503.867 -468.696 505.421C-470.444 506.975 -471.518 509.148 -471.692 511.48H-529.097C-529.383 509.747 -530.271 508.169 -531.605 507.025C-532.939 505.881 -534.634 505.243 -536.391 505.224C-537.526 505.228 -538.646 505.473 -539.678 505.944L-568.538 455.807C-567.322 454.982 -566.326 453.872 -565.638 452.574C-564.949 451.276 -564.589 449.828 -564.589 448.359C-564.589 446.889 -564.949 445.442 -565.638 444.144C-566.326 442.846 -567.322 441.735 -568.538 440.91L-540.398 392.529ZM-650.662 326.235C-649.843 326.613 -648.953 326.812 -648.051 326.82C-646.382 326.848 -644.764 326.241 -643.527 325.121C-642.289 324.001 -641.524 322.452 -641.387 320.789H-581.775C-581.6 322.677 -580.737 324.434 -579.351 325.728C-577.965 327.022 -576.152 327.763 -574.256 327.81C-573.007 327.841 -571.77 327.563 -570.655 327L-542.064 376.507C-543.263 377.328 -544.25 378.42 -544.947 379.695C-545.643 380.97 -546.028 382.391 -546.071 383.843C-546.127 385.37 -545.792 386.886 -545.099 388.248C-544.405 389.611 -543.377 390.774 -542.109 391.629L-570.024 439.92C-571.156 439.4 -572.381 439.109 -573.626 439.065C-576.007 438.968 -578.33 439.818 -580.086 441.429C-581.841 443.04 -582.886 445.281 -582.991 447.661H-641.522C-641.602 446.021 -642.302 444.472 -643.48 443.327C-644.659 442.182 -646.228 441.528 -647.871 441.496C-648.87 441.446 -649.865 441.663 -650.752 442.126L-679.613 392.124C-678.391 391.298 -677.382 390.195 -676.67 388.904C-675.957 387.613 -675.562 386.171 -675.515 384.698C-675.485 383.089 -675.887 381.501 -676.679 380.1C-677.47 378.699 -678.624 377.536 -680.018 376.732L-650.662 326.235Z" fill="white" fill-opacity="0.4"/>
<path d="M354 499C356.967 499 359.867 499.88 362.334 501.528C364.8 503.176 366.723 505.519 367.858 508.26C368.994 511.001 369.291 514.017 368.712 516.926C368.133 519.836 366.704 522.509 364.607 524.607C362.509 526.704 359.836 528.133 356.926 528.712C354.017 529.291 351.001 528.994 348.26 527.858C345.519 526.723 343.176 524.8 341.528 522.334C339.88 519.867 339 516.967 339 514C339.012 510.025 340.596 506.217 343.407 503.407C346.217 500.596 350.025 499.012 354 499ZM354 527.051C356.581 527.051 359.105 526.286 361.251 524.852C363.397 523.418 365.07 521.379 366.058 518.995C367.046 516.61 367.304 513.986 366.801 511.454C366.297 508.922 365.054 506.597 363.229 504.771C361.403 502.946 359.078 501.703 356.546 501.199C354.014 500.696 351.39 500.954 349.005 501.942C346.621 502.93 344.582 504.603 343.148 506.749C341.714 508.895 340.949 511.419 340.949 514C340.949 515.714 341.286 517.411 341.942 518.995C342.598 520.578 343.559 522.017 344.771 523.229C345.983 524.441 347.422 525.402 349.005 526.058C350.589 526.714 352.286 527.051 354 527.051Z" fill="url(#paint12_linear)"/>
<path d="M94.9558 431C98.3218 430.991 101.615 432.011 104.417 433.93C107.22 435.85 109.405 438.582 110.697 441.782C111.99 444.982 112.33 448.504 111.675 451.903C111.021 455.302 109.401 458.424 107.021 460.874C104.641 463.325 101.607 464.992 98.3057 465.666C95.0039 466.34 91.5821 465.989 88.474 464.659C85.3658 463.329 82.7112 461.079 80.8466 458.194C78.982 455.309 77.9913 451.919 78.0001 448.454C78.0117 443.829 79.8019 439.396 82.9792 436.126C86.1565 432.855 90.4624 431.012 94.9558 431ZM94.9558 463.995C97.9434 464.004 100.867 463.1 103.355 461.398C105.843 459.696 107.785 457.272 108.935 454.433C110.084 451.594 110.389 448.468 109.812 445.451C109.234 442.433 107.8 439.66 105.69 437.482C103.581 435.304 100.891 433.819 97.9615 433.216C95.0319 432.613 91.9943 432.918 89.2332 434.093C86.4721 435.268 84.1118 437.259 82.451 439.816C80.7902 442.373 79.9038 445.379 79.9037 448.454C79.9037 452.568 81.4881 456.514 84.3097 459.427C87.1312 462.34 90.9597 463.983 94.9558 463.995Z" fill="url(#paint13_linear)"/>
<path d="M466.546 306C469.807 306.009 472.993 306.955 475.7 308.718C478.407 310.481 480.515 312.983 481.757 315.908C482.999 318.832 483.319 322.048 482.677 325.148C482.036 328.249 480.461 331.096 478.151 333.329C475.842 335.563 472.902 337.082 469.702 337.696C466.503 338.31 463.188 337.99 460.175 336.778C457.163 335.566 454.589 333.515 452.778 330.885C450.967 328.254 450 325.163 450 322C450.012 317.752 451.761 313.683 454.862 310.684C457.964 307.684 462.165 306 466.546 306ZM466.546 336.1C469.432 336.099 472.254 335.269 474.654 333.713C477.053 332.157 478.923 329.945 480.025 327.358C481.128 324.771 481.414 321.925 480.848 319.18C480.281 316.435 478.887 313.915 476.843 311.939C474.799 309.963 472.195 308.619 469.363 308.079C466.531 307.538 463.597 307.824 460.932 308.902C458.268 309.979 455.993 311.798 454.396 314.13C452.799 316.462 451.951 319.201 451.96 322C451.96 323.855 452.338 325.692 453.071 327.406C453.805 329.119 454.88 330.676 456.235 331.986C457.59 333.295 459.198 334.333 460.967 335.039C462.737 335.745 464.632 336.105 466.546 336.1Z" fill="url(#paint14_linear)"/>
<path d="M429.954 114C432.923 113.991 435.827 114.834 438.3 116.422C440.773 118.01 442.703 120.272 443.845 122.92C444.987 125.569 445.291 128.486 444.717 131.302C444.144 134.117 442.719 136.705 440.623 138.737C438.527 140.77 435.854 142.155 432.943 142.718C430.032 143.281 427.014 142.997 424.27 141.901C421.527 140.804 419.181 138.946 417.531 136.56C415.881 134.175 415 131.37 415 128.5C415 124.662 416.574 120.981 419.377 118.263C422.18 115.545 425.984 114.012 429.954 114ZM429.954 141.087C432.529 141.087 435.047 140.349 437.188 138.966C439.33 137.583 440.999 135.617 441.984 133.317C442.97 131.017 443.228 128.486 442.725 126.044C442.223 123.603 440.983 121.36 439.161 119.599C437.34 117.839 435.02 116.64 432.494 116.155C429.968 115.669 427.35 115.918 424.971 116.871C422.591 117.824 420.558 119.437 419.127 121.507C417.696 123.577 416.933 126.011 416.933 128.5C416.945 131.835 418.32 135.03 420.76 137.388C423.199 139.746 426.504 141.076 429.954 141.087Z" fill="url(#paint15_linear)"/>
<path d="M762.5 563C765.763 563 768.954 563.968 771.667 565.781C774.38 567.594 776.495 570.171 777.744 573.186C778.993 576.201 779.32 579.518 778.683 582.719C778.046 585.92 776.475 588.86 774.167 591.167C771.86 593.475 768.92 595.046 765.719 595.683C762.518 596.32 759.201 595.993 756.186 594.744C753.171 593.495 750.594 591.38 748.781 588.667C746.968 585.953 746 582.763 746 579.5C746 575.124 747.738 570.927 750.833 567.833C753.927 564.738 758.124 563 762.5 563ZM762.5 594.072C765.382 594.072 768.2 593.217 770.596 591.616C772.992 590.015 774.86 587.739 775.963 585.076C777.066 582.414 777.354 579.484 776.792 576.657C776.23 573.83 774.842 571.234 772.804 569.196C770.766 567.158 768.17 565.77 765.343 565.208C762.516 564.646 759.586 564.934 756.924 566.037C754.261 567.14 751.985 569.008 750.384 571.404C748.783 573.801 747.928 576.618 747.928 579.5C747.94 583.361 749.479 587.061 752.209 589.791C754.939 592.521 758.639 594.06 762.5 594.072Z" fill="url(#paint16_linear)"/>
<path d="M1021 762C1023.37 762 1025.69 762.704 1027.67 764.022C1029.64 765.341 1031.18 767.215 1032.09 769.408C1032.99 771.601 1033.23 774.013 1032.77 776.341C1032.31 778.669 1031.16 780.807 1029.49 782.485C1027.81 784.164 1025.67 785.306 1023.34 785.769C1021.01 786.232 1018.6 785.995 1016.41 785.087C1014.22 784.178 1012.34 782.64 1011.02 780.667C1009.7 778.693 1009 776.373 1009 774C1009.01 770.821 1010.28 767.776 1012.53 765.528C1014.78 763.28 1017.82 762.012 1021 762ZM1021 784.082C1022.99 784.082 1024.94 783.49 1026.6 782.383C1028.26 781.275 1029.55 779.7 1030.31 777.858C1031.08 776.016 1031.28 773.989 1030.89 772.033C1030.5 770.077 1029.54 768.281 1028.13 766.871C1026.72 765.461 1024.92 764.501 1022.97 764.112C1021.01 763.723 1018.98 763.923 1017.14 764.686C1015.3 765.449 1013.73 766.741 1012.62 768.399C1011.51 770.057 1010.92 772.006 1010.92 774C1010.92 776.674 1011.98 779.238 1013.87 781.129C1015.76 783.02 1018.33 784.082 1021 784.082Z" fill="url(#paint17_linear)"/>
<path d="M911.5 306C914.961 306 918.345 307.026 921.222 308.949C924.1 310.872 926.343 313.605 927.668 316.803C928.992 320.001 929.339 323.519 928.664 326.914C927.989 330.309 926.322 333.427 923.874 335.874C921.427 338.322 918.309 339.988 914.914 340.664C911.519 341.339 908.001 340.992 904.803 339.668C901.605 338.343 898.872 336.1 896.949 333.222C895.026 330.345 894 326.961 894 323.5C894 318.859 895.844 314.408 899.126 311.126C902.408 307.844 906.859 306 911.5 306ZM911.5 339.075C914.581 339.075 917.592 338.162 920.153 336.45C922.715 334.739 924.711 332.306 925.89 329.46C927.069 326.614 927.377 323.483 926.776 320.461C926.175 317.44 924.692 314.665 922.513 312.486C920.335 310.308 917.56 308.825 914.539 308.224C911.517 307.623 908.386 307.931 905.54 309.11C902.694 310.289 900.261 312.285 898.55 314.847C896.838 317.408 895.925 320.419 895.925 323.5C895.925 325.545 896.327 327.571 897.11 329.46C897.893 331.35 899.04 333.067 900.487 334.513C901.933 335.96 903.65 337.107 905.54 337.89C907.429 338.673 909.455 339.075 911.5 339.075Z" fill="url(#paint18_linear)"/>
<path d="M651.5 372C654.37 372 657.175 372.881 659.561 374.531C661.946 376.181 663.804 378.527 664.9 381.27C665.997 384.014 666.281 387.032 665.718 389.943C665.155 392.854 663.77 395.527 661.737 397.623C659.705 399.719 657.117 401.144 654.302 401.717C651.486 402.291 648.569 401.987 645.92 400.845C643.272 399.703 641.01 397.773 639.422 395.3C637.834 392.827 636.991 389.923 637 386.954C637 384.987 637.375 383.038 638.105 381.221C638.834 379.404 639.903 377.753 641.25 376.364C642.597 374.975 644.196 373.874 645.954 373.125C647.713 372.376 649.598 371.994 651.5 372ZM651.5 399.982C653.987 399.964 656.413 399.184 658.472 397.742C660.531 396.299 662.132 394.258 663.071 391.876C664.011 389.494 664.248 386.878 663.752 384.357C663.256 381.836 662.05 379.523 660.285 377.71C658.52 375.898 656.276 374.666 653.836 374.171C651.395 373.675 648.868 373.939 646.572 374.927C644.276 375.916 642.314 377.586 640.934 379.726C639.555 381.866 638.818 384.381 638.818 386.954C638.818 388.673 639.147 390.374 639.785 391.961C640.424 393.547 641.359 394.988 642.538 396.199C643.717 397.409 645.115 398.367 646.654 399.016C648.192 399.666 649.839 399.994 651.5 399.982Z" fill="url(#paint19_linear)"/>
<path d="M204.5 630C206.972 630 209.389 630.733 211.445 632.107C213.5 633.48 215.102 635.432 216.049 637.716C216.995 640.001 217.242 642.514 216.76 644.939C216.278 647.363 215.087 649.591 213.339 651.339C211.591 653.087 209.363 654.277 206.939 654.76C204.514 655.242 202.001 654.995 199.716 654.048C197.432 653.102 195.48 651.5 194.107 649.445C192.733 647.389 192 644.972 192 642.5C192.012 639.188 193.333 636.016 195.674 633.674C198.016 631.333 201.188 630.012 204.5 630ZM204.5 653.067C206.59 653.067 208.633 652.447 210.37 651.286C212.108 650.125 213.462 648.474 214.262 646.544C215.062 644.613 215.271 642.488 214.864 640.439C214.456 638.389 213.449 636.506 211.972 635.028C210.494 633.551 208.611 632.544 206.561 632.136C204.512 631.729 202.387 631.938 200.456 632.738C198.526 633.538 196.875 634.892 195.714 636.63C194.553 638.367 193.933 640.41 193.933 642.5C193.933 645.302 195.047 647.99 197.028 649.972C199.01 651.953 201.698 653.067 204.5 653.067Z" fill="url(#paint20_linear)"/>
<path d="M984.455 566C987.327 565.991 990.136 566.864 992.528 568.509C994.919 570.153 996.785 572.496 997.888 575.238C998.991 577.981 999.282 581.001 998.724 583.915C998.166 586.829 996.784 589.506 994.753 591.607C992.723 593.707 990.135 595.137 987.318 595.714C984.501 596.291 981.582 595.99 978.93 594.849C976.279 593.708 974.015 591.778 972.425 589.305C970.835 586.831 969.991 583.924 970 580.954C970.012 576.991 971.539 573.195 974.247 570.393C976.955 567.592 980.625 566.012 984.455 566ZM984.455 593.864C986.941 593.864 989.371 593.101 991.439 591.672C993.506 590.244 995.117 588.213 996.068 585.837C997.019 583.461 997.268 580.846 996.783 578.324C996.298 575.802 995.101 573.485 993.343 571.666C991.585 569.848 989.346 568.609 986.907 568.108C984.469 567.606 981.942 567.863 979.645 568.847C977.348 569.832 975.385 571.498 974.004 573.637C972.623 575.775 971.885 578.289 971.885 580.861C971.874 582.576 972.19 584.277 972.816 585.865C973.443 587.454 974.367 588.898 975.535 590.115C976.704 591.333 978.093 592.299 979.624 592.958C981.155 593.617 982.797 593.957 984.455 593.957V593.864Z" fill="url(#paint21_linear)"/>
<path d="M1207.95 434C1211.72 433.991 1215.4 435.099 1218.53 437.183C1221.66 439.268 1224.1 442.235 1225.55 445.708C1226.99 449.182 1227.37 453.006 1226.64 456.696C1225.91 460.385 1224.09 463.775 1221.44 466.435C1218.78 469.095 1215.39 470.905 1211.7 471.637C1208.01 472.369 1204.18 471.989 1200.71 470.545C1197.23 469.101 1194.27 466.659 1192.18 463.528C1190.1 460.396 1188.99 456.717 1189 452.955C1189.01 447.931 1191.01 443.117 1194.57 439.565C1198.12 436.013 1202.93 434.012 1207.95 434ZM1207.95 470.105C1211.33 470.105 1214.63 469.104 1217.43 467.23C1220.24 465.355 1222.42 462.691 1223.72 459.574C1225.01 456.456 1225.34 453.026 1224.69 449.717C1224.03 446.408 1222.4 443.368 1220.02 440.982C1217.63 438.597 1214.59 436.972 1211.28 436.314C1207.97 435.655 1204.54 435.993 1201.43 437.284C1198.31 438.576 1195.65 440.762 1193.77 443.568C1191.9 446.373 1190.9 449.671 1190.9 453.045C1190.92 457.554 1192.73 461.87 1195.92 465.05C1199.12 468.229 1203.45 470.014 1207.95 470.014V470.105Z" fill="url(#paint22_linear)"/>
<path d="M1245.96 119C1248.32 118.992 1250.64 119.712 1252.61 121.07C1254.59 122.428 1256.13 124.364 1257.05 126.634C1257.97 128.904 1258.23 131.407 1257.79 133.828C1257.35 136.25 1256.23 138.481 1254.58 140.243C1252.92 142.004 1250.8 143.217 1248.49 143.728C1246.18 144.239 1243.77 144.027 1241.57 143.117C1239.37 142.207 1237.48 140.64 1236.13 138.614C1234.79 136.587 1234.05 134.191 1234 131.727C1233.97 130.071 1234.26 128.424 1234.85 126.885C1235.44 125.345 1236.31 123.942 1237.42 122.757C1238.54 121.573 1239.86 120.631 1241.33 119.986C1242.79 119.341 1244.37 119.006 1245.96 119ZM1245.96 142C1247.97 142.008 1249.95 141.39 1251.62 140.224C1253.3 139.059 1254.6 137.398 1255.37 135.456C1256.13 133.514 1256.32 131.379 1255.91 129.323C1255.51 127.267 1254.52 125.385 1253.08 123.917C1251.64 122.449 1249.81 121.462 1247.83 121.083C1245.85 120.704 1243.8 120.949 1241.95 121.788C1240.11 122.627 1238.54 124.021 1237.46 125.791C1236.38 127.562 1235.83 129.629 1235.88 131.727C1235.95 134.469 1237.04 137.075 1238.92 138.993C1240.8 140.91 1243.33 141.989 1245.96 142Z" fill="url(#paint23_linear)"/>
<path d="M986.501 182C988.966 182 991.375 182.729 993.427 184.095C995.478 185.46 997.08 187.402 998.032 189.676C998.983 191.949 999.241 194.453 998.773 196.873C998.305 199.292 997.132 201.52 995.402 203.275C993.672 205.03 991.462 206.235 989.049 206.737C986.636 207.24 984.129 207.018 981.842 206.1C979.555 205.181 977.591 203.607 976.195 201.576C974.8 199.544 974.037 197.145 974.001 194.681C973.977 193.024 974.283 191.38 974.9 189.842C975.518 188.304 976.435 186.905 977.598 185.725C978.761 184.545 980.147 183.608 981.676 182.969C983.204 182.329 984.844 182 986.501 182ZM986.501 205.007C988.602 205.025 990.66 204.415 992.412 203.256C994.163 202.097 995.53 200.442 996.335 198.502C997.141 196.562 997.349 194.426 996.933 192.367C996.518 190.308 995.497 188.42 994.002 186.945C992.507 185.469 990.606 184.473 988.542 184.085C986.478 183.696 984.345 183.932 982.415 184.763C980.486 185.594 978.849 186.982 977.713 188.749C976.577 190.516 975.994 192.581 976.039 194.681C976.098 197.425 977.224 200.038 979.177 201.965C981.13 203.893 983.757 204.984 986.501 205.007Z" fill="url(#paint24_linear)"/>
</g>
</g>
<defs>
<linearGradient id="paint0_linear" x1="1.55142e-05" y1="470.367" x2="1446" y2="468.404" gradientUnits="userSpaceOnUse">
<stop stop-color="#5171C0"/>
<stop offset="1" stop-color="#5BB0B5"/>
</linearGradient>
<linearGradient id="paint1_linear" x1="1.55142e-05" y1="470.367" x2="1446" y2="468.404" gradientUnits="userSpaceOnUse">
<stop stop-color="#5171C0"/>
<stop offset="1" stop-color="#5BB0B5"/>
</linearGradient>
<linearGradient id="paint2_linear" x1="52785.3" y1="61097.7" x2="122494" y2="61627.8" gradientUnits="userSpaceOnUse">
<stop stop-color="#CEDFFF"/>
<stop offset="0.25" stop-color="#32D8DD"/>
<stop offset="0.5" stop-color="#60DF84"/>
<stop offset="0.75" stop-color="#FFD429"/>
<stop offset="1" stop-color="#DF2D5C"/>
</linearGradient>
<linearGradient id="paint3_linear" x1="52493.6" y1="55293.6" x2="122202" y2="55827.8" gradientUnits="userSpaceOnUse">
<stop stop-color="#CEDFFF"/>
<stop offset="0.25" stop-color="#32D8DD"/>
<stop offset="0.5" stop-color="#60DF84"/>
<stop offset="0.75" stop-color="#FFD429"/>
<stop offset="1" stop-color="#DF2D5C"/>
</linearGradient>
<linearGradient id="paint4_linear" x1="52451.6" y1="46466.4" x2="122160" y2="47000.6" gradientUnits="userSpaceOnUse">
<stop stop-color="#CEDFFF"/>
<stop offset="0.25" stop-color="#32D8DD"/>
<stop offset="0.5" stop-color="#60DF84"/>
<stop offset="0.75" stop-color="#FFD429"/>
<stop offset="1" stop-color="#DF2D5C"/>
</linearGradient>
<linearGradient id="paint5_linear" x1="52716.6" y1="55748.8" x2="122425" y2="56278.9" gradientUnits="userSpaceOnUse">
<stop stop-color="#CEDFFF"/>
<stop offset="0.25" stop-color="#32D8DD"/>
<stop offset="0.5" stop-color="#60DF84"/>
<stop offset="0.75" stop-color="#FFD429"/>
<stop offset="1" stop-color="#DF2D5C"/>
</linearGradient>
<linearGradient id="paint6_linear" x1="52020.2" y1="59254.4" x2="121729" y2="59782.7" gradientUnits="userSpaceOnUse">
<stop stop-color="#CEDFFF"/>
<stop offset="0.25" stop-color="#32D8DD"/>
<stop offset="0.5" stop-color="#60DF84"/>
<stop offset="0.75" stop-color="#FFD429"/>
<stop offset="1" stop-color="#DF2D5C"/>
</linearGradient>
<linearGradient id="paint7_linear" x1="51436.7" y1="46763.4" x2="120678" y2="47286.3" gradientUnits="userSpaceOnUse">
<stop stop-color="#CEDFFF"/>
<stop offset="0.25" stop-color="#32D8DD"/>
<stop offset="0.5" stop-color="#60DF84"/>
<stop offset="0.75" stop-color="#FFD429"/>
<stop offset="1" stop-color="#DF2D5C"/>
</linearGradient>
<linearGradient id="paint8_linear" x1="51951.5" y1="53486.8" x2="121659" y2="54021" gradientUnits="userSpaceOnUse">
<stop stop-color="#CEDFFF"/>
<stop offset="0.25" stop-color="#32D8DD"/>
<stop offset="0.5" stop-color="#60DF84"/>
<stop offset="0.75" stop-color="#FFD429"/>
<stop offset="1" stop-color="#DF2D5C"/>
</linearGradient>
<linearGradient id="paint9_linear" x1="52673.6" y1="46479" x2="122382" y2="47013.2" gradientUnits="userSpaceOnUse">
<stop stop-color="#CEDFFF"/>
<stop offset="0.25" stop-color="#32D8DD"/>
<stop offset="0.5" stop-color="#60DF84"/>
<stop offset="0.75" stop-color="#FFD429"/>
<stop offset="1" stop-color="#DF2D5C"/>
</linearGradient>
<linearGradient id="paint10_linear" x1="52073.5" y1="53881.3" x2="122251" y2="54418.5" gradientUnits="userSpaceOnUse">
<stop stop-color="#CEDFFF"/>
<stop offset="0.25" stop-color="#32D8DD"/>
<stop offset="0.5" stop-color="#60DF84"/>
<stop offset="0.75" stop-color="#FFD429"/>
<stop offset="1" stop-color="#DF2D5C"/>
</linearGradient>
<linearGradient id="paint11_linear" x1="51532.3" y1="50690.7" x2="121242" y2="51216.7" gradientUnits="userSpaceOnUse">
<stop stop-color="#CEDFFF"/>
<stop offset="0.25" stop-color="#32D8DD"/>
<stop offset="0.5" stop-color="#60DF84"/>
<stop offset="0.75" stop-color="#FFD429"/>
<stop offset="1" stop-color="#DF2D5C"/>
</linearGradient>
<linearGradient id="paint12_linear" x1="10737.9" y1="12517.3" x2="24773.4" y2="12609.7" gradientUnits="userSpaceOnUse">
<stop stop-color="#CEDFFF"/>
<stop offset="0.25" stop-color="#32D8DD"/>
<stop offset="0.5" stop-color="#60DF84"/>
<stop offset="0.75" stop-color="#FFD429"/>
<stop offset="1" stop-color="#DF2D5C"/>
</linearGradient>
<linearGradient id="paint13_linear" x1="11857.6" y1="14946.2" x2="27768.3" y2="15047.6" gradientUnits="userSpaceOnUse">
<stop stop-color="#CEDFFF"/>
<stop offset="0.25" stop-color="#32D8DD"/>
<stop offset="0.5" stop-color="#60DF84"/>
<stop offset="0.75" stop-color="#FFD429"/>
<stop offset="1" stop-color="#DF2D5C"/>
</linearGradient>
<linearGradient id="paint14_linear" x1="11877.2" y1="14493.5" x2="27320.9" y2="14598.3" gradientUnits="userSpaceOnUse">
<stop stop-color="#CEDFFF"/>
<stop offset="0.25" stop-color="#32D8DD"/>
<stop offset="0.5" stop-color="#60DF84"/>
<stop offset="0.75" stop-color="#FFD429"/>
<stop offset="1" stop-color="#DF2D5C"/>
</linearGradient>
<linearGradient id="paint15_linear" x1="10796.5" y1="14215.5" x2="24833.2" y2="14311.1" gradientUnits="userSpaceOnUse">
<stop stop-color="#CEDFFF"/>
<stop offset="0.25" stop-color="#32D8DD"/>
<stop offset="0.5" stop-color="#60DF84"/>
<stop offset="0.75" stop-color="#FFD429"/>
<stop offset="1" stop-color="#DF2D5C"/>
</linearGradient>
<linearGradient id="paint16_linear" x1="12187.1" y1="13318.5" x2="27627.8" y2="13420.1" gradientUnits="userSpaceOnUse">
<stop stop-color="#CEDFFF"/>
<stop offset="0.25" stop-color="#32D8DD"/>
<stop offset="0.5" stop-color="#60DF84"/>
<stop offset="0.75" stop-color="#FFD429"/>
<stop offset="1" stop-color="#DF2D5C"/>
</linearGradient>
<linearGradient id="paint17_linear" x1="9337" y1="9013.92" x2="20565.9" y2="9087.84" gradientUnits="userSpaceOnUse">
<stop stop-color="#CEDFFF"/>
<stop offset="0.25" stop-color="#32D8DD"/>
<stop offset="0.5" stop-color="#60DF84"/>
<stop offset="0.75" stop-color="#FFD429"/>
<stop offset="1" stop-color="#DF2D5C"/>
</linearGradient>
<linearGradient id="paint18_linear" x1="13016.2" y1="15837.9" x2="29389.9" y2="15945.7" gradientUnits="userSpaceOnUse">
<stop stop-color="#CEDFFF"/>
<stop offset="0.25" stop-color="#32D8DD"/>
<stop offset="0.5" stop-color="#60DF84"/>
<stop offset="0.75" stop-color="#FFD429"/>
<stop offset="1" stop-color="#DF2D5C"/>
</linearGradient>
<linearGradient id="paint19_linear" x1="10682.6" y1="13248.3" x2="24253.2" y2="13334.6" gradientUnits="userSpaceOnUse">
<stop stop-color="#CEDFFF"/>
<stop offset="0.25" stop-color="#32D8DD"/>
<stop offset="0.5" stop-color="#60DF84"/>
<stop offset="0.75" stop-color="#FFD429"/>
<stop offset="1" stop-color="#DF2D5C"/>
</linearGradient>
<linearGradient id="paint20_linear" x1="8861.75" y1="9924" x2="20559.3" y2="10001" gradientUnits="userSpaceOnUse">
<stop stop-color="#CEDFFF"/>
<stop offset="0.25" stop-color="#32D8DD"/>
<stop offset="0.5" stop-color="#60DF84"/>
<stop offset="0.75" stop-color="#FFD429"/>
<stop offset="1" stop-color="#DF2D5C"/>
</linearGradient>
<linearGradient id="paint21_linear" x1="11025.2" y1="12164.6" x2="24591.7" y2="12250.9" gradientUnits="userSpaceOnUse">
<stop stop-color="#CEDFFF"/>
<stop offset="0.25" stop-color="#32D8DD"/>
<stop offset="0.5" stop-color="#60DF84"/>
<stop offset="0.75" stop-color="#FFD429"/>
<stop offset="1" stop-color="#DF2D5C"/>
</linearGradient>
<linearGradient id="paint22_linear" x1="14357.1" y1="16217.3" x2="32135.1" y2="16334.3" gradientUnits="userSpaceOnUse">
<stop stop-color="#CEDFFF"/>
<stop offset="0.25" stop-color="#32D8DD"/>
<stop offset="0.5" stop-color="#60DF84"/>
<stop offset="0.75" stop-color="#FFD429"/>
<stop offset="1" stop-color="#DF2D5C"/>
</linearGradient>
<linearGradient id="paint23_linear" x1="9539.44" y1="12288" x2="20767.4" y2="12359" gradientUnits="userSpaceOnUse">
<stop stop-color="#CEDFFF"/>
<stop offset="0.25" stop-color="#32D8DD"/>
<stop offset="0.5" stop-color="#60DF84"/>
<stop offset="0.75" stop-color="#FFD429"/>
<stop offset="1" stop-color="#DF2D5C"/>
</linearGradient>
<linearGradient id="paint24_linear" x1="9627.75" y1="11991.5" x2="21324.8" y2="12068.3" gradientUnits="userSpaceOnUse">
<stop stop-color="#CEDFFF"/>
<stop offset="0.25" stop-color="#32D8DD"/>
<stop offset="0.5" stop-color="#60DF84"/>
<stop offset="0.75" stop-color="#FFD429"/>
<stop offset="1" stop-color="#DF2D5C"/>
</linearGradient>
</defs>
</svg>
