<svg width="226" height="51.99999999999999" xmlns="http://www.w3.org/2000/svg">
 <!-- Created with Method Draw - http://github.com/duopixel/Method-Draw/ -->

 <g>
  <title>background</title>
  <rect fill="#fff" id="canvas_background" height="54" width="228" y="-1" x="-1"/>
  <g display="none" overflow="visible" y="0" x="0" height="100%" width="100%" id="canvasGrid">
   <rect fill="url(#gridpattern)" stroke-width="0" y="0" x="0" height="100%" width="100%"/>
  </g>
 </g>
 <g>
  <title>Layer 1</title>
  <g stroke="null" id="svg_5">
   <rect stroke="null" x="19097.166746" y="4394.038341" transform="matrix(-0.9986622819951374,0,0,0.9859834555745456,19297.468762328244,-4332.085188013136) " id="svg_4" fill="#FCCB6F" rx="26" height="52" width="226"/>
  </g>
  <g stroke="null" id="svg_10">
   <path stroke="null" id="svg_9" fill="#1A1C29" d="m69.276602,29.591495c0.153458,0 0.285996,0.063688 0.397507,0.19095l1.108834,1.291723c-0.613625,0.816257 -1.370352,1.441451 -2.269972,1.875807c-0.892611,0.434356 -1.96658,0.651478 -3.221864,0.651478c-1.122778,0 -2.133983,-0.205889 -3.033603,-0.617781c-0.892643,-0.411891 -1.656274,-0.984743 -2.290893,-1.718554c-0.634619,-0.733811 -1.122778,-1.609937 -1.464498,-2.628376c-0.334742,-1.018406 -0.502114,-2.130411 -0.502114,-3.336016c0,-1.220589 0.188293,-2.336334 0.564878,-3.347248c0.376585,-1.018406 0.906597,-1.894531 1.590026,-2.628376c0.683429,-0.733845 1.499363,-1.302956 2.447804,-1.707321c0.955417,-0.411858 2.008454,-0.617781 3.159131,-0.617781c1.122778,0 2.102569,0.194691 2.939425,0.584084c0.843865,0.381901 1.565653,0.891098 2.165365,1.527603l-0.941463,1.404047c-0.055756,0.089859 -0.12898,0.168486 -0.219675,0.23588c-0.083686,0.067394 -0.202205,0.101091 -0.355664,0.101091c-0.160363,0 -0.324282,-0.067394 -0.491653,-0.202183c-0.167371,-0.134789 -0.380037,-0.280809 -0.638103,-0.438063c-0.257961,-0.157253 -0.585799,-0.303274 -0.983274,-0.438063c-0.390529,-0.134789 -0.889159,-0.202183 -1.49588,-0.202183c-0.711328,0 -1.366868,0.134789 -1.966611,0.404366c-0.592776,0.262085 -1.105351,0.640246 -1.537723,1.13447c-0.425405,0.494225 -0.760148,1.097033 -1.004227,1.808413c-0.237113,0.703899 -0.355664,1.497647 -0.355664,2.381264c0,0.913563 0.118551,1.726046 0.355664,2.437426c0.244079,0.711346 0.571855,1.310481 0.983306,1.79718c0.411461,0.486699 0.896137,0.861186 1.454037,1.123238c0.5579,0.254638 1.157654,0.381901 1.79924,0.381901c0.383562,0 0.728766,-0.022465 1.035609,-0.067394c0.313821,-0.04493 0.599743,-0.11603 0.857777,-0.213415c0.265043,-0.097385 0.512543,-0.220941 0.742678,-0.370668c0.237144,-0.157253 0.470731,-0.348204 0.700867,-0.572851c0.069773,-0.067394 0.142998,-0.119849 0.219675,-0.157253c0.076782,-0.04493 0.160467,-0.067394 0.251057,-0.067394zm9.119638,-7.873896c0.802022,0 1.527262,0.138529 2.175825,0.415598c0.655572,0.277069 1.213441,0.670202 1.673712,1.1794c0.460271,0.509197 0.815935,1.13073 1.066991,1.864575c0.251057,0.733845 0.376585,1.553808 0.376585,2.459891c0,0.913529 -0.125528,1.737312 -0.376585,2.471123c-0.251057,0.733811 -0.606721,1.359118 -1.066991,1.875807c-0.460271,0.516689 -1.01814,0.913529 -1.673712,1.190632c-0.648563,0.277103 -1.373804,0.415598 -2.175825,0.415598c-0.802022,0 -1.530714,-0.138495 -2.186286,-0.415598c-0.655572,-0.277103 -1.216893,-0.673943 -1.684173,-1.190632c-0.460271,-0.516689 -0.819387,-1.141996 -1.077452,-1.875807c-0.251057,-0.733811 -0.376585,-1.557594 -0.376585,-2.471123c0,-0.906082 0.125528,-1.726046 0.376585,-2.459891c0.258065,-0.733845 0.617181,-1.355377 1.077452,-1.864575c0.467279,-0.509197 1.028601,-0.902331 1.684173,-1.1794c0.655572,-0.277069 1.384264,-0.415598 2.186286,-0.415598zm0,9.738471c0.892611,0 1.551636,-0.322032 1.977072,-0.965984c0.432341,-0.643952 0.648563,-1.587472 0.648563,-2.830559c0,-1.243053 -0.216223,-2.190314 -0.648563,-2.841791c-0.425437,-0.651478 -1.084461,-0.977217 -1.977072,-0.977217c-0.906629,0 -1.576114,0.329479 -2.008454,0.988449c-0.432341,0.651478 -0.648563,1.594998 -0.648563,2.830559c0,1.235561 0.216223,2.179081 0.648563,2.830559c0.432341,0.643952 1.101825,0.965984 2.008454,0.965984zm8.35517,1.965666l0,-11.524419l1.579566,0c0.334742,0 0.554417,0.168486 0.659024,0.505457l0.177832,0.909823c0.216223,-0.23962 0.442801,-0.456787 0.679945,-0.651478c0.244048,-0.194691 0.498662,-0.363176 0.763631,-0.505457c0.271978,-0.142281 0.561426,-0.250853 0.868238,-0.325739c0.306812,-0.074886 0.641555,-0.112324 1.004227,-0.112324c0.585799,0 1.105382,0.108583 1.558644,0.325739c0.453262,0.209675 0.829847,0.509197 1.129756,0.89859c0.306812,0.381901 0.536948,0.842428 0.690406,1.381582c0.160363,0.531662 0.240596,1.119497 0.240596,1.763483l0,7.334742l-2.583793,0l0,-7.334742c0,-0.703899 -0.153458,-1.246794 -0.460271,-1.628695c-0.299908,-0.389393 -0.75317,-0.584084 -1.359891,-0.584084c-0.446358,0 -0.864786,0.108583 -1.255284,0.325739c-0.390498,0.217156 -0.760179,0.512949 -1.108834,0.887358l0,8.334424l-2.583793,0zm16.462211,0.179718c-0.92755,0 -1.64233,-0.280809 -2.144443,-0.842428c-0.502114,-0.569145 -0.75317,-1.351592 -0.75317,-2.347567l0,-6.436152l-1.087913,0c-0.139546,0 -0.261517,-0.04867 -0.366124,-0.146021c-0.097703,-0.097351 -0.14645,-0.243372 -0.14645,-0.438063l0,-1.100773l1.726015,-0.303274l0.543956,-3.145066c0.027825,-0.149761 0.09059,-0.265837 0.188293,-0.348204c0.104607,-0.082367 0.233587,-0.123556 0.387046,-0.123556l1.338969,0l0,3.628058l2.824389,0l0,1.976898l-2.824389,0l0,6.245202c0,0.359436 0.083686,0.640246 0.251057,0.842428c0.167371,0.202183 0.390498,0.303274 0.669485,0.303274c0.160363,0 0.2929,-0.018758 0.397507,-0.056162c0.111511,-0.04493 0.205657,-0.089859 0.282439,-0.134789c0.083686,-0.04493 0.15691,-0.086152 0.219675,-0.123556c0.062764,-0.04493 0.125528,-0.067394 0.188293,-0.067394c0.076677,0 0.139441,0.022465 0.188293,0.067394c0.048747,0.037404 0.10105,0.097385 0.15691,0.179718l0.774092,1.347885c-0.376585,0.336971 -0.80903,0.591609 -1.297127,0.763802c-0.488201,0.172192 -0.993766,0.258345 -1.516801,0.258345zm14.02194,-0.179718l-1.161138,0c-0.244153,0 -0.435897,-0.037404 -0.575338,-0.112324c-0.139546,-0.082333 -0.244153,-0.243406 -0.313821,-0.482992l-0.230135,-0.819964c-0.271978,0.262051 -0.540504,0.494225 -0.805474,0.696407c-0.258065,0.194657 -0.526592,0.359436 -0.805474,0.494225c-0.278987,0.134789 -0.575338,0.23588 -0.889159,0.303274c-0.313821,0.067394 -0.662581,0.101091 -1.04607,0.101091c-0.453367,0 -0.871795,-0.063688 -1.255284,-0.19095c-0.383594,-0.134789 -0.714884,-0.333265 -0.993766,-0.595316c-0.271978,-0.262051 -0.484749,-0.58779 -0.638103,-0.977217c-0.153458,-0.389427 -0.230135,-0.842428 -0.230135,-1.359118c0,-0.434356 0.104607,-0.861186 0.313821,-1.280491c0.216118,-0.42683 0.571782,-0.808731 1.066991,-1.145702c0.495105,-0.344463 1.154129,-0.629013 1.977072,-0.853661c0.822839,-0.224648 1.844535,-0.351944 3.064985,-0.381901l0,-0.673943c0,-0.771294 -0.153458,-1.340393 -0.460271,-1.707321c-0.299908,-0.374409 -0.739258,-0.561619 -1.318048,-0.561619c-0.418428,0 -0.767188,0.052422 -1.04607,0.157253c-0.278987,0.104832 -0.523035,0.224648 -0.732249,0.359436c-0.20231,0.127297 -0.390603,0.243372 -0.564878,0.348204c-0.17438,0.104832 -0.366124,0.157253 -0.575338,0.157253c-0.17438,0 -0.324282,-0.04867 -0.44981,-0.146021c-0.125528,-0.097351 -0.226683,-0.217156 -0.30336,-0.359436l-0.470731,-0.887358c1.234362,-1.213097 2.723234,-1.819645 4.466719,-1.819645c0.627642,0 1.185511,0.112324 1.673712,0.336971c0.495105,0.217156 0.913533,0.524181 1.255284,0.921055c0.341646,0.389393 0.599712,0.857401 0.774092,1.404047c0.181284,0.546646 0.271978,1.145702 0.271978,1.79718l0,7.27858zm-5.021136,-1.729786c0.26497,0 0.509018,-0.026171 0.732249,-0.078627c0.223127,-0.052455 0.432341,-0.131082 0.627642,-0.23588c0.202205,-0.104798 0.39395,-0.232173 0.575338,-0.381901c0.188293,-0.157253 0.376585,-0.340678 0.564878,-0.550386l0,-1.943201c-0.75317,0.037404 -1.384369,0.108617 -1.893491,0.213415c-0.502009,0.097385 -0.906524,0.224648 -1.213336,0.381901c-0.306917,0.157253 -0.526592,0.340678 -0.659024,0.550386c-0.125528,0.209708 -0.188293,0.438063 -0.188293,0.685175c0,0.486699 0.132432,0.834903 0.397507,1.044611c0.271978,0.209708 0.624085,0.314507 1.056531,0.314507zm16.14996,-7.357207c-0.076677,0.104832 -0.153458,0.18721 -0.230135,0.247112c-0.069773,0.059902 -0.17438,0.089859 -0.313821,0.089859c-0.132537,0 -0.261517,-0.041189 -0.387046,-0.123556c-0.125528,-0.089859 -0.27543,-0.18721 -0.44981,-0.292042c-0.17438,-0.112324 -0.383594,-0.209675 -0.627642,-0.292042c-0.237144,-0.089859 -0.533496,-0.134789 -0.889159,-0.134789c-0.453262,0 -0.850769,0.089859 -1.19252,0.269577c-0.341751,0.172226 -0.627642,0.42309 -0.857777,0.752569c-0.223127,0.329479 -0.390498,0.730105 -0.502114,1.201864c-0.111616,0.464268 -0.167371,0.99219 -0.167371,1.583765c0,0.614074 0.059312,1.160642 0.177832,1.639927c0.125528,0.479286 0.30336,0.883651 0.533496,1.213097c0.230135,0.322032 0.509122,0.569145 0.836856,0.741337c0.327734,0.164779 0.697415,0.247112 1.108834,0.247112c0.411419,0 0.74271,-0.052455 0.993766,-0.157253c0.258065,-0.112324 0.474183,-0.232173 0.648563,-0.359436c0.17438,-0.134789 0.324282,-0.254638 0.44981,-0.359436c0.132537,-0.112324 0.278987,-0.168486 0.439349,-0.168486c0.209214,0 0.366124,0.086152 0.470731,0.258345l0.74271,1.010914c-0.285891,0.359436 -0.59626,0.66271 -0.931002,0.909823c-0.334742,0.239587 -0.683397,0.434356 -1.04607,0.584084c-0.355664,0.142314 -0.72524,0.243406 -1.108834,0.303274c-0.383594,0.059869 -0.763631,0.089859 -1.140216,0.089859c-0.662476,0 -1.286666,-0.131082 -1.872465,-0.393133c-0.585799,-0.269577 -1.098373,-0.659004 -1.537723,-1.168167c-0.432341,-0.509164 -0.777544,-1.130763 -1.035609,-1.864575c-0.251057,-0.741337 -0.376585,-1.583765 -0.376585,-2.527285c0,-0.846169 0.111616,-1.628695 0.334742,-2.347567c0.230135,-0.726364 0.564878,-1.351626 1.004227,-1.875807c0.439349,-0.531662 0.983306,-0.94726 1.631869,-1.246794c0.648563,-0.299534 1.394725,-0.449295 2.23859,-0.449295c0.802022,0 1.502889,0.138529 2.102601,0.415598c0.606721,0.277069 1.150677,0.673943 1.631869,1.190632l-0.679945,1.010914zm6.999568,9.266711c-0.92755,0 -1.64233,-0.280809 -2.144548,-0.842428c-0.502009,-0.569145 -0.753066,-1.351592 -0.753066,-2.347567l0,-6.436152l-1.087913,0c-0.139546,0 -0.261517,-0.04867 -0.366124,-0.146021c-0.097703,-0.097351 -0.14645,-0.243372 -0.14645,-0.438063l0,-1.100773l1.726015,-0.303274l0.543956,-3.145066c0.027825,-0.149761 0.09059,-0.265837 0.188293,-0.348204c0.104607,-0.082367 0.233587,-0.123556 0.387046,-0.123556l1.338969,0l0,3.628058l2.824389,0l0,1.976898l-2.824389,0l0,6.245202c0,0.359436 0.083686,0.640246 0.251057,0.842428c0.167371,0.202183 0.390498,0.303274 0.669485,0.303274c0.160363,0 0.2929,-0.018758 0.397402,-0.056162c0.111616,-0.04493 0.205762,-0.089859 0.282543,-0.134789c0.083686,-0.04493 0.15691,-0.086152 0.219675,-0.123556c0.062764,-0.04493 0.125528,-0.067394 0.188293,-0.067394c0.076677,0 0.139441,0.022465 0.188293,0.067394c0.048747,0.037404 0.10105,0.097385 0.15691,0.179718l0.774092,1.347885c-0.376585,0.336971 -0.80903,0.591609 -1.297127,0.763802c-0.488201,0.172192 -0.993766,0.258345 -1.516801,0.258345zm13.066982,-11.704137l0,7.32351c0,0.703933 0.149902,1.250501 0.44981,1.639927c0.306812,0.381901 0.763631,0.572851 1.370352,0.572851c0.446358,0 0.864786,-0.104798 1.255284,-0.314507c0.390498,-0.217122 0.760179,-0.512983 1.108834,-0.887358l0,-8.334424l2.583793,0l0,11.524419l-1.579566,0c-0.334742,0 -0.554417,-0.168486 -0.659024,-0.505457l-0.177832,-0.921055c-0.223127,0.239587 -0.453262,0.460527 -0.690406,0.66271c-0.237144,0.194657 -0.491653,0.363143 -0.763631,0.505457c-0.26497,0.134789 -0.554417,0.239587 -0.868238,0.314507c-0.306812,0.082333 -0.638103,0.123556 -0.993766,0.123556c-0.585799,0 -1.105382,-0.104798 -1.558644,-0.314507c-0.446358,-0.217122 -0.822943,-0.520396 -1.129756,-0.909823c-0.306812,-0.389427 -0.540504,-0.849954 -0.700867,-1.381582c-0.153458,-0.539154 -0.230135,-1.130763 -0.230135,-1.774716l0,-7.32351l2.583793,0zm16.943927,2.246475c-0.070087,0.119816 -0.143312,0.205923 -0.219675,0.258345c-0.077409,0.04493 -0.174694,0.067394 -0.2929,0.067394c-0.125528,0 -0.261517,-0.037438 -0.407967,-0.112324c-0.140173,-0.074886 -0.30336,-0.157253 -0.491653,-0.247112c-0.188293,-0.097351 -0.404829,-0.183458 -0.648563,-0.258345c-0.237458,-0.074886 -0.519897,-0.112324 -0.847317,-0.112324c-0.509436,0 -0.910604,0.116064 -1.203503,0.348204c-0.2929,0.23214 -0.439349,0.535414 -0.439349,0.909823c0,0.247112 0.073225,0.456787 0.219675,0.629013c0.153458,0.164745 0.352212,0.310766 0.59626,0.438063c0.25158,0.127297 0.534019,0.243372 0.84784,0.348204c0.313821,0.097351 0.633918,0.205923 0.962384,0.325739c0.32742,0.119816 0.648563,0.258345 0.962384,0.415598c0.313821,0.149761 0.592076,0.344463 0.836856,0.584084c0.251057,0.232173 0.44981,0.512983 0.59626,0.842428c0.152726,0.329446 0.230135,0.726398 0.230135,1.190632c0,0.554093 -0.094146,1.067076 -0.282439,1.538836c-0.188293,0.464234 -0.464455,0.8686 -0.826395,1.213097c-0.362986,0.336971 -0.812796,0.602842 -1.34943,0.797499c-0.530357,0.187244 -1.140216,0.280809 -1.830622,0.280809c-0.3701,0 -0.732772,-0.037404 -1.088436,-0.112324c-0.348655,-0.067394 -0.686954,-0.164779 -1.014688,-0.292042c-0.32083,-0.127263 -0.620633,-0.277103 -0.89962,-0.449295c-0.271978,-0.172192 -0.512574,-0.359436 -0.721788,-0.561619l0.59626,-1.055843c0.076677,-0.127263 0.167371,-0.224648 0.271978,-0.292042c0.104607,-0.067394 0.237144,-0.101091 0.397507,-0.101091c0.160363,0 0.310369,0.048636 0.44981,0.146021c0.14645,0.097385 0.313821,0.202183 0.502114,0.314507c0.188293,0.112324 0.407967,0.217122 0.659024,0.314507c0.258065,0.097385 0.582347,0.146021 0.973368,0.146021c0.306498,0 0.568016,-0.037404 0.784552,-0.112324c0.222813,-0.082333 0.403783,-0.187244 0.543956,-0.314507c0.14645,-0.127263 0.251057,-0.273284 0.313821,-0.438063c0.069041,-0.172192 0.104607,-0.348204 0.104607,-0.527922c0,-0.269577 -0.077409,-0.490518 -0.230135,-0.66271c-0.14645,-0.172192 -0.345203,-0.322032 -0.59626,-0.449295c-0.24478,-0.127263 -0.527219,-0.239587 -0.847317,-0.336971c-0.314344,-0.104798 -0.638626,-0.217122 -0.973368,-0.336971c-0.327734,-0.119849 -0.652015,-0.258345 -0.972845,-0.415598c-0.313821,-0.164779 -0.59626,-0.370668 -0.847317,-0.617781c-0.244048,-0.247112 -0.442801,-0.550386 -0.59626,-0.909823c-0.14645,-0.359436 -0.219675,-0.793758 -0.219675,-1.302956c0,-0.47176 0.087138,-0.921055 0.261517,-1.347885c0.17438,-0.42683 0.428889,-0.797499 0.763631,-1.112005c0.341751,-0.321999 0.763631,-0.576592 1.265745,-0.763802c0.509122,-0.194691 1.094712,-0.292042 1.75792,-0.292042c0.738525,0 1.412194,0.131048 2.018915,0.393133c0.606721,0.262085 1.111972,0.606548 1.516801,1.033379l-0.585799,0.999682z"/>
  </g>
 </g>
</svg>