<svg width="226" height="52" xmlns="http://www.w3.org/2000/svg">
 <!-- Created with Method Draw - http://github.com/duopixel/Method-Draw/ -->

 <g>
  <title>background</title>
 </g>
 <g>
  <title>Layer 1</title>
  <g id="svg_5">
   <rect id="svg_4" fill="#FCCB6F" rx="26" height="52" width="226"/>
  </g>
  <g stroke="null" id="svg_10">
   <path stroke="null" id="svg_9" fill="#1A1C29" d="m75.025542,26.334506c0,1.157874 -0.193015,2.221075 -0.578937,3.189614c-0.385921,0.968572 -0.928484,1.802351 -1.627577,2.501444c-0.699094,0.699094 -1.540191,1.241656 -2.523269,1.627577c-0.9831,0.385921 -2.071797,0.578937 -3.266078,0.578937l-6.029682,0l0,-15.795145l6.029682,0c1.194281,0 2.282977,0.19662 3.266078,0.58986c0.983078,0.385954 1.824175,0.928484 2.523269,1.627577c0.699094,0.691808 1.241656,1.521981 1.627577,2.490521c0.385921,0.96854 0.578937,2.031741 0.578937,3.189614zm-3.003918,0c0,-0.866581 -0.116552,-1.642138 -0.349547,-2.326671c-0.232995,-0.691808 -0.564409,-1.274393 -0.994002,-1.747734c-0.429659,-0.480627 -0.953979,-0.848383 -1.572961,-1.103257c-0.611707,-0.254874 -1.303526,-0.382317 -2.075434,-0.382317l-3.069458,0l0,11.119957l3.069458,0c0.771909,0 1.463727,-0.127475 2.075434,-0.382317c0.618982,-0.254841 1.143302,-0.619026 1.572961,-1.092334c0.429593,-0.480627 0.761007,-1.063168 0.994002,-1.747734c0.232995,-0.691808 0.349547,-1.471013 0.349547,-2.337594zm11.023176,-3.484545c0.837492,0 1.594807,0.134718 2.272054,0.404163c0.684566,0.269446 1.267107,0.651763 1.747734,1.14695c0.480627,0.495188 0.85202,1.09962 1.11418,1.813274c0.26216,0.713654 0.39324,1.511058 0.39324,2.392211c0,0.888395 -0.13108,1.689513 -0.39324,2.403134c-0.26216,0.713622 -0.633554,1.321724 -1.11418,1.824197c-0.480627,0.502474 -1.063168,0.888395 -1.747734,1.157874c-0.677247,0.269479 -1.434562,0.404163 -2.272054,0.404163c-0.837383,0 -1.598412,-0.134685 -2.282977,-0.404163c-0.684456,-0.269479 -1.270712,-0.6554 -1.758657,-1.157874c-0.480627,-0.502474 -0.855625,-1.110576 -1.125104,-1.824197c-0.26216,-0.713622 -0.39324,-1.514739 -0.39324,-2.403134c0,-0.881153 0.13108,-1.678556 0.39324,-2.392211c0.269479,-0.713654 0.644477,-1.318086 1.125104,-1.813274c0.487945,-0.495188 1.074201,-0.877504 1.758657,-1.14695c0.684566,-0.269446 1.445594,-0.404163 2.282977,-0.404163zm0,9.470533c0.932198,0 1.620368,-0.313172 2.064511,-0.939407c0.451571,-0.626235 0.677247,-1.543795 0.677247,-2.752681c0,-1.208853 -0.225676,-2.130051 -0.677247,-2.763604c-0.444143,-0.633554 -1.132313,-0.95033 -2.064511,-0.95033c-0.946616,0 -1.64571,0.320414 -2.097281,0.961254c-0.451462,0.633554 -0.677247,1.551114 -0.677247,2.752681c0,1.201567 0.225785,2.119127 0.677247,2.752681c0.451571,0.626235 1.150664,0.939407 2.097281,0.939407zm7.359271,-9.29576l2.140974,0c0.203939,0 0.374998,0.047331 0.513397,0.142003c0.138399,0.094673 0.225785,0.214829 0.26216,0.36047l1.605731,5.985989c0.087387,0.3277 0.156531,0.648082 0.207543,0.961254c0.058221,0.313172 0.112838,0.626235 0.16385,0.939407c0.080068,-0.313172 0.16385,-0.626235 0.251237,-0.939407c0.094705,-0.313172 0.193015,-0.633554 0.29493,-0.961254l1.856967,-6.007835c0.043693,-0.145641 0.13108,-0.265798 0.26216,-0.36047c0.13108,-0.094673 0.284007,-0.142003 0.45878,-0.142003l1.190644,0c0.19662,0 0.36047,0.047331 0.49155,0.142003c0.13108,0.094673 0.218467,0.214829 0.26216,0.36047l1.835121,6.117069c0.094705,0.313172 0.178378,0.619026 0.251237,0.91756c0.080068,0.291325 0.156531,0.586255 0.22939,0.88479c0.051012,-0.313172 0.105629,-0.626235 0.16385,-0.939407c0.06554,-0.313172 0.145608,-0.637158 0.240313,-0.972177l1.660347,-5.985989c0.036375,-0.145641 0.123761,-0.265798 0.26216,-0.36047c0.138399,-0.094673 0.298535,-0.142003 0.480627,-0.142003l2.042664,0l-3.550085,11.207344l-2.173744,0c-0.232995,0 -0.400559,-0.160245 -0.502474,-0.480627l-2.020817,-6.477539c-0.06554,-0.211181 -0.127475,-0.422373 -0.185697,-0.633554c-0.051012,-0.218467 -0.094705,-0.433296 -0.13108,-0.644477c-0.043693,0.218467 -0.090991,0.436933 -0.142003,0.6554c-0.051012,0.211181 -0.109233,0.42601 -0.174773,0.644477l-2.042664,6.455692c-0.101915,0.320381 -0.298535,0.480627 -0.58986,0.480627l-2.064511,0l-3.550085,-11.207344zm19.738798,11.207344l0,-11.207344l1.649424,0c0.349547,0 0.578937,0.16385 0.68817,0.49155l0.185697,0.88479c0.225785,-0.233028 0.462494,-0.444219 0.710017,-0.633554c0.254951,-0.189334 0.520715,-0.353184 0.797404,-0.49155c0.284007,-0.138366 0.586255,-0.243951 0.906637,-0.316777c0.320491,-0.072826 0.670037,-0.109233 1.04864,-0.109233c0.611707,0 1.154269,0.105596 1.627577,0.316777c0.473417,0.203906 0.866658,0.495188 1.17972,0.873867c0.320491,0.371393 0.560804,0.81925 0.72094,1.34357c0.167564,0.517034 0.251237,1.088696 0.251237,1.714964l0,7.132939l-2.698064,0l0,-7.132939c0,-0.684533 -0.160136,-1.21249 -0.480627,-1.583884c-0.313063,-0.378679 -0.78648,-0.568014 -1.420034,-0.568014c-0.46599,0 -0.902923,0.105596 -1.3108,0.316777c-0.407768,0.211181 -0.79369,0.498836 -1.157874,0.862944l0,8.105116l-2.698064,0zm16.381947,-16.232079l0,16.232079l-2.698064,0l0,-16.232079l2.698064,0zm8.934962,4.849962c0.837492,0 1.594807,0.134718 2.272054,0.404163c0.684566,0.269446 1.267107,0.651763 1.747734,1.14695c0.480627,0.495188 0.85202,1.09962 1.11418,1.813274c0.26216,0.713654 0.39324,1.511058 0.39324,2.392211c0,0.888395 -0.13108,1.689513 -0.39324,2.403134c-0.26216,0.713622 -0.633554,1.321724 -1.11418,1.824197c-0.480627,0.502474 -1.063168,0.888395 -1.747734,1.157874c-0.677247,0.269479 -1.434562,0.404163 -2.272054,0.404163c-0.837492,0 -1.598412,-0.134685 -2.282977,-0.404163c-0.684566,-0.269479 -1.270712,-0.6554 -1.758657,-1.157874c-0.480627,-0.502474 -0.855625,-1.110576 -1.125104,-1.824197c-0.26216,-0.713622 -0.39324,-1.514739 -0.39324,-2.403134c0,-0.881153 0.13108,-1.678556 0.39324,-2.392211c0.269479,-0.713654 0.644477,-1.318086 1.125104,-1.813274c0.487945,-0.495188 1.074092,-0.877504 1.758657,-1.14695c0.684566,-0.269446 1.445485,-0.404163 2.282977,-0.404163zm0,9.470533c0.932088,0 1.620259,-0.313172 2.064511,-0.939407c0.451462,-0.626235 0.677247,-1.543795 0.677247,-2.752681c0,-1.208853 -0.225785,-2.130051 -0.677247,-2.763604c-0.444252,-0.633554 -1.132422,-0.95033 -2.064511,-0.95033c-0.946726,0 -1.645819,0.320414 -2.097281,0.961254c-0.451462,0.633554 -0.677247,1.551114 -0.677247,2.752681c0,1.201567 0.225785,2.119127 0.677247,2.752681c0.451462,0.626235 1.150555,0.939407 2.097281,0.939407zm17.507051,1.911584l-1.21249,0c-0.254841,0 -0.455175,-0.036375 -0.600784,-0.109233c-0.145608,-0.080068 -0.254841,-0.236709 -0.3277,-0.469703l-0.240313,-0.797404c-0.284007,0.254841 -0.564409,0.480627 -0.841097,0.677247c-0.269479,0.189301 -0.549772,0.349547 -0.841097,0.480627c-0.291325,0.13108 -0.600784,0.22939 -0.928484,0.29493c-0.3277,0.06554 -0.691775,0.09831 -1.092334,0.09831c-0.473308,0 -0.910242,-0.061935 -1.3108,-0.185697c-0.400559,-0.13108 -0.746392,-0.324095 -1.037717,-0.578937c-0.284007,-0.254841 -0.506078,-0.571618 -0.666324,-0.95033c-0.160245,-0.378712 -0.240313,-0.81925 -0.240313,-1.321724c0,-0.422405 0.109233,-0.837492 0.3277,-1.24526c0.225785,-0.415087 0.597179,-0.78648 1.11418,-1.11418c0.517002,-0.334986 1.205172,-0.611707 2.064511,-0.830174c0.859339,-0.218467 1.926112,-0.342261 3.200538,-0.371393l0,-0.6554c0,-0.750073 -0.160245,-1.303515 -0.480627,-1.660347c-0.313172,-0.364108 -0.771952,-0.546167 -1.37634,-0.546167c-0.436933,0 -0.801008,0.050979 -1.092334,0.152927c-0.291325,0.101948 -0.546167,0.218467 -0.764634,0.349547c-0.211148,0.123794 -0.407768,0.236676 -0.58986,0.338623c-0.182092,0.101948 -0.382317,0.152927 -0.600784,0.152927c-0.182092,0 -0.338623,-0.047331 -0.469703,-0.142003c-0.13108,-0.094673 -0.236709,-0.211181 -0.316777,-0.349547l-0.49155,-0.862944c1.288954,-1.17972 2.843672,-1.769581 4.664265,-1.769581c0.6554,0 1.237942,0.109233 1.747734,0.3277c0.517002,0.211181 0.953935,0.509759 1.3108,0.895714c0.356865,0.378679 0.626235,0.833811 0.808327,1.365417c0.189301,0.531606 0.284007,1.11418 0.284007,1.747734l0,7.078322zm-5.243202,-1.682194c0.276688,0 0.531639,-0.025451 0.764634,-0.076463c0.232995,-0.051012 0.451462,-0.127475 0.6554,-0.22939c0.211148,-0.101915 0.411482,-0.225785 0.600784,-0.371393c0.19662,-0.152927 0.39324,-0.331305 0.58986,-0.535244l0,-1.889737c-0.78648,0.036375 -1.445485,0.105629 -1.977124,0.207543c-0.52432,0.094705 -0.946726,0.218467 -1.267107,0.371393c-0.320381,0.152927 -0.549772,0.331305 -0.68817,0.535244c-0.13108,0.203939 -0.19662,0.42601 -0.19662,0.666324c0,0.473308 0.138399,0.811932 0.415087,1.01587c0.284007,0.203939 0.651796,0.305853 1.103257,0.305853zm16.875136,1.682194c-0.349547,0 -0.578937,-0.16385 -0.68817,-0.49155l-0.218467,-1.08141c-0.232995,0.26216 -0.476913,0.498869 -0.731864,0.710017c-0.254841,0.211148 -0.53153,0.39324 -0.830174,0.546167c-0.291216,0.152927 -0.607993,0.269479 -0.95033,0.349547c-0.33491,0.087387 -0.699094,0.13108 -1.092334,0.13108c-0.611707,0 -1.172402,-0.127475 -1.682194,-0.382317c-0.509683,-0.254841 -0.95033,-0.62263 -1.321724,-1.103257c-0.364075,-0.487945 -0.648082,-1.088729 -0.85202,-1.802351c-0.19662,-0.713622 -0.29493,-1.529267 -0.29493,-2.446827c0,-0.830174 0.112947,-1.602093 0.338623,-2.315747c0.225785,-0.713654 0.549881,-1.332647 0.972177,-1.856967c0.422405,-0.52432 0.928484,-0.932121 1.518344,-1.223414c0.58986,-0.298568 1.252579,-0.447857 1.988047,-0.447857c0.626344,0 1.161588,0.101948 1.605731,0.305853c0.444252,0.19662 0.841097,0.462418 1.190644,0.797404l0,-5.920449l2.698064,0l0,16.232079l-1.649424,0zm-3.593778,-1.977124c0.560804,0 1.037717,-0.116552 1.430957,-0.349547c0.39324,-0.232995 0.764634,-0.564409 1.11418,-0.994024l0,-5.024735c-0.305853,-0.371393 -0.640763,-0.633554 -1.004947,-0.78648c-0.356756,-0.152927 -0.742787,-0.22939 -1.157874,-0.22939c-0.407768,0 -0.779162,0.076463 -1.11418,0.22939c-0.3277,0.152927 -0.607993,0.385954 -0.841097,0.699094c-0.225676,0.305853 -0.40045,0.699094 -0.52432,1.17972c-0.123761,0.473341 -0.185697,1.03408 -0.185697,1.682194c0,0.6554 0.051012,1.21249 0.152927,1.671271c0.109233,0.451462 0.26216,0.822855 0.45878,1.11418c0.19662,0.284007 0.436933,0.49155 0.72094,0.62263c0.284007,0.123761 0.600784,0.185697 0.95033,0.185697z"/>
  </g>
 </g>
</svg>