<svg width="212" height="52" viewBox="0 0 212 52" fill="none" xmlns="http://www.w3.org/2000/svg">
<rect width="212" height="52" rx="26" fill="#FCCB6F"/>
<path d="M19.1981 20.54C19.3181 20.54 19.4181 20.5467 19.4981 20.56C19.5781 20.5667 19.6481 20.5867 19.7081 20.62C19.7748 20.6467 19.8381 20.69 19.8981 20.75C19.9581 20.8033 20.0248 20.8767 20.0981 20.97L27.6881 30.64C27.6615 30.4067 27.6415 30.18 27.6281 29.96C27.6215 29.7333 27.6181 29.5233 27.6181 29.33V20.54H29.9881V35H28.5981C28.3848 35 28.2081 34.9667 28.0681 34.9C27.9281 34.8333 27.7915 34.7133 27.6581 34.54L20.0981 24.91C20.1181 25.1233 20.1315 25.3367 20.1381 25.55C20.1515 25.7567 20.1581 25.9467 20.1581 26.12V35H17.7881V20.54H19.1981ZM38.1453 24.58C38.912 24.58 39.6053 24.7033 40.2253 24.95C40.852 25.1967 41.3853 25.5467 41.8253 26C42.2653 26.4533 42.6053 27.0067 42.8453 27.66C43.0853 28.3133 43.2053 29.0433 43.2053 29.85C43.2053 30.6633 43.0853 31.3967 42.8453 32.05C42.6053 32.7033 42.2653 33.26 41.8253 33.72C41.3853 34.18 40.852 34.5333 40.2253 34.78C39.6053 35.0267 38.912 35.15 38.1453 35.15C37.3786 35.15 36.682 35.0267 36.0553 34.78C35.4286 34.5333 34.892 34.18 34.4453 33.72C34.0053 33.26 33.662 32.7033 33.4153 32.05C33.1753 31.3967 33.0553 30.6633 33.0553 29.85C33.0553 29.0433 33.1753 28.3133 33.4153 27.66C33.662 27.0067 34.0053 26.4533 34.4453 26C34.892 25.5467 35.4286 25.1967 36.0553 24.95C36.682 24.7033 37.3786 24.58 38.1453 24.58ZM38.1453 33.25C38.9986 33.25 39.6286 32.9633 40.0353 32.39C40.4486 31.8167 40.6553 30.9767 40.6553 29.87C40.6553 28.7633 40.4486 27.92 40.0353 27.34C39.6286 26.76 38.9986 26.47 38.1453 26.47C37.2786 26.47 36.6386 26.7633 36.2253 27.35C35.812 27.93 35.6053 28.77 35.6053 29.87C35.6053 30.97 35.812 31.81 36.2253 32.39C36.6386 32.9633 37.2786 33.25 38.1453 33.25ZM46.1325 35V24.74H47.6425C47.9625 24.74 48.1725 24.89 48.2725 25.19L48.4325 25.95C48.6125 25.75 48.7992 25.5667 48.9925 25.4C49.1925 25.2333 49.4025 25.09 49.6225 24.97C49.8492 24.85 50.0892 24.7567 50.3425 24.69C50.6025 24.6167 50.8858 24.58 51.1925 24.58C51.8392 24.58 52.3692 24.7567 52.7825 25.11C53.2025 25.4567 53.5158 25.92 53.7225 26.5C53.8825 26.16 54.0825 25.87 54.3225 25.63C54.5625 25.3833 54.8258 25.1833 55.1125 25.03C55.3992 24.8767 55.7025 24.7633 56.0225 24.69C56.3492 24.6167 56.6758 24.58 57.0025 24.58C57.5692 24.58 58.0725 24.6667 58.5125 24.84C58.9525 25.0133 59.3225 25.2667 59.6225 25.6C59.9225 25.9333 60.1492 26.34 60.3025 26.82C60.4625 27.3 60.5425 27.85 60.5425 28.47V35H58.0725V28.47C58.0725 27.8167 57.9292 27.3267 57.6425 27C57.3558 26.6667 56.9358 26.5 56.3825 26.5C56.1292 26.5 55.8925 26.5433 55.6725 26.63C55.4592 26.7167 55.2692 26.8433 55.1025 27.01C54.9425 27.17 54.8158 27.3733 54.7225 27.62C54.6292 27.8667 54.5825 28.15 54.5825 28.47V35H52.1025V28.47C52.1025 27.7833 51.9625 27.2833 51.6825 26.97C51.4092 26.6567 51.0025 26.5 50.4625 26.5C50.1092 26.5 49.7758 26.59 49.4625 26.77C49.1558 26.9433 48.8692 27.1833 48.6025 27.49V35H46.1325ZM66.5984 24.74V35H64.1284V24.74H66.5984ZM66.9684 21.75C66.9684 21.9633 66.9251 22.1633 66.8384 22.35C66.7518 22.5367 66.6351 22.7 66.4884 22.84C66.3484 22.98 66.1818 23.0933 65.9884 23.18C65.7951 23.26 65.5884 23.3 65.3684 23.3C65.1551 23.3 64.9518 23.26 64.7584 23.18C64.5718 23.0933 64.4084 22.98 64.2684 22.84C64.1284 22.7 64.0151 22.5367 63.9284 22.35C63.8484 22.1633 63.8084 21.9633 63.8084 21.75C63.8084 21.53 63.8484 21.3233 63.9284 21.13C64.0151 20.9367 64.1284 20.77 64.2684 20.63C64.4084 20.49 64.5718 20.38 64.7584 20.3C64.9518 20.2133 65.1551 20.17 65.3684 20.17C65.5884 20.17 65.7951 20.2133 65.9884 20.3C66.1818 20.38 66.3484 20.49 66.4884 20.63C66.6351 20.77 66.7518 20.9367 66.8384 21.13C66.9251 21.3233 66.9684 21.53 66.9684 21.75ZM70.3981 35V24.74H71.9081C72.2281 24.74 72.4381 24.89 72.5381 25.19L72.7081 26C72.9148 25.7867 73.1315 25.5933 73.3581 25.42C73.5915 25.2467 73.8348 25.0967 74.0881 24.97C74.3481 24.8433 74.6248 24.7467 74.9181 24.68C75.2115 24.6133 75.5315 24.58 75.8781 24.58C76.4381 24.58 76.9348 24.6767 77.3681 24.87C77.8015 25.0567 78.1615 25.3233 78.4481 25.67C78.7415 26.01 78.9615 26.42 79.1081 26.9C79.2615 27.3733 79.3381 27.8967 79.3381 28.47V35H76.8681V28.47C76.8681 27.8433 76.7215 27.36 76.4281 27.02C76.1415 26.6733 75.7081 26.5 75.1281 26.5C74.7015 26.5 74.3015 26.5967 73.9281 26.79C73.5548 26.9833 73.2015 27.2467 72.8681 27.58V35H70.3981ZM90.8053 35H89.6953C89.462 35 89.2786 34.9667 89.1453 34.9C89.012 34.8267 88.912 34.6833 88.8453 34.47L88.6253 33.74C88.3653 33.9733 88.1086 34.18 87.8553 34.36C87.6086 34.5333 87.352 34.68 87.0853 34.8C86.8186 34.92 86.5353 35.01 86.2353 35.07C85.9353 35.13 85.602 35.16 85.2353 35.16C84.802 35.16 84.402 35.1033 84.0353 34.99C83.6686 34.87 83.352 34.6933 83.0853 34.46C82.8253 34.2267 82.622 33.9367 82.4753 33.59C82.3286 33.2433 82.2553 32.84 82.2553 32.38C82.2553 31.9933 82.3553 31.6133 82.5553 31.24C82.762 30.86 83.102 30.52 83.5753 30.22C84.0486 29.9133 84.6786 29.66 85.4653 29.46C86.252 29.26 87.2286 29.1467 88.3953 29.12V28.52C88.3953 27.8333 88.2486 27.3267 87.9553 27C87.6686 26.6667 87.2486 26.5 86.6953 26.5C86.2953 26.5 85.962 26.5467 85.6953 26.64C85.4286 26.7333 85.1953 26.84 84.9953 26.96C84.802 27.0733 84.622 27.1767 84.4553 27.27C84.2886 27.3633 84.1053 27.41 83.9053 27.41C83.7386 27.41 83.5953 27.3667 83.4753 27.28C83.3553 27.1933 83.2586 27.0867 83.1853 26.96L82.7353 26.17C83.9153 25.09 85.3386 24.55 87.0053 24.55C87.6053 24.55 88.1386 24.65 88.6053 24.85C89.0786 25.0433 89.4786 25.3167 89.8053 25.67C90.132 26.0167 90.3786 26.4333 90.5453 26.92C90.7186 27.4067 90.8053 27.94 90.8053 28.52V35ZM86.0053 33.46C86.2586 33.46 86.492 33.4367 86.7053 33.39C86.9186 33.3433 87.1186 33.2733 87.3053 33.18C87.4986 33.0867 87.682 32.9733 87.8553 32.84C88.0353 32.7 88.2153 32.5367 88.3953 32.35V30.62C87.6753 30.6533 87.072 30.7167 86.5853 30.81C86.1053 30.8967 85.7186 31.01 85.4253 31.15C85.132 31.29 84.922 31.4533 84.7953 31.64C84.6753 31.8267 84.6153 32.03 84.6153 32.25C84.6153 32.6833 84.742 32.9933 84.9953 33.18C85.2553 33.3667 85.592 33.46 86.0053 33.46ZM97.6041 35.16C96.7174 35.16 96.0341 34.91 95.5541 34.41C95.0741 33.9033 94.8341 33.2067 94.8341 32.32V26.59H93.7941C93.6607 26.59 93.5441 26.5467 93.4441 26.46C93.3507 26.3733 93.3041 26.2433 93.3041 26.07V25.09L94.9541 24.82L95.4741 22.02C95.5007 21.8867 95.5607 21.7833 95.6541 21.71C95.7541 21.6367 95.8774 21.6 96.0241 21.6H97.3041V24.83H100.004V26.59H97.3041V32.15C97.3041 32.47 97.3841 32.72 97.5441 32.9C97.7041 33.08 97.9174 33.17 98.1841 33.17C98.3374 33.17 98.4641 33.1533 98.5641 33.12C98.6707 33.08 98.7607 33.04 98.8341 33C98.9141 32.96 98.9841 32.9233 99.0441 32.89C99.1041 32.85 99.1641 32.83 99.2241 32.83C99.2974 32.83 99.3574 32.85 99.4041 32.89C99.4507 32.9233 99.5007 32.9767 99.5541 33.05L100.294 34.25C99.9341 34.55 99.5207 34.7767 99.0541 34.93C98.5874 35.0833 98.1041 35.16 97.6041 35.16ZM107.208 24.58C107.855 24.58 108.448 24.6833 108.988 24.89C109.535 25.0967 110.005 25.4 110.398 25.8C110.792 26.1933 111.098 26.68 111.318 27.26C111.538 27.8333 111.648 28.49 111.648 29.23C111.648 29.4167 111.638 29.5733 111.618 29.7C111.605 29.82 111.575 29.9167 111.528 29.99C111.488 30.0567 111.432 30.1067 111.358 30.14C111.285 30.1667 111.192 30.18 111.078 30.18H104.738C104.812 31.2333 105.095 32.0067 105.588 32.5C106.082 32.9933 106.735 33.24 107.548 33.24C107.948 33.24 108.292 33.1933 108.578 33.1C108.872 33.0067 109.125 32.9033 109.338 32.79C109.558 32.6767 109.748 32.5733 109.908 32.48C110.075 32.3867 110.235 32.34 110.388 32.34C110.488 32.34 110.575 32.36 110.648 32.4C110.722 32.44 110.785 32.4967 110.838 32.57L111.558 33.47C111.285 33.79 110.978 34.06 110.638 34.28C110.298 34.4933 109.942 34.6667 109.568 34.8C109.202 34.9267 108.825 35.0167 108.438 35.07C108.058 35.1233 107.688 35.15 107.328 35.15C106.615 35.15 105.952 35.0333 105.338 34.8C104.725 34.56 104.192 34.21 103.738 33.75C103.285 33.2833 102.928 32.71 102.668 32.03C102.408 31.3433 102.278 30.55 102.278 29.65C102.278 28.95 102.392 28.2933 102.618 27.68C102.845 27.06 103.168 26.5233 103.588 26.07C104.015 25.61 104.532 25.2467 105.138 24.98C105.752 24.7133 106.442 24.58 107.208 24.58ZM107.258 26.35C106.538 26.35 105.975 26.5533 105.568 26.96C105.162 27.3667 104.902 27.9433 104.788 28.69H109.428C109.428 28.37 109.385 28.07 109.298 27.79C109.212 27.5033 109.078 27.2533 108.898 27.04C108.718 26.8267 108.492 26.66 108.218 26.54C107.945 26.4133 107.625 26.35 107.258 26.35ZM127.559 35H126.449C126.216 35 126.033 34.9667 125.899 34.9C125.766 34.8267 125.666 34.6833 125.599 34.47L125.379 33.74C125.119 33.9733 124.863 34.18 124.609 34.36C124.363 34.5333 124.106 34.68 123.839 34.8C123.573 34.92 123.289 35.01 122.989 35.07C122.689 35.13 122.356 35.16 121.989 35.16C121.556 35.16 121.156 35.1033 120.789 34.99C120.423 34.87 120.106 34.6933 119.839 34.46C119.579 34.2267 119.376 33.9367 119.229 33.59C119.083 33.2433 119.009 32.84 119.009 32.38C119.009 31.9933 119.109 31.6133 119.309 31.24C119.516 30.86 119.856 30.52 120.329 30.22C120.803 29.9133 121.433 29.66 122.219 29.46C123.006 29.26 123.983 29.1467 125.149 29.12V28.52C125.149 27.8333 125.003 27.3267 124.709 27C124.423 26.6667 124.003 26.5 123.449 26.5C123.049 26.5 122.716 26.5467 122.449 26.64C122.183 26.7333 121.949 26.84 121.749 26.96C121.556 27.0733 121.376 27.1767 121.209 27.27C121.043 27.3633 120.859 27.41 120.659 27.41C120.493 27.41 120.349 27.3667 120.229 27.28C120.109 27.1933 120.013 27.0867 119.939 26.96L119.489 26.17C120.669 25.09 122.093 24.55 123.759 24.55C124.359 24.55 124.893 24.65 125.359 24.85C125.833 25.0433 126.233 25.3167 126.559 25.67C126.886 26.0167 127.133 26.4333 127.299 26.92C127.473 27.4067 127.559 27.94 127.559 28.52V35ZM122.759 33.46C123.013 33.46 123.246 33.4367 123.459 33.39C123.673 33.3433 123.873 33.2733 124.059 33.18C124.253 33.0867 124.436 32.9733 124.609 32.84C124.789 32.7 124.969 32.5367 125.149 32.35V30.62C124.429 30.6533 123.826 30.7167 123.339 30.81C122.859 30.8967 122.473 31.01 122.179 31.15C121.886 31.29 121.676 31.4533 121.549 31.64C121.429 31.8267 121.369 32.03 121.369 32.25C121.369 32.6833 121.496 32.9933 121.749 33.18C122.009 33.3667 122.346 33.46 122.759 33.46ZM139.225 35.16C138.338 35.16 137.655 34.91 137.175 34.41C136.695 33.9033 136.455 33.2067 136.455 32.32V26.59H135.415C135.282 26.59 135.165 26.5467 135.065 26.46C134.972 26.3733 134.925 26.2433 134.925 26.07V25.09L136.575 24.82L137.095 22.02C137.122 21.8867 137.182 21.7833 137.275 21.71C137.375 21.6367 137.498 21.6 137.645 21.6H138.925V24.83H141.625V26.59H138.925V32.15C138.925 32.47 139.005 32.72 139.165 32.9C139.325 33.08 139.538 33.17 139.805 33.17C139.958 33.17 140.085 33.1533 140.185 33.12C140.292 33.08 140.382 33.04 140.455 33C140.535 32.96 140.605 32.9233 140.665 32.89C140.725 32.85 140.785 32.83 140.845 32.83C140.918 32.83 140.978 32.85 141.025 32.89C141.072 32.9233 141.122 32.9767 141.175 33.05L141.915 34.25C141.555 34.55 141.142 34.7767 140.675 34.93C140.208 35.0833 139.725 35.16 139.225 35.16ZM152.63 35H151.52C151.286 35 151.103 34.9667 150.97 34.9C150.836 34.8267 150.736 34.6833 150.67 34.47L150.45 33.74C150.19 33.9733 149.933 34.18 149.68 34.36C149.433 34.5333 149.176 34.68 148.91 34.8C148.643 34.92 148.36 35.01 148.06 35.07C147.76 35.13 147.426 35.16 147.06 35.16C146.626 35.16 146.226 35.1033 145.86 34.99C145.493 34.87 145.176 34.6933 144.91 34.46C144.65 34.2267 144.446 33.9367 144.3 33.59C144.153 33.2433 144.08 32.84 144.08 32.38C144.08 31.9933 144.18 31.6133 144.38 31.24C144.586 30.86 144.926 30.52 145.4 30.22C145.873 29.9133 146.503 29.66 147.29 29.46C148.076 29.26 149.053 29.1467 150.22 29.12V28.52C150.22 27.8333 150.073 27.3267 149.78 27C149.493 26.6667 149.073 26.5 148.52 26.5C148.12 26.5 147.786 26.5467 147.52 26.64C147.253 26.7333 147.02 26.84 146.82 26.96C146.626 27.0733 146.446 27.1767 146.28 27.27C146.113 27.3633 145.93 27.41 145.73 27.41C145.563 27.41 145.42 27.3667 145.3 27.28C145.18 27.1933 145.083 27.0867 145.01 26.96L144.56 26.17C145.74 25.09 147.163 24.55 148.83 24.55C149.43 24.55 149.963 24.65 150.43 24.85C150.903 25.0433 151.303 25.3167 151.63 25.67C151.956 26.0167 152.203 26.4333 152.37 26.92C152.543 27.4067 152.63 27.94 152.63 28.52V35ZM147.83 33.46C148.083 33.46 148.316 33.4367 148.53 33.39C148.743 33.3433 148.943 33.2733 149.13 33.18C149.323 33.0867 149.506 32.9733 149.68 32.84C149.86 32.7 150.04 32.5367 150.22 32.35V30.62C149.5 30.6533 148.896 30.7167 148.41 30.81C147.93 30.8967 147.543 31.01 147.25 31.15C146.956 31.29 146.746 31.4533 146.62 31.64C146.5 31.8267 146.44 32.03 146.44 32.25C146.44 32.6833 146.566 32.9933 146.82 33.18C147.08 33.3667 147.416 33.46 147.83 33.46ZM156.058 35V24.74H157.508C157.762 24.74 157.938 24.7867 158.038 24.88C158.138 24.9733 158.205 25.1333 158.238 25.36L158.388 26.6C158.755 25.9667 159.185 25.4667 159.678 25.1C160.172 24.7333 160.725 24.55 161.338 24.55C161.845 24.55 162.265 24.6667 162.598 24.9L162.278 26.75C162.258 26.87 162.215 26.9567 162.148 27.01C162.082 27.0567 161.992 27.08 161.878 27.08C161.778 27.08 161.642 27.0567 161.468 27.01C161.295 26.9633 161.065 26.94 160.778 26.94C160.265 26.94 159.825 27.0833 159.458 27.37C159.092 27.65 158.782 28.0633 158.528 28.61V35H156.058ZM168.772 24.56C169.212 24.56 169.626 24.6067 170.012 24.7C170.399 24.7867 170.752 24.9167 171.072 25.09H174.022V26.01C174.022 26.1633 173.982 26.2833 173.902 26.37C173.822 26.4567 173.686 26.5167 173.492 26.55L172.572 26.72C172.639 26.8933 172.689 27.0767 172.722 27.27C172.762 27.4633 172.782 27.6667 172.782 27.88C172.782 28.3867 172.679 28.8467 172.472 29.26C172.272 29.6667 171.992 30.0133 171.632 30.3C171.279 30.5867 170.856 30.81 170.362 30.97C169.876 31.1233 169.346 31.2 168.772 31.2C168.386 31.2 168.009 31.1633 167.642 31.09C167.322 31.2833 167.162 31.5 167.162 31.74C167.162 31.9467 167.256 32.1 167.442 32.2C167.636 32.2933 167.886 32.36 168.192 32.4C168.506 32.44 168.859 32.4667 169.252 32.48C169.646 32.4867 170.049 32.5067 170.462 32.54C170.876 32.5733 171.279 32.6333 171.672 32.72C172.066 32.8 172.416 32.93 172.722 33.11C173.036 33.29 173.286 33.5367 173.472 33.85C173.666 34.1567 173.762 34.5533 173.762 35.04C173.762 35.4933 173.649 35.9333 173.422 36.36C173.202 36.7867 172.879 37.1667 172.452 37.5C172.032 37.8333 171.516 38.1 170.902 38.3C170.289 38.5067 169.589 38.61 168.802 38.61C168.022 38.61 167.346 38.5333 166.772 38.38C166.199 38.2333 165.722 38.0333 165.342 37.78C164.969 37.5333 164.689 37.2467 164.502 36.92C164.316 36.5933 164.222 36.2533 164.222 35.9C164.222 35.42 164.369 35.0167 164.662 34.69C164.956 34.3633 165.362 34.1033 165.882 33.91C165.629 33.77 165.426 33.5833 165.272 33.35C165.119 33.1167 165.042 32.8133 165.042 32.44C165.042 32.2867 165.069 32.13 165.122 31.97C165.176 31.8033 165.256 31.64 165.362 31.48C165.476 31.32 165.616 31.17 165.782 31.03C165.949 30.8833 166.146 30.7533 166.372 30.64C165.852 30.36 165.442 29.9867 165.142 29.52C164.849 29.0533 164.702 28.5067 164.702 27.88C164.702 27.3733 164.802 26.9167 165.002 26.51C165.209 26.0967 165.492 25.7467 165.852 25.46C166.219 25.1667 166.649 24.9433 167.142 24.79C167.642 24.6367 168.186 24.56 168.772 24.56ZM171.482 35.46C171.482 35.26 171.422 35.0967 171.302 34.97C171.182 34.8433 171.019 34.7467 170.812 34.68C170.606 34.6067 170.362 34.5533 170.082 34.52C169.809 34.4867 169.516 34.4633 169.202 34.45C168.896 34.43 168.576 34.4133 168.242 34.4C167.916 34.38 167.599 34.35 167.292 34.31C167.012 34.4633 166.786 34.6467 166.612 34.86C166.446 35.0667 166.362 35.3067 166.362 35.58C166.362 35.76 166.406 35.9267 166.492 36.08C166.586 36.24 166.729 36.3767 166.922 36.49C167.122 36.6033 167.379 36.69 167.692 36.75C168.006 36.8167 168.389 36.85 168.842 36.85C169.302 36.85 169.699 36.8133 170.032 36.74C170.366 36.6733 170.639 36.5767 170.852 36.45C171.072 36.33 171.232 36.1833 171.332 36.01C171.432 35.8433 171.482 35.66 171.482 35.46ZM168.772 29.62C169.079 29.62 169.346 29.58 169.572 29.5C169.799 29.4133 169.986 29.2967 170.132 29.15C170.286 29.0033 170.399 28.8267 170.472 28.62C170.552 28.4133 170.592 28.1867 170.592 27.94C170.592 27.4333 170.439 27.0333 170.132 26.74C169.832 26.44 169.379 26.29 168.772 26.29C168.166 26.29 167.709 26.44 167.402 26.74C167.102 27.0333 166.952 27.4333 166.952 27.94C166.952 28.18 166.989 28.4033 167.062 28.61C167.142 28.8167 167.256 28.9967 167.402 29.15C167.556 29.2967 167.746 29.4133 167.972 29.5C168.206 29.58 168.472 29.62 168.772 29.62ZM180.814 24.58C181.461 24.58 182.054 24.6833 182.594 24.89C183.141 25.0967 183.611 25.4 184.004 25.8C184.397 26.1933 184.704 26.68 184.924 27.26C185.144 27.8333 185.254 28.49 185.254 29.23C185.254 29.4167 185.244 29.5733 185.224 29.7C185.211 29.82 185.181 29.9167 185.134 29.99C185.094 30.0567 185.037 30.1067 184.964 30.14C184.891 30.1667 184.797 30.18 184.684 30.18H178.344C178.417 31.2333 178.701 32.0067 179.194 32.5C179.687 32.9933 180.341 33.24 181.154 33.24C181.554 33.24 181.897 33.1933 182.184 33.1C182.477 33.0067 182.731 32.9033 182.944 32.79C183.164 32.6767 183.354 32.5733 183.514 32.48C183.681 32.3867 183.841 32.34 183.994 32.34C184.094 32.34 184.181 32.36 184.254 32.4C184.327 32.44 184.391 32.4967 184.444 32.57L185.164 33.47C184.891 33.79 184.584 34.06 184.244 34.28C183.904 34.4933 183.547 34.6667 183.174 34.8C182.807 34.9267 182.431 35.0167 182.044 35.07C181.664 35.1233 181.294 35.15 180.934 35.15C180.221 35.15 179.557 35.0333 178.944 34.8C178.331 34.56 177.797 34.21 177.344 33.75C176.891 33.2833 176.534 32.71 176.274 32.03C176.014 31.3433 175.884 30.55 175.884 29.65C175.884 28.95 175.997 28.2933 176.224 27.68C176.451 27.06 176.774 26.5233 177.194 26.07C177.621 25.61 178.137 25.2467 178.744 24.98C179.357 24.7133 180.047 24.58 180.814 24.58ZM180.864 26.35C180.144 26.35 179.581 26.5533 179.174 26.96C178.767 27.3667 178.507 27.9433 178.394 28.69H183.034C183.034 28.37 182.991 28.07 182.904 27.79C182.817 27.5033 182.684 27.2533 182.504 27.04C182.324 26.8267 182.097 26.66 181.824 26.54C181.551 26.4133 181.231 26.35 180.864 26.35ZM191.628 35.16C190.741 35.16 190.058 34.91 189.577 34.41C189.098 33.9033 188.858 33.2067 188.858 32.32V26.59H187.818C187.684 26.59 187.568 26.5467 187.468 26.46C187.374 26.3733 187.328 26.2433 187.328 26.07V25.09L188.978 24.82L189.498 22.02C189.524 21.8867 189.584 21.7833 189.678 21.71C189.778 21.6367 189.901 21.6 190.048 21.6H191.328V24.83H194.028V26.59H191.328V32.15C191.328 32.47 191.408 32.72 191.568 32.9C191.728 33.08 191.941 33.17 192.208 33.17C192.361 33.17 192.488 33.1533 192.587 33.12C192.694 33.08 192.784 33.04 192.858 33C192.938 32.96 193.008 32.9233 193.068 32.89C193.128 32.85 193.188 32.83 193.248 32.83C193.321 32.83 193.381 32.85 193.428 32.89C193.474 32.9233 193.524 32.9767 193.578 33.05L194.318 34.25C193.958 34.55 193.544 34.7767 193.078 34.93C192.611 35.0833 192.128 35.16 191.628 35.16Z" fill="#24334F"/>
</svg>
