<svg width="212" height="63" viewBox="0 0 212 63" fill="none" xmlns="http://www.w3.org/2000/svg">
<rect width="212" height="63" rx="31.5" fill="#FCCB6F"/>
<path d="M45.963 23.986V37H44.721C44.529 37 44.367 36.97 44.235 36.91C44.109 36.844 43.986 36.736 43.866 36.586L37.071 27.91C37.107 28.306 37.125 28.672 37.125 29.008V37H34.992V23.986H36.261C36.363 23.986 36.45 23.992 36.522 24.004C36.6 24.01 36.666 24.028 36.72 24.058C36.78 24.082 36.837 24.121 36.891 24.175C36.945 24.223 37.005 24.289 37.071 24.373L43.893 33.085C43.875 32.875 43.86 32.668 43.848 32.464C43.836 32.26 43.83 32.071 43.83 31.897V23.986H45.963ZM52.3149 27.622C52.9989 27.622 53.6199 27.733 54.1779 27.955C54.7419 28.177 55.2219 28.492 55.6179 28.9C56.0199 29.308 56.3289 29.806 56.5449 30.394C56.7609 30.982 56.8689 31.639 56.8689 32.365C56.8689 33.097 56.7609 33.757 56.5449 34.345C56.3289 34.933 56.0199 35.434 55.6179 35.848C55.2219 36.262 54.7419 36.58 54.1779 36.802C53.6199 37.024 52.9989 37.135 52.3149 37.135C51.6249 37.135 50.9979 37.024 50.4339 36.802C49.8699 36.58 49.3869 36.262 48.9849 35.848C48.5889 35.434 48.2799 34.933 48.0579 34.345C47.8419 33.757 47.7339 33.097 47.7339 32.365C47.7339 31.639 47.8419 30.982 48.0579 30.394C48.2799 29.806 48.5889 29.308 48.9849 28.9C49.3869 28.492 49.8699 28.177 50.4339 27.955C50.9979 27.733 51.6249 27.622 52.3149 27.622ZM52.3149 35.425C53.0829 35.425 53.6499 35.167 54.0159 34.651C54.3879 34.135 54.5739 33.379 54.5739 32.383C54.5739 31.387 54.3879 30.628 54.0159 30.106C53.6499 29.584 53.0829 29.323 52.3149 29.323C51.5349 29.323 50.9559 29.587 50.5779 30.115C50.2059 30.637 50.0199 31.393 50.0199 32.383C50.0199 33.373 50.2059 34.129 50.5779 34.651C50.9559 35.167 51.5349 35.425 52.3149 35.425ZM58.5648 37V27.766H59.9238C60.2118 27.766 60.4008 27.901 60.4908 28.171L60.6348 28.855C60.7968 28.675 60.9648 28.51 61.1388 28.36C61.3188 28.21 61.5078 28.081 61.7058 27.973C61.9098 27.865 62.1258 27.781 62.3538 27.721C62.5878 27.655 62.8428 27.622 63.1188 27.622C63.7008 27.622 64.1778 27.781 64.5498 28.099C64.9278 28.411 65.2098 28.828 65.3958 29.35C65.5398 29.044 65.7198 28.783 65.9358 28.567C66.1518 28.345 66.3888 28.165 66.6468 28.027C66.9048 27.889 67.1778 27.787 67.4658 27.721C67.7598 27.655 68.0538 27.622 68.3478 27.622C68.8578 27.622 69.3108 27.7 69.7068 27.856C70.1028 28.012 70.4358 28.24 70.7058 28.54C70.9758 28.84 71.1798 29.206 71.3178 29.638C71.4618 30.07 71.5338 30.565 71.5338 31.123V37H69.3108V31.123C69.3108 30.535 69.1818 30.094 68.9238 29.8C68.6658 29.5 68.2878 29.35 67.7898 29.35C67.5618 29.35 67.3488 29.389 67.1508 29.467C66.9588 29.545 66.7878 29.659 66.6378 29.809C66.4938 29.953 66.3798 30.136 66.2958 30.358C66.2118 30.58 66.1698 30.835 66.1698 31.123V37H63.9378V31.123C63.9378 30.505 63.8118 30.055 63.5598 29.773C63.3138 29.491 62.9508 29.35 62.4708 29.35C62.1468 29.35 61.8438 29.431 61.5618 29.593C61.2858 29.749 61.0278 29.965 60.7878 30.241V37H58.5648ZM75.9508 27.766V37H73.7188V27.766H75.9508ZM76.2568 25.075C76.2568 25.267 76.2178 25.447 76.1398 25.615C76.0618 25.783 75.9568 25.93 75.8248 26.056C75.6988 26.182 75.5488 26.284 75.3748 26.362C75.2008 26.434 75.0148 26.47 74.8168 26.47C74.6248 26.47 74.4418 26.434 74.2678 26.362C74.0998 26.284 73.9528 26.182 73.8268 26.056C73.7008 25.93 73.5988 25.783 73.5208 25.615C73.4488 25.447 73.4128 25.267 73.4128 25.075C73.4128 24.877 73.4488 24.691 73.5208 24.517C73.5988 24.343 73.7008 24.193 73.8268 24.067C73.9528 23.941 74.0998 23.842 74.2678 23.77C74.4418 23.692 74.6248 23.653 74.8168 23.653C75.0148 23.653 75.2008 23.692 75.3748 23.77C75.5488 23.842 75.6988 23.941 75.8248 24.067C75.9568 24.193 76.0618 24.343 76.1398 24.517C76.2178 24.691 76.2568 24.877 76.2568 25.075ZM80.2961 28.9C80.4821 28.714 80.6771 28.543 80.8811 28.387C81.0911 28.225 81.3101 28.09 81.5381 27.982C81.7721 27.868 82.0211 27.781 82.2851 27.721C82.5491 27.655 82.8371 27.622 83.1491 27.622C83.6531 27.622 84.1001 27.709 84.4901 27.883C84.8801 28.051 85.2041 28.291 85.4621 28.603C85.7261 28.909 85.9241 29.278 86.0561 29.71C86.1941 30.136 86.2631 30.607 86.2631 31.123V37H84.0401V31.123C84.0401 30.559 83.9111 30.124 83.6531 29.818C83.3951 29.506 83.0021 29.35 82.4741 29.35C82.0901 29.35 81.7301 29.437 81.3941 29.611C81.0581 29.785 80.7401 30.022 80.4401 30.322V37H78.2171V27.766H79.5761C79.8641 27.766 80.0531 27.901 80.1431 28.171L80.2961 28.9ZM93.2553 33.058C92.6133 33.088 92.0733 33.145 91.6353 33.229C91.1973 33.307 90.8463 33.409 90.5823 33.535C90.3183 33.661 90.1293 33.808 90.0153 33.976C89.9013 34.144 89.8443 34.327 89.8443 34.525C89.8443 34.915 89.9583 35.194 90.1863 35.362C90.4203 35.53 90.7233 35.614 91.0953 35.614C91.5513 35.614 91.9443 35.533 92.2743 35.371C92.6103 35.203 92.9373 34.951 93.2553 34.615V33.058ZM88.1613 29.053C89.2233 28.081 90.5013 27.595 91.9953 27.595C92.5353 27.595 93.0183 27.685 93.4443 27.865C93.8703 28.039 94.2303 28.285 94.5243 28.603C94.8183 28.915 95.0403 29.29 95.1903 29.728C95.3463 30.166 95.4243 30.646 95.4243 31.168V37H94.4163C94.2063 37 94.0443 36.97 93.9303 36.91C93.8163 36.844 93.7263 36.715 93.6603 36.523L93.4623 35.857C93.2283 36.067 93.0003 36.253 92.7783 36.415C92.5563 36.571 92.3253 36.703 92.0853 36.811C91.8453 36.919 91.5873 37 91.3113 37.054C91.0413 37.114 90.7413 37.144 90.4113 37.144C90.0213 37.144 89.6613 37.093 89.3313 36.991C89.0013 36.883 88.7163 36.724 88.4763 36.514C88.2363 36.304 88.0503 36.043 87.9183 35.731C87.7863 35.419 87.7203 35.056 87.7203 34.642C87.7203 34.408 87.7593 34.177 87.8373 33.949C87.9153 33.715 88.0413 33.493 88.2153 33.283C88.3953 33.073 88.6263 32.875 88.9083 32.689C89.1903 32.503 89.5353 32.341 89.9433 32.203C90.3573 32.065 90.8373 31.954 91.3833 31.87C91.9293 31.78 92.5533 31.726 93.2553 31.708V31.168C93.2553 30.55 93.1233 30.094 92.8593 29.8C92.5953 29.5 92.2143 29.35 91.7163 29.35C91.3563 29.35 91.0563 29.392 90.8163 29.476C90.5823 29.56 90.3753 29.656 90.1953 29.764C90.0153 29.866 89.8503 29.959 89.7003 30.043C89.5563 30.127 89.3943 30.169 89.2143 30.169C89.0583 30.169 88.9263 30.13 88.8183 30.052C88.7103 29.968 88.6233 29.872 88.5573 29.764L88.1613 29.053ZM100.473 37.144C99.6689 37.144 99.0509 36.919 98.6189 36.469C98.1929 36.013 97.9799 35.386 97.9799 34.588V29.431H97.0349C96.9149 29.431 96.8129 29.392 96.7289 29.314C96.6449 29.236 96.6029 29.119 96.6029 28.963V28.081L98.0879 27.838L98.5559 25.318C98.5859 25.198 98.6429 25.105 98.7269 25.039C98.8109 24.973 98.9189 24.94 99.0509 24.94H100.203V27.847H102.669V29.431H100.203V34.435C100.203 34.723 100.272 34.948 100.41 35.11C100.554 35.272 100.749 35.353 100.995 35.353C101.133 35.353 101.247 35.338 101.337 35.308C101.433 35.272 101.514 35.236 101.58 35.2C101.652 35.164 101.715 35.131 101.769 35.101C101.823 35.065 101.877 35.047 101.931 35.047C101.997 35.047 102.051 35.065 102.093 35.101C102.135 35.131 102.18 35.179 102.228 35.245L102.894 36.325C102.57 36.595 102.198 36.799 101.778 36.937C101.358 37.075 100.923 37.144 100.473 37.144ZM109.971 31.321C109.971 31.033 109.929 30.763 109.845 30.511C109.767 30.253 109.647 30.028 109.485 29.836C109.323 29.644 109.116 29.494 108.864 29.386C108.618 29.272 108.33 29.215 108 29.215C107.358 29.215 106.851 29.398 106.479 29.764C106.113 30.13 105.879 30.649 105.777 31.321H109.971ZM105.732 32.662C105.768 33.136 105.852 33.547 105.984 33.895C106.116 34.237 106.29 34.522 106.506 34.75C106.722 34.972 106.977 35.14 107.271 35.254C107.571 35.362 107.901 35.416 108.261 35.416C108.621 35.416 108.93 35.374 109.188 35.29C109.452 35.206 109.68 35.113 109.872 35.011C110.07 34.909 110.241 34.816 110.385 34.732C110.535 34.648 110.679 34.606 110.817 34.606C111.003 34.606 111.141 34.675 111.231 34.813L111.87 35.623C111.624 35.911 111.348 36.154 111.042 36.352C110.736 36.544 110.415 36.7 110.079 36.82C109.749 36.934 109.41 37.015 109.062 37.063C108.72 37.111 108.387 37.135 108.063 37.135C107.421 37.135 106.824 37.03 106.272 36.82C105.72 36.604 105.24 36.289 104.832 35.875C104.424 35.455 104.103 34.939 103.869 34.327C103.635 33.709 103.518 32.995 103.518 32.185C103.518 31.555 103.62 30.964 103.824 30.412C104.028 29.854 104.319 29.371 104.697 28.963C105.081 28.549 105.546 28.222 106.092 27.982C106.644 27.742 107.265 27.622 107.955 27.622C108.537 27.622 109.074 27.715 109.566 27.901C110.058 28.087 110.481 28.36 110.835 28.72C111.189 29.074 111.465 29.512 111.663 30.034C111.867 30.55 111.969 31.141 111.969 31.807C111.969 32.143 111.933 32.371 111.861 32.491C111.789 32.605 111.651 32.662 111.447 32.662H105.732ZM122.892 33.058C122.25 33.088 121.71 33.145 121.272 33.229C120.834 33.307 120.483 33.409 120.219 33.535C119.955 33.661 119.766 33.808 119.652 33.976C119.538 34.144 119.481 34.327 119.481 34.525C119.481 34.915 119.595 35.194 119.823 35.362C120.057 35.53 120.36 35.614 120.732 35.614C121.188 35.614 121.581 35.533 121.911 35.371C122.247 35.203 122.574 34.951 122.892 34.615V33.058ZM117.798 29.053C118.86 28.081 120.138 27.595 121.632 27.595C122.172 27.595 122.655 27.685 123.081 27.865C123.507 28.039 123.867 28.285 124.161 28.603C124.455 28.915 124.677 29.29 124.827 29.728C124.983 30.166 125.061 30.646 125.061 31.168V37H124.053C123.843 37 123.681 36.97 123.567 36.91C123.453 36.844 123.363 36.715 123.297 36.523L123.099 35.857C122.865 36.067 122.637 36.253 122.415 36.415C122.193 36.571 121.962 36.703 121.722 36.811C121.482 36.919 121.224 37 120.948 37.054C120.678 37.114 120.378 37.144 120.048 37.144C119.658 37.144 119.298 37.093 118.968 36.991C118.638 36.883 118.353 36.724 118.113 36.514C117.873 36.304 117.687 36.043 117.555 35.731C117.423 35.419 117.357 35.056 117.357 34.642C117.357 34.408 117.396 34.177 117.474 33.949C117.552 33.715 117.678 33.493 117.852 33.283C118.032 33.073 118.263 32.875 118.545 32.689C118.827 32.503 119.172 32.341 119.58 32.203C119.994 32.065 120.474 31.954 121.02 31.87C121.566 31.78 122.19 31.726 122.892 31.708V31.168C122.892 30.55 122.76 30.094 122.496 29.8C122.232 29.5 121.851 29.35 121.353 29.35C120.993 29.35 120.693 29.392 120.453 29.476C120.219 29.56 120.012 29.656 119.832 29.764C119.652 29.866 119.487 29.959 119.337 30.043C119.193 30.127 119.031 30.169 118.851 30.169C118.695 30.169 118.563 30.13 118.455 30.052C118.347 29.968 118.26 29.872 118.194 29.764L117.798 29.053ZM134.61 37.144C133.806 37.144 133.188 36.919 132.756 36.469C132.33 36.013 132.117 35.386 132.117 34.588V29.431H131.172C131.052 29.431 130.95 29.392 130.866 29.314C130.782 29.236 130.74 29.119 130.74 28.963V28.081L132.225 27.838L132.693 25.318C132.723 25.198 132.78 25.105 132.864 25.039C132.948 24.973 133.056 24.94 133.188 24.94H134.34V27.847H136.806V29.431H134.34V34.435C134.34 34.723 134.409 34.948 134.547 35.11C134.691 35.272 134.886 35.353 135.132 35.353C135.27 35.353 135.384 35.338 135.474 35.308C135.57 35.272 135.651 35.236 135.717 35.2C135.789 35.164 135.852 35.131 135.906 35.101C135.96 35.065 136.014 35.047 136.068 35.047C136.134 35.047 136.188 35.065 136.23 35.101C136.272 35.131 136.317 35.179 136.365 35.245L137.031 36.325C136.707 36.595 136.335 36.799 135.915 36.937C135.495 37.075 135.06 37.144 134.61 37.144ZM143.107 33.058C142.465 33.088 141.925 33.145 141.487 33.229C141.049 33.307 140.698 33.409 140.434 33.535C140.17 33.661 139.981 33.808 139.867 33.976C139.753 34.144 139.696 34.327 139.696 34.525C139.696 34.915 139.81 35.194 140.038 35.362C140.272 35.53 140.575 35.614 140.947 35.614C141.403 35.614 141.796 35.533 142.126 35.371C142.462 35.203 142.789 34.951 143.107 34.615V33.058ZM138.013 29.053C139.075 28.081 140.353 27.595 141.847 27.595C142.387 27.595 142.87 27.685 143.296 27.865C143.722 28.039 144.082 28.285 144.376 28.603C144.67 28.915 144.892 29.29 145.042 29.728C145.198 30.166 145.276 30.646 145.276 31.168V37H144.268C144.058 37 143.896 36.97 143.782 36.91C143.668 36.844 143.578 36.715 143.512 36.523L143.314 35.857C143.08 36.067 142.852 36.253 142.63 36.415C142.408 36.571 142.177 36.703 141.937 36.811C141.697 36.919 141.439 37 141.163 37.054C140.893 37.114 140.593 37.144 140.263 37.144C139.873 37.144 139.513 37.093 139.183 36.991C138.853 36.883 138.568 36.724 138.328 36.514C138.088 36.304 137.902 36.043 137.77 35.731C137.638 35.419 137.572 35.056 137.572 34.642C137.572 34.408 137.611 34.177 137.689 33.949C137.767 33.715 137.893 33.493 138.067 33.283C138.247 33.073 138.478 32.875 138.76 32.689C139.042 32.503 139.387 32.341 139.795 32.203C140.209 32.065 140.689 31.954 141.235 31.87C141.781 31.78 142.405 31.726 143.107 31.708V31.168C143.107 30.55 142.975 30.094 142.711 29.8C142.447 29.5 142.066 29.35 141.568 29.35C141.208 29.35 140.908 29.392 140.668 29.476C140.434 29.56 140.227 29.656 140.047 29.764C139.867 29.866 139.702 29.959 139.552 30.043C139.408 30.127 139.246 30.169 139.066 30.169C138.91 30.169 138.778 30.13 138.67 30.052C138.562 29.968 138.475 29.872 138.409 29.764L138.013 29.053ZM149.466 29.368C149.754 28.816 150.096 28.384 150.492 28.072C150.888 27.754 151.356 27.595 151.896 27.595C152.322 27.595 152.664 27.688 152.922 27.874L152.778 29.539C152.748 29.647 152.703 29.725 152.643 29.773C152.589 29.815 152.514 29.836 152.418 29.836C152.328 29.836 152.193 29.821 152.013 29.791C151.839 29.761 151.668 29.746 151.5 29.746C151.254 29.746 151.035 29.782 150.843 29.854C150.651 29.926 150.477 30.031 150.321 30.169C150.171 30.301 150.036 30.463 149.916 30.655C149.802 30.847 149.694 31.066 149.592 31.312V37H147.369V27.766H148.674C148.902 27.766 149.061 27.808 149.151 27.892C149.241 27.97 149.301 28.114 149.331 28.324L149.466 29.368ZM157.354 32.158C157.63 32.158 157.87 32.122 158.074 32.05C158.278 31.972 158.446 31.867 158.578 31.735C158.716 31.603 158.818 31.444 158.884 31.258C158.956 31.072 158.992 30.868 158.992 30.646C158.992 30.19 158.854 29.83 158.578 29.566C158.308 29.296 157.9 29.161 157.354 29.161C156.808 29.161 156.397 29.296 156.121 29.566C155.851 29.83 155.716 30.19 155.716 30.646C155.716 30.862 155.749 31.063 155.815 31.249C155.887 31.435 155.989 31.597 156.121 31.735C156.259 31.867 156.43 31.972 156.634 32.05C156.844 32.122 157.084 32.158 157.354 32.158ZM159.865 37.414C159.865 37.234 159.811 37.087 159.703 36.973C159.595 36.859 159.448 36.772 159.262 36.712C159.076 36.646 158.857 36.598 158.605 36.568C158.359 36.538 158.095 36.517 157.813 36.505C157.537 36.487 157.249 36.472 156.949 36.46C156.655 36.448 156.367 36.424 156.085 36.388C155.839 36.526 155.638 36.688 155.482 36.874C155.332 37.06 155.257 37.276 155.257 37.522C155.257 37.684 155.296 37.834 155.374 37.972C155.458 38.116 155.587 38.239 155.761 38.341C155.941 38.443 156.172 38.521 156.454 38.575C156.736 38.635 157.081 38.665 157.489 38.665C157.903 38.665 158.26 38.632 158.56 38.566C158.86 38.506 159.106 38.419 159.298 38.305C159.496 38.197 159.64 38.065 159.73 37.909C159.82 37.759 159.865 37.594 159.865 37.414ZM162.079 28.081V28.909C162.079 29.173 161.92 29.335 161.602 29.395L160.774 29.548C160.9 29.866 160.963 30.214 160.963 30.592C160.963 31.048 160.87 31.462 160.684 31.834C160.504 32.2 160.252 32.512 159.928 32.77C159.604 33.028 159.22 33.229 158.776 33.373C158.338 33.511 157.864 33.58 157.354 33.58C157.174 33.58 157 33.571 156.832 33.553C156.664 33.535 156.499 33.511 156.337 33.481C156.049 33.655 155.905 33.85 155.905 34.066C155.905 34.252 155.989 34.39 156.157 34.48C156.331 34.564 156.559 34.624 156.841 34.66C157.123 34.696 157.444 34.72 157.804 34.732C158.164 34.738 158.533 34.756 158.911 34.786C159.289 34.816 159.658 34.87 160.018 34.948C160.378 35.02 160.699 35.137 160.981 35.299C161.263 35.461 161.488 35.683 161.656 35.965C161.83 36.241 161.917 36.598 161.917 37.036C161.917 37.444 161.815 37.84 161.611 38.224C161.413 38.608 161.122 38.95 160.738 39.25C160.36 39.55 159.892 39.79 159.334 39.97C158.782 40.156 158.152 40.249 157.444 40.249C156.748 40.249 156.142 40.18 155.626 40.042C155.11 39.91 154.681 39.73 154.339 39.502C153.997 39.28 153.742 39.022 153.574 38.728C153.406 38.434 153.322 38.128 153.322 37.81C153.322 37.378 153.451 37.018 153.709 36.73C153.973 36.436 154.333 36.202 154.789 36.028C154.543 35.902 154.348 35.734 154.204 35.524C154.06 35.314 153.988 35.038 153.988 34.696C153.988 34.558 154.012 34.417 154.06 34.273C154.114 34.123 154.189 33.976 154.285 33.832C154.387 33.688 154.513 33.553 154.663 33.427C154.813 33.295 154.99 33.178 155.194 33.076C154.726 32.824 154.357 32.488 154.087 32.068C153.823 31.648 153.691 31.156 153.691 30.592C153.691 30.136 153.781 29.725 153.961 29.359C154.147 28.987 154.402 28.672 154.726 28.414C155.056 28.15 155.443 27.949 155.887 27.811C156.337 27.673 156.826 27.604 157.354 27.604C157.75 27.604 158.122 27.646 158.47 27.73C158.818 27.808 159.136 27.925 159.424 28.081H162.079ZM169.279 31.321C169.279 31.033 169.237 30.763 169.153 30.511C169.075 30.253 168.955 30.028 168.793 29.836C168.631 29.644 168.424 29.494 168.172 29.386C167.926 29.272 167.638 29.215 167.308 29.215C166.666 29.215 166.159 29.398 165.787 29.764C165.421 30.13 165.187 30.649 165.085 31.321H169.279ZM165.04 32.662C165.076 33.136 165.16 33.547 165.292 33.895C165.424 34.237 165.598 34.522 165.814 34.75C166.03 34.972 166.285 35.14 166.579 35.254C166.879 35.362 167.209 35.416 167.569 35.416C167.929 35.416 168.238 35.374 168.496 35.29C168.76 35.206 168.988 35.113 169.18 35.011C169.378 34.909 169.549 34.816 169.693 34.732C169.843 34.648 169.987 34.606 170.125 34.606C170.311 34.606 170.449 34.675 170.539 34.813L171.178 35.623C170.932 35.911 170.656 36.154 170.35 36.352C170.044 36.544 169.723 36.7 169.387 36.82C169.057 36.934 168.718 37.015 168.37 37.063C168.028 37.111 167.695 37.135 167.371 37.135C166.729 37.135 166.132 37.03 165.58 36.82C165.028 36.604 164.548 36.289 164.14 35.875C163.732 35.455 163.411 34.939 163.177 34.327C162.943 33.709 162.826 32.995 162.826 32.185C162.826 31.555 162.928 30.964 163.132 30.412C163.336 29.854 163.627 29.371 164.005 28.963C164.389 28.549 164.854 28.222 165.4 27.982C165.952 27.742 166.573 27.622 167.263 27.622C167.845 27.622 168.382 27.715 168.874 27.901C169.366 28.087 169.789 28.36 170.143 28.72C170.497 29.074 170.773 29.512 170.971 30.034C171.175 30.55 171.277 31.141 171.277 31.807C171.277 32.143 171.241 32.371 171.169 32.491C171.097 32.605 170.959 32.662 170.755 32.662H165.04ZM175.936 37.144C175.132 37.144 174.514 36.919 174.082 36.469C173.656 36.013 173.443 35.386 173.443 34.588V29.431H172.498C172.378 29.431 172.276 29.392 172.192 29.314C172.108 29.236 172.066 29.119 172.066 28.963V28.081L173.551 27.838L174.019 25.318C174.049 25.198 174.106 25.105 174.19 25.039C174.274 24.973 174.382 24.94 174.514 24.94H175.666V27.847H178.132V29.431H175.666V34.435C175.666 34.723 175.735 34.948 175.873 35.11C176.017 35.272 176.212 35.353 176.458 35.353C176.596 35.353 176.71 35.338 176.8 35.308C176.896 35.272 176.977 35.236 177.043 35.2C177.115 35.164 177.178 35.131 177.232 35.101C177.286 35.065 177.34 35.047 177.394 35.047C177.46 35.047 177.514 35.065 177.556 35.101C177.598 35.131 177.643 35.179 177.691 35.245L178.357 36.325C178.033 36.595 177.661 36.799 177.241 36.937C176.821 37.075 176.386 37.144 175.936 37.144Z" fill="#24334F"/>
</svg>
