<svg width="296" height="52" xmlns="http://www.w3.org/2000/svg">

 <g>
  <title>background</title>
  <rect fill="none" id="canvas_background" height="54" width="298" y="-1" x="-1"/>
 </g>
 <g>
  <title>Layer 1</title>
  <g stroke="null" id="svg_6">
   <rect stroke="null" x="33146.088221" y="2646.63975" transform="matrix(-0.9991355733301707,0,0,0.9972298709502658,33413.40611594148,-2639.339815246144) " id="svg_5" fill="#FCCB6F" rx="26" height="52" width="296"/>
  </g>
  <path stroke="null" id="svg_1" fill="#24334F" d="m33.786137,28.245834c0.154573,0 0.288163,0.059784 0.400666,0.179245l1.117648,1.212543c-0.618608,0.766222 -1.381244,1.353092 -2.288015,1.760823c-0.899791,0.407731 -1.982286,0.611543 -3.247548,0.611543c-1.131713,0 -2.150945,-0.193269 -3.057716,-0.579912c-0.899749,-0.386643 -1.66945,-0.924379 -2.309103,-1.613209c-0.639664,-0.68883 -1.131713,-1.51125 -1.476139,-2.467261c-0.337403,-0.955979 -0.506105,-1.99982 -0.506105,-3.131523c0,-1.145768 0.189789,-2.193121 0.569368,-3.142067c0.379579,-0.955979 0.913793,-1.778399 1.602665,-2.467261c0.688861,-0.688861 1.511281,-1.223086 2.467261,-1.602665c0.963001,-0.386611 2.024419,-0.579912 3.184242,-0.579912c1.131703,0 2.119356,0.182757 2.962864,0.54828c0.850467,0.358491 1.577992,0.836475 2.182577,1.433963l-0.948946,1.317981c-0.056304,0.084351 -0.130111,0.158158 -0.221421,0.221421c-0.084351,0.063263 -0.203918,0.094895 -0.358491,0.094895c-0.161743,0 -0.326859,-0.063263 -0.495561,-0.189789c-0.168702,-0.126526 -0.383163,-0.263596 -0.643175,-0.41121c-0.260117,-0.147614 -0.590498,-0.284684 -0.991164,-0.41121c-0.393644,-0.126526 -0.896227,-0.189789 -1.50777,-0.189789c-0.716982,0 -1.377733,0.126526 -1.982244,0.379579c-0.597488,0.24602 -1.114137,0.600999 -1.549946,1.064929c-0.428787,0.463929 -0.76619,1.029786 -1.012209,1.69756c-0.238997,0.660751 -0.358491,1.405843 -0.358491,2.235296c0,0.857563 0.119493,1.620242 0.358491,2.288015c0.24602,0.667742 0.57639,1.230151 0.991122,1.687016c0.414721,0.456865 0.903249,0.808397 1.465595,1.054385c0.562335,0.239029 1.166846,0.358491 1.813542,0.358491c0.386601,0 0.734548,-0.021088 1.043841,-0.063263c0.316315,-0.042175 0.60451,-0.108918 0.864596,-0.200333c0.267107,-0.091415 0.516691,-0.207398 0.748655,-0.347947c0.238924,-0.147614 0.474473,-0.326859 0.706438,-0.537736c0.070222,-0.063263 0.144029,-0.112503 0.221421,-0.147614c0.077286,-0.042175 0.161637,-0.063263 0.253052,-0.063263zm4.573816,3.595452l0,-10.817989l1.528858,0c0.267181,0 0.453386,0.049208 0.558824,0.147614c0.105438,0.098406 0.175766,0.267107 0.210877,0.506105l0.158158,1.307437c0.386643,-0.667774 0.840028,-1.194966 1.360157,-1.581577c0.520234,-0.386611 1.103625,-0.579912 1.750279,-0.579912c0.534257,0 0.977098,0.123015 1.328525,0.369035l-0.337403,1.950612c-0.021088,0.126526 -0.066743,0.21791 -0.13707,0.27414c-0.070222,0.049208 -0.165117,0.073807 -0.284684,0.073807c-0.105438,0 -0.249467,-0.024599 -0.432298,-0.073807c-0.182725,-0.049208 -0.425233,-0.073807 -0.727526,-0.073807c-0.541216,0 -1.005145,0.151125 -1.391788,0.453386c-0.386538,0.295228 -0.713397,0.731037 -0.980578,1.307437l0,6.737519l-2.604331,0zm14.133081,-10.986691c0.681871,0 1.307437,0.10895 1.876805,0.326859c0.576432,0.21791 1.071993,0.537736 1.486683,0.95949c0.41469,0.414721 0.738069,0.927859 0.970034,1.539402c0.231965,0.60451 0.347947,1.296893 0.347947,2.077138c0,0.196822 -0.010544,0.362002 -0.031632,0.495561c-0.014023,0.126526 -0.045655,0.228454 -0.094895,0.305772c-0.042175,0.070327 -0.101959,0.123047 -0.179245,0.158158c-0.077286,0.028152 -0.175766,0.042175 -0.295228,0.042175l-6.6848,0c0.077286,1.110584 0.376099,1.926045 0.896227,2.446173c0.520128,0.520128 1.209063,0.780245 2.066594,0.780245c0.421754,0 0.783724,-0.04924 1.086016,-0.147614c0.309251,-0.098374 0.576432,-0.207398 0.801333,-0.326859c0.231965,-0.119462 0.432298,-0.228485 0.600999,-0.326859c0.175766,-0.098374 0.344468,-0.147614 0.506105,-0.147614c0.105438,0 0.196854,0.021088 0.27414,0.063263c0.077286,0.042175 0.144134,0.101959 0.200333,0.179245l0.759157,0.948946c-0.288163,0.337403 -0.611543,0.622087 -0.970034,0.854052c-0.358491,0.2249 -0.73459,0.407731 -1.128192,0.54828c-0.386643,0.133591 -0.783724,0.228485 -1.191455,0.284684c-0.400666,0.056199 -0.790789,0.084351 -1.170367,0.084351c-0.752093,0 -1.451572,-0.123047 -2.098226,-0.369035c-0.646654,-0.253052 -1.209063,-0.622087 -1.687016,-1.107104c-0.477953,-0.492081 -0.854052,-1.09656 -1.128192,-1.813542c-0.27414,-0.724046 -0.41121,-1.56049 -0.41121,-2.509436c0,-0.738069 0.119462,-1.430452 0.358491,-2.077138c0.239029,-0.653719 0.579912,-1.219575 1.022753,-1.69756c0.449906,-0.485017 0.994601,-0.868107 1.634297,-1.14928c0.646654,-0.281173 1.37418,-0.421754 2.182577,-0.421754zm0.052719,1.866261c-0.759157,0 -1.353092,0.214388 -1.78191,0.643175c-0.428818,0.428787 -0.702958,1.036808 -0.82242,1.824086l4.892346,0c0,-0.337403 -0.045655,-0.653719 -0.13707,-0.948946c-0.091415,-0.302261 -0.231965,-0.565857 -0.421754,-0.790789c-0.189789,-0.224932 -0.428818,-0.400666 -0.716982,-0.527192c-0.288163,-0.133559 -0.625567,-0.200333 -1.012209,-0.200333zm16.272955,9.120429l-1.170367,0c-0.246093,0 -0.439362,-0.035111 -0.579912,-0.105438c-0.140655,-0.077286 -0.246093,-0.228485 -0.316315,-0.453386l-0.231965,-0.769701c-0.27414,0.245988 -0.544801,0.463929 -0.811876,0.653719c-0.260117,0.182725 -0.530777,0.337403 -0.811876,0.463929c-0.281204,0.126526 -0.579912,0.221421 -0.896227,0.284684c-0.316315,0.063263 -0.667847,0.094895 -1.054385,0.094895c-0.45697,0 -0.878724,-0.059784 -1.265262,-0.179245c-0.386643,-0.126526 -0.720567,-0.312836 -1.001666,-0.558824c-0.27414,-0.245988 -0.488602,-0.55176 -0.643175,-0.917315c-0.154678,-0.365555 -0.231965,-0.790789 -0.231965,-1.275806c0,-0.407731 0.105438,-0.808397 0.316315,-1.201999c0.217836,-0.400666 0.576327,-0.759157 1.075473,-1.075473c0.49904,-0.323348 1.163303,-0.590456 1.992787,-0.801333c0.829379,-0.210877 1.859197,-0.33037 3.089348,-0.358491l0,-0.632631c0,-0.724014 -0.154678,-1.258229 -0.463929,-1.602665c-0.302292,-0.351458 -0.745134,-0.527192 -1.328525,-0.527192c-0.421754,0 -0.773286,0.049208 -1.054385,0.147614c-0.281204,0.098406 -0.527192,0.210877 -0.738069,0.337403c-0.203918,0.119493 -0.393707,0.228454 -0.569368,0.326859c-0.175766,0.098406 -0.369035,0.147614 -0.579912,0.147614c-0.175766,0 -0.326859,-0.045686 -0.453386,-0.13707c-0.126526,-0.091384 -0.228485,-0.203844 -0.305772,-0.337403l-0.474473,-0.832964c1.244174,-1.138736 2.74488,-1.708104 4.502223,-1.708104c0.632631,0 1.194934,0.105438 1.687016,0.316315c0.49904,0.203844 0.920794,0.49205 1.265262,0.864596c0.344362,0.365524 0.604479,0.804844 0.780245,1.317981c0.182725,0.513137 0.27414,1.075473 0.27414,1.687016l0,6.832414zm-5.061047,-1.623753c0.267076,0 0.513064,-0.024567 0.738069,-0.073807c0.2249,-0.04924 0.435777,-0.123047 0.632631,-0.221421c0.203813,-0.098374 0.397081,-0.217941 0.579912,-0.358491c0.189789,-0.147614 0.379579,-0.319795 0.569368,-0.516649l0,-1.824086c-0.759157,0.035111 -1.395373,0.101959 -1.908437,0.200333c-0.506105,0.091415 -0.913835,0.210877 -1.223086,0.358491c-0.309357,0.147614 -0.530777,0.319795 -0.664262,0.516649c-0.126526,0.196854 -0.189789,0.41121 -0.189789,0.643175c0,0.456865 0.133485,0.783724 0.400666,0.980578c0.27414,0.196854 0.629046,0.295228 1.064929,0.295228zm12.229494,1.792454c-0.934818,0 -1.655384,-0.263596 -2.161489,-0.790789c-0.506105,-0.534257 -0.759157,-1.268741 -0.759157,-2.203664l0,-6.041625l-1.09656,0c-0.14055,0 -0.263596,-0.045686 -0.369035,-0.13707c-0.098374,-0.091384 -0.147614,-0.228454 -0.147614,-0.41121l0,-1.033297l1.739735,-0.284684l0.54828,-2.952278c0.028152,-0.140581 0.091415,-0.249541 0.189789,-0.326859c0.105438,-0.077318 0.23555,-0.115982 0.390122,-0.115982l1.349613,0l0,3.405663l2.846839,0l0,1.855717l-2.846839,0l0,5.86238c0,0.337403 0.084351,0.600999 0.253052,0.790789c0.168702,0.189789 0.393707,0.284684 0.674806,0.284684c0.161743,0 0.295228,-0.017608 0.400666,-0.052719c0.112503,-0.042175 0.207398,-0.084351 0.284684,-0.126526c0.084351,-0.042175 0.158158,-0.080871 0.221421,-0.115982c0.063263,-0.042175 0.126526,-0.063263 0.189789,-0.063263c0.077392,0 0.140655,0.021088 0.189789,0.063263c0.04924,0.035111 0.101959,0.091415 0.158158,0.168702l0.780245,1.265262c-0.379579,0.316315 -0.815356,0.555345 -1.307437,0.716982c-0.491976,0.161637 -1.001666,0.242509 -1.528858,0.242509zm10.126734,-11.155392c0.681871,0 1.307437,0.10895 1.876805,0.326859c0.576432,0.21791 1.071993,0.537736 1.486683,0.95949c0.41469,0.414721 0.738069,0.927859 0.970034,1.539402c0.231965,0.60451 0.347947,1.296893 0.347947,2.077138c0,0.196822 -0.010544,0.362002 -0.031632,0.495561c-0.014023,0.126526 -0.045655,0.228454 -0.094895,0.305772c-0.042175,0.070327 -0.101959,0.123047 -0.179245,0.158158c-0.077286,0.028152 -0.175766,0.042175 -0.295228,0.042175l-6.6848,0c0.077286,1.110584 0.376099,1.926045 0.896227,2.446173c0.520128,0.520128 1.209063,0.780245 2.066594,0.780245c0.421754,0 0.783724,-0.04924 1.086016,-0.147614c0.309251,-0.098374 0.576432,-0.207398 0.801333,-0.326859c0.231965,-0.119462 0.432298,-0.228485 0.600999,-0.326859c0.175766,-0.098374 0.344468,-0.147614 0.506105,-0.147614c0.105438,0 0.196854,0.021088 0.27414,0.063263c0.077286,0.042175 0.144134,0.101959 0.200333,0.179245l0.759157,0.948946c-0.288163,0.337403 -0.611543,0.622087 -0.970034,0.854052c-0.358491,0.2249 -0.73459,0.407731 -1.128192,0.54828c-0.386643,0.133591 -0.783724,0.228485 -1.191455,0.284684c-0.400666,0.056199 -0.790789,0.084351 -1.170367,0.084351c-0.752093,0 -1.451572,-0.123047 -2.098226,-0.369035c-0.646654,-0.253052 -1.209063,-0.622087 -1.687016,-1.107104c-0.477953,-0.492081 -0.854052,-1.09656 -1.128192,-1.813542c-0.27414,-0.724046 -0.41121,-1.56049 -0.41121,-2.509436c0,-0.738069 0.119462,-1.430452 0.358491,-2.077138c0.239029,-0.653719 0.579912,-1.219575 1.022753,-1.69756c0.449906,-0.485017 0.994601,-0.868107 1.634297,-1.14928c0.646654,-0.281173 1.37418,-0.421754 2.182577,-0.421754zm0.052719,1.866261c-0.759157,0 -1.353092,0.214388 -1.78191,0.643175c-0.428818,0.428787 -0.702958,1.036808 -0.82242,1.824086l4.892346,0c0,-0.337403 -0.045655,-0.653719 -0.13707,-0.948946c-0.091415,-0.302261 -0.231965,-0.565857 -0.421754,-0.790789c-0.189789,-0.224932 -0.428818,-0.400666 -0.716982,-0.527192c-0.288163,-0.133559 -0.625567,-0.200333 -1.012209,-0.200333zm21.246699,-3.352944c-0.077286,0.154647 -0.168702,0.263596 -0.27414,0.326859c-0.098374,0.063263 -0.217941,0.094895 -0.358491,0.094895c-0.14055,0 -0.298707,-0.052719 -0.474473,-0.158158c-0.175766,-0.112471 -0.383058,-0.235476 -0.622087,-0.369035c-0.239029,-0.133559 -0.520128,-0.253052 -0.843508,-0.358491c-0.316315,-0.112471 -0.692415,-0.168702 -1.128192,-0.168702c-0.393602,0 -0.738069,0.049208 -1.033297,0.147614c-0.288163,0.091384 -0.534257,0.221421 -0.738069,0.390122c-0.196854,0.168702 -0.344468,0.372546 -0.442842,0.611543c-0.098374,0.231965 -0.147614,0.488528 -0.147614,0.769701c0,0.358491 0.098374,0.65723 0.295228,0.896227c0.203813,0.238997 0.470994,0.442842 0.801333,0.611543c0.330339,0.168702 0.706438,0.319827 1.128192,0.453386c0.421754,0.133559 0.850572,0.277651 1.28635,0.432298c0.442842,0.147614 0.875139,0.323348 1.296893,0.527192c0.421754,0.196822 0.797853,0.449874 1.128192,0.759157c0.330339,0.302261 0.593935,0.674806 0.790789,1.117648c0.203813,0.442842 0.305772,0.980578 0.305772,1.613209c0,0.68883 -0.119462,1.335589 -0.358491,1.940068c-0.231965,0.59752 -0.576432,1.121127 -1.033297,1.571033c-0.449906,0.442842 -1.001666,0.794268 -1.655384,1.054385c-0.653719,0.253052 -1.402332,0.379579 -2.24584,0.379579c-0.485017,0 -0.96297,-0.04924 -1.433963,-0.147614c-0.470994,-0.091415 -0.924379,-0.2249 -1.360157,-0.400666c-0.428818,-0.175766 -0.832964,-0.386643 -1.212543,-0.632631c-0.372514,-0.245988 -0.706438,-0.520128 -1.001666,-0.82242l0.82242,-1.360157c0.077286,-0.098374 0.168702,-0.179245 0.27414,-0.242509c0.112503,-0.070327 0.235444,-0.105438 0.369035,-0.105438c0.175766,0 0.365555,0.073807 0.569368,0.221421c0.203813,0.14055 0.442842,0.298707 0.716982,0.474473c0.281204,0.175766 0.608064,0.337403 0.980578,0.485017c0.379579,0.14055 0.832964,0.210877 1.360157,0.210877c0.808397,0 1.433963,-0.189789 1.876805,-0.569368c0.442842,-0.386643 0.664262,-0.938403 0.664262,-1.655384c0,-0.400666 -0.101959,-0.727526 -0.305772,-0.980578c-0.196854,-0.253052 -0.46045,-0.463929 -0.790789,-0.632631c-0.330339,-0.175734 -0.706438,-0.323348 -1.128192,-0.442842c-0.421754,-0.119493 -0.850572,-0.249541 -1.28635,-0.390122c-0.435777,-0.140581 -0.864596,-0.309283 -1.28635,-0.506105c-0.421754,-0.196822 -0.797853,-0.453386 -1.128192,-0.769701c-0.330339,-0.316315 -0.59752,-0.709949 -0.801333,-1.180911c-0.196854,-0.477984 -0.295228,-1.064929 -0.295228,-1.760823c0,-0.555313 0.108918,-1.09656 0.326859,-1.623753c0.2249,-0.527192 0.54828,-0.994633 0.970034,-1.402332c0.428818,-0.407699 0.952426,-0.734558 1.571033,-0.980578c0.618608,-0.24602 1.325045,-0.369035 2.119314,-0.369035c0.899707,0 1.729191,0.140581 2.488348,0.421754c0.759157,0.281173 1.405811,0.674806 1.940068,1.180911l-0.695894,1.339069zm7.878997,15.446739c-0.077286,0.182725 -0.179245,0.319795 -0.305772,0.41121c-0.119462,0.098374 -0.305772,0.147614 -0.558824,0.147614l-1.940068,0l2.024419,-4.333522l-4.375697,-10.016656l2.277471,0c0.210877,0 0.37262,0.049208 0.485017,0.147614c0.112503,0.098406 0.196854,0.210877 0.253052,0.337403l2.309103,5.609328c0.077392,0.182725 0.144134,0.372514 0.200333,0.569368c0.056304,0.196854 0.105438,0.393602 0.147614,0.590456c0.056304,-0.203813 0.115982,-0.400666 0.179245,-0.590456c0.070327,-0.189789 0.144134,-0.383058 0.221421,-0.579912l2.172033,-5.598784c0.056304,-0.140581 0.147614,-0.256563 0.27414,-0.347947c0.133591,-0.091384 0.281204,-0.13707 0.442842,-0.13707l2.087682,0l-5.894012,13.791354zm8.46049,-2.973365l0,-10.817989l1.592121,0c0.337403,0 0.558824,0.158158 0.664262,0.474473l0.179245,0.854052c0.217941,-0.224932 0.446321,-0.428787 0.68535,-0.611543c0.245988,-0.182757 0.50252,-0.340914 0.769279,-0.474473c0.27414,-0.133559 0.566205,-0.235476 0.875139,-0.305772c0.309989,-0.070296 0.647392,-0.105438 1.012209,-0.105438c0.590456,0 1.114485,0.101927 1.571033,0.305772c0.457603,0.196822 0.837182,0.477984 1.138736,0.843508c0.309989,0.358491 0.541954,0.790789 0.695894,1.296893c0.162375,0.499072 0.242509,1.050874 0.242509,1.655384l0,6.885133l-2.604331,0l0,-6.885133c0,-0.660751 -0.15394,-1.170367 -0.463929,-1.528858c-0.301554,-0.365524 -0.759157,-0.54828 -1.3707,-0.54828c-0.449168,0 -0.870922,0.101927 -1.265262,0.305772c-0.39318,0.203844 -0.7658,0.481506 -1.117226,0.832964l0,7.823536l-2.604331,0zm21.517465,0l-1.170367,0c-0.246726,0 -0.439679,-0.035111 -0.579912,-0.105438c-0.141288,-0.077286 -0.246726,-0.228485 -0.316315,-0.453386l-0.231965,-0.769701c-0.27414,0.245988 -0.545117,0.463929 -0.811876,0.653719c-0.260433,0.182725 -0.53141,0.337403 -0.811876,0.463929c-0.281521,0.126526 -0.579912,0.221421 -0.896227,0.284684c-0.316315,0.063263 -0.66848,0.094895 -1.054385,0.094895c-0.457603,0 -0.879357,-0.059784 -1.265262,-0.179245c-0.386959,-0.126526 -0.721199,-0.312836 -1.001666,-0.558824c-0.27414,-0.245988 -0.489235,-0.55176 -0.643175,-0.917315c-0.154995,-0.365555 -0.231965,-0.790789 -0.231965,-1.275806c0,-0.407731 0.105438,-0.808397 0.316315,-1.201999c0.217203,-0.400666 0.575694,-0.759157 1.075473,-1.075473c0.498724,-0.323348 1.162987,-0.590456 1.992787,-0.801333c0.828747,-0.210877 1.858881,-0.33037 3.089348,-0.358491l0,-0.632631c0,-0.724014 -0.154995,-1.258229 -0.463929,-1.602665c-0.302608,-0.351458 -0.74545,-0.527192 -1.328525,-0.527192c-0.421754,0 -0.773919,0.049208 -1.054385,0.147614c-0.281521,0.098406 -0.527192,0.210877 -0.738069,0.337403c-0.204551,0.119493 -0.39434,0.228454 -0.569368,0.326859c-0.176082,0.098406 -0.369035,0.147614 -0.579912,0.147614c-0.176082,0 -0.326859,-0.045686 -0.453386,-0.13707c-0.126526,-0.091384 -0.228802,-0.203844 -0.305772,-0.337403l-0.474473,-0.832964c1.244174,-1.138736 2.744564,-1.708104 4.502223,-1.708104c0.632631,0 1.194618,0.105438 1.687016,0.316315c0.498724,0.203844 0.920478,0.49205 1.265262,0.864596c0.343729,0.365524 0.604163,0.804844 0.780245,1.317981c0.182409,0.513137 0.27414,1.075473 0.27414,1.687016l0,6.832414zm-5.061047,-1.623753c0.266759,0 0.512431,-0.024567 0.738069,-0.073807c0.224584,-0.04924 0.435461,-0.123047 0.632631,-0.221421c0.203496,-0.098374 0.396449,-0.217941 0.579912,-0.358491c0.189789,-0.147614 0.379579,-0.319795 0.569368,-0.516649l0,-1.824086c-0.759157,0.035111 -1.396006,0.101959 -1.908437,0.200333c-0.506105,0.091415 -0.914152,0.210877 -1.223086,0.358491c-0.309989,0.147614 -0.53141,0.319795 -0.664262,0.516649c-0.126526,0.196854 -0.189789,0.41121 -0.189789,0.643175c0,0.456865 0.132852,0.783724 0.400666,0.980578c0.27414,0.196854 0.628413,0.295228 1.064929,0.295228zm8.675479,5.155942l0,-14.350178l1.592121,0c0.168702,0 0.313152,0.038664 0.432298,0.115982c0.1202,0.077318 0.19717,0.196822 0.231965,0.358491l0.210877,1.001666c0.436515,-0.499072 0.935239,-0.90326 1.497227,-1.212543c0.569368,-0.309283 1.23363,-0.463929 1.992787,-0.463929c0.590456,0 1.128192,0.123015 1.613209,0.369035c0.492398,0.24602 0.914152,0.60451 1.265262,1.075473c0.358491,0.463929 0.632631,1.04033 0.82242,1.729191c0.19717,0.681839 0.295228,1.465595 0.295228,2.351278c0,0.808397 -0.108602,1.55701 -0.326859,2.24584c-0.217203,0.68883 -0.530356,1.28635 -0.938403,1.792454c-0.400666,0.506105 -0.888846,0.903292 -1.465595,1.191455c-0.569368,0.281204 -1.208325,0.421754 -1.918981,0.421754c-0.611543,0 -1.131355,-0.091415 -1.56049,-0.27414c-0.421754,-0.189789 -0.801333,-0.449906 -1.138736,-0.780245l0,4.428417l-2.604331,0zm5.061047,-12.494461c-0.540899,0 -1.004829,0.115982 -1.391788,0.347947c-0.379579,0.224932 -0.733852,0.544769 -1.064929,0.95949l0,4.850171c0.295228,0.365555 0.615761,0.622087 0.95949,0.769701c0.352165,0.14055 0.727526,0.210877 1.128192,0.210877c0.39434,0 0.748613,-0.073807 1.064929,-0.221421c0.323696,-0.147614 0.594673,-0.372514 0.811876,-0.674806c0.225638,-0.302292 0.397503,-0.681871 0.516649,-1.138736c0.1202,-0.463929 0.179245,-1.00873 0.179245,-1.634297c0,-0.632631 -0.052719,-1.166856 -0.158158,-1.602665c-0.098058,-0.442842 -0.242509,-0.801333 -0.432298,-1.075473c-0.189789,-0.27414 -0.421754,-0.474473 -0.695894,-0.600999c-0.266759,-0.126526 -0.572531,-0.189789 -0.917315,-0.189789zm14.33858,0.253052c-0.070644,0.112471 -0.144451,0.1933 -0.221421,0.242509c-0.07697,0.042175 -0.176082,0.063263 -0.295228,0.063263c-0.126526,0 -0.263596,-0.035143 -0.41121,-0.105438c-0.140233,-0.070296 -0.305772,-0.147614 -0.495561,-0.231965c-0.189789,-0.091384 -0.408047,-0.172213 -0.653719,-0.242509c-0.239345,-0.070296 -0.524029,-0.105438 -0.854052,-0.105438c-0.513485,0 -0.917315,0.10895 -1.212543,0.326859c-0.295228,0.21791 -0.442842,0.502594 -0.442842,0.854052c0,0.231965 0.073807,0.428787 0.221421,0.590456c0.154995,0.154647 0.355328,0.291717 0.600999,0.41121c0.253052,0.119493 0.537736,0.228454 0.854052,0.326859c0.316315,0.091384 0.640012,0.1933 0.970034,0.305772c0.330022,0.112471 0.653719,0.242509 0.970034,0.390122c0.316315,0.140581 0.597836,0.323348 0.843508,0.54828c0.253052,0.217941 0.453386,0.481538 0.600999,0.790789c0.154995,0.309251 0.231965,0.681871 0.231965,1.117648c0,0.520128 -0.094895,1.001666 -0.284684,1.444507c-0.189789,0.435777 -0.467093,0.815356 -0.832964,1.138736c-0.365872,0.316315 -0.819257,0.565888 -1.360157,0.748613c-0.534573,0.175766 -1.14928,0.263596 -1.845174,0.263596c-0.372198,0 -0.738069,-0.035111 -1.09656,-0.105438c-0.35111,-0.063263 -0.692731,-0.154678 -1.022753,-0.27414c-0.323696,-0.119462 -0.62525,-0.260117 -0.906771,-0.421754c-0.27414,-0.161637 -0.516649,-0.337403 -0.727526,-0.527192l0.600999,-0.991122c0.07697,-0.119462 0.168702,-0.210877 0.27414,-0.27414c0.105438,-0.063263 0.239345,-0.094895 0.400666,-0.094895c0.161321,0 0.313152,0.045655 0.453386,0.13707c0.147614,0.091415 0.316315,0.189789 0.506105,0.295228c0.189789,0.105438 0.41121,0.203813 0.664262,0.295228c0.260433,0.091415 0.587292,0.13707 0.980578,0.13707c0.308935,0 0.572531,-0.035111 0.790789,-0.105438c0.224584,-0.077286 0.408047,-0.175766 0.54828,-0.295228c0.147614,-0.119462 0.253052,-0.256532 0.316315,-0.41121c0.070644,-0.161637 0.105438,-0.326859 0.105438,-0.495561c0,-0.253052 -0.07697,-0.46045 -0.231965,-0.622087c-0.147614,-0.161637 -0.347947,-0.302292 -0.600999,-0.421754c-0.245672,-0.119462 -0.530356,-0.2249 -0.854052,-0.316315c-0.316315,-0.098374 -0.643175,-0.203813 -0.980578,-0.316315c-0.330022,-0.112503 -0.656882,-0.242509 -0.980578,-0.390122c-0.316315,-0.154678 -0.600999,-0.347947 -0.854052,-0.579912c-0.245672,-0.231965 -0.446005,-0.516649 -0.600999,-0.854052c-0.147614,-0.337403 -0.221421,-0.745102 -0.221421,-1.223086c0,-0.442842 0.087514,-0.864596 0.263596,-1.265262c0.176082,-0.400666 0.432298,-0.748613 0.769701,-1.043841c0.344784,-0.302261 0.769701,-0.541247 1.275806,-0.716982c0.513485,-0.182757 1.103941,-0.27414 1.771367,-0.27414c0.74545,0 1.42342,0.123015 2.034963,0.369035c0.611543,0.24602 1.120811,0.569368 1.528858,0.970034l-0.590456,0.938403zm8.308553,-2.277471c0.682187,0 1.307437,0.10895 1.876805,0.326859c0.576749,0.21791 1.072309,0.537736 1.486683,0.95949c0.415428,0.414721 0.738069,0.927859 0.970034,1.539402c0.231965,0.60451 0.347947,1.296893 0.347947,2.077138c0,0.196822 -0.010544,0.362002 -0.031632,0.495561c-0.013707,0.126526 -0.045339,0.228454 -0.094895,0.305772c-0.042175,0.070327 -0.101221,0.123047 -0.179245,0.158158c-0.07697,0.028152 -0.175028,0.042175 -0.295228,0.042175l-6.6848,0c0.078024,1.110584 0.376415,1.926045 0.896227,2.446173c0.520866,0.520128 1.209379,0.780245 2.066594,0.780245c0.421754,0 0.784462,-0.04924 1.086016,-0.147614c0.309989,-0.098374 0.576749,-0.207398 0.801333,-0.326859c0.231965,-0.119462 0.432298,-0.228485 0.600999,-0.326859c0.176082,-0.098374 0.344784,-0.147614 0.506105,-0.147614c0.105438,0 0.19717,0.021088 0.27414,0.063263c0.078024,0.042175 0.144451,0.101959 0.200333,0.179245l0.759157,0.948946c-0.287847,0.337403 -0.611543,0.622087 -0.970034,0.854052c-0.358491,0.2249 -0.733852,0.407731 -1.128192,0.54828c-0.385905,0.133591 -0.783408,0.228485 -1.191455,0.284684c-0.400666,0.056199 -0.790789,0.084351 -1.170367,0.084351c-0.751776,0 -1.450834,-0.123047 -2.098226,-0.369035c-0.646338,-0.253052 -1.208325,-0.622087 -1.687016,-1.107104c-0.477636,-0.492081 -0.854052,-1.09656 -1.128192,-1.813542c-0.27414,-0.724046 -0.41121,-1.56049 -0.41121,-2.509436c0,-0.738069 0.1202,-1.430452 0.358491,-2.077138c0.239345,-0.653719 0.579912,-1.219575 1.022753,-1.69756c0.450222,-0.485017 0.995339,-0.868107 1.634297,-1.14928c0.647392,-0.281173 1.374918,-0.421754 2.182577,-0.421754zm0.052719,1.866261c-0.759157,0 -1.352776,0.214388 -1.78191,0.643175c-0.42808,0.428787 -0.70222,1.036808 -0.82242,1.824086l4.892346,0c0,-0.337403 -0.045339,-0.653719 -0.13707,-0.948946c-0.090677,-0.302261 -0.231965,-0.565857 -0.421754,-0.790789c-0.189789,-0.224932 -0.42808,-0.400666 -0.716982,-0.527192c-0.287847,-0.133559 -0.62525,-0.200333 -1.012209,-0.200333zm26.476659,9.120429l-2.193121,0c-0.245672,0 -0.449168,-0.059784 -0.611543,-0.179245c-0.15394,-0.126526 -0.266759,-0.281204 -0.337403,-0.463929l-1.138736,-3.110435l-6.315766,0l-1.138736,3.110435c-0.055882,0.161637 -0.168702,0.309251 -0.337403,0.442842c-0.161321,0.133591 -0.361654,0.200333 -0.600999,0.200333l-2.203664,0l5.988906,-15.246406l2.899558,0l5.988906,15.246406zm-9.869043,-5.756942l4.860714,0l-1.855717,-5.071591c-0.084351,-0.224932 -0.179245,-0.488528 -0.284684,-0.790789c-0.098058,-0.309283 -0.196116,-0.643175 -0.295228,-1.001666c-0.098058,0.358491 -0.196116,0.692383 -0.295228,1.001666c-0.090677,0.309283 -0.182409,0.579912 -0.27414,0.811876l-1.855717,5.050504zm19.947908,-2.773032c-0.07697,0.098406 -0.15394,0.175734 -0.231965,0.231965c-0.069589,0.05623 -0.175028,0.084351 -0.316315,0.084351c-0.132852,0 -0.263596,-0.038664 -0.390122,-0.115982c-0.126526,-0.084351 -0.277303,-0.175734 -0.453386,-0.27414c-0.175028,-0.105438 -0.385905,-0.196822 -0.632631,-0.27414c-0.238291,-0.084351 -0.537736,-0.126526 -0.896227,-0.126526c-0.456549,0 -0.857215,0.084351 -1.201999,0.253052c-0.343729,0.161669 -0.632631,0.397155 -0.864596,0.706438c-0.224584,0.309283 -0.393286,0.68535 -0.506105,1.128192c-0.111765,0.435809 -0.168702,0.93137 -0.168702,1.486683c0,0.576432 0.0601,1.089496 0.179245,1.539402c0.126526,0.449906 0.305772,0.829485 0.537736,1.138736c0.231965,0.302292 0.513485,0.534257 0.843508,0.695894c0.331077,0.154678 0.703275,0.231965 1.117648,0.231965c0.415428,0 0.748613,-0.04924 1.001666,-0.147614c0.260433,-0.105438 0.478691,-0.217941 0.653719,-0.337403c0.176082,-0.126526 0.326859,-0.239029 0.453386,-0.337403c0.133907,-0.105438 0.281521,-0.158158 0.442842,-0.158158c0.210877,0 0.369035,0.080871 0.474473,0.242509l0.748613,0.948946c-0.287847,0.337403 -0.600999,0.622087 -0.938403,0.854052c-0.337403,0.2249 -0.688513,0.407731 -1.054385,0.54828c-0.358491,0.133591 -0.730689,0.228485 -1.117648,0.284684c-0.385905,0.056199 -0.769701,0.084351 -1.14928,0.084351c-0.667426,0 -1.296893,-0.123047 -1.887349,-0.369035c-0.590456,-0.253052 -1.107104,-0.618608 -1.549946,-1.09656c-0.435461,-0.477953 -0.783408,-1.061449 -1.043841,-1.750279c-0.253052,-0.695894 -0.379579,-1.486683 -0.379579,-2.372366c0,-0.7943 0.112819,-1.528858 0.337403,-2.203664c0.231965,-0.681839 0.569368,-1.268773 1.012209,-1.760823c0.442842,-0.499072 0.991122,-0.889194 1.64484,-1.170367c0.653719,-0.281173 1.406549,-0.421754 2.256384,-0.421754c0.808713,0 1.515151,0.130037 2.119314,0.390122c0.611543,0.260085 1.159823,0.632631 1.64484,1.117648l-0.68535,0.948946zm11.104782,0c-0.078024,0.098406 -0.154995,0.175734 -0.231965,0.231965c-0.070644,0.05623 -0.176082,0.084351 -0.316315,0.084351c-0.133907,0 -0.263596,-0.038664 -0.390122,-0.115982c-0.126526,-0.084351 -0.278358,-0.175734 -0.453386,-0.27414c-0.176082,-0.105438 -0.386959,-0.196822 -0.632631,-0.27414c-0.239345,-0.084351 -0.537736,-0.126526 -0.896227,-0.126526c-0.457603,0 -0.858269,0.084351 -1.201999,0.253052c-0.344784,0.161669 -0.632631,0.397155 -0.864596,0.706438c-0.225638,0.309283 -0.39434,0.68535 -0.506105,1.128192c-0.112819,0.435809 -0.168702,0.93137 -0.168702,1.486683c0,0.576432 0.059046,1.089496 0.179245,1.539402c0.126526,0.449906 0.305772,0.829485 0.537736,1.138736c0.231965,0.302292 0.512431,0.534257 0.843508,0.695894c0.330022,0.154678 0.70222,0.231965 1.117648,0.231965c0.414373,0 0.748613,-0.04924 1.001666,-0.147614c0.259379,-0.105438 0.477636,-0.217941 0.653719,-0.337403c0.175028,-0.126526 0.326859,-0.239029 0.453386,-0.337403c0.132852,-0.105438 0.280466,-0.158158 0.442842,-0.158158c0.210877,0 0.369035,0.080871 0.474473,0.242509l0.748613,0.948946c-0.288901,0.337403 -0.600999,0.622087 -0.938403,0.854052c-0.337403,0.2249 -0.689568,0.407731 -1.054385,0.54828c-0.358491,0.133591 -0.731743,0.228485 -1.117648,0.284684c-0.386959,0.056199 -0.769701,0.084351 -1.14928,0.084351c-0.66848,0 -1.296893,-0.123047 -1.887349,-0.369035c-0.590456,-0.253052 -1.107104,-0.618608 -1.549946,-1.09656c-0.436515,-0.477953 -0.784462,-1.061449 -1.043841,-1.750279c-0.253052,-0.695894 -0.379579,-1.486683 -0.379579,-2.372366c0,-0.7943 0.111765,-1.528858 0.337403,-2.203664c0.231965,-0.681839 0.569368,-1.268773 1.012209,-1.760823c0.442842,-0.499072 0.991122,-0.889194 1.64484,-1.170367c0.653719,-0.281173 1.405495,-0.421754 2.256384,-0.421754c0.807659,0 1.514097,0.130037 2.119314,0.390122c0.611543,0.260085 1.159823,0.632631 1.64484,1.117648l-0.68535,0.948946zm8.119818,-2.456717c0.808713,0 1.539402,0.130037 2.193121,0.390122c0.661099,0.260085 1.223086,0.62912 1.687016,1.107104c0.463929,0.477984 0.82242,1.061418 1.075473,1.750279c0.253052,0.688861 0.379579,1.458562 0.379579,2.309103c0,0.857531 -0.126526,1.630817 -0.379579,2.319647c-0.253052,0.68883 -0.611543,1.275806 -1.075473,1.760823c-0.463929,0.485017 -1.025917,0.857531 -1.687016,1.117648c-0.653719,0.260117 -1.384407,0.390122 -2.193121,0.390122c-0.808713,0 -1.542565,-0.130006 -2.203664,-0.390122c-0.661099,-0.260117 -1.22625,-0.632631 -1.69756,-1.117648c-0.463929,-0.485017 -0.825583,-1.071993 -1.086016,-1.760823c-0.253052,-0.68883 -0.379579,-1.462116 -0.379579,-2.319647c0,-0.850541 0.126526,-1.620242 0.379579,-2.309103c0.260433,-0.688861 0.622087,-1.272295 1.086016,-1.750279c0.47131,-0.477984 1.03646,-0.847019 1.69756,-1.107104c0.661099,-0.260085 1.394951,-0.390122 2.203664,-0.390122zm0,9.141517c0.89939,0 1.563653,-0.302292 1.992787,-0.906771c0.435461,-0.604479 0.653719,-1.490162 0.653719,-2.65705c0,-1.166856 -0.218258,-2.056051 -0.653719,-2.667594c-0.429135,-0.611543 -1.093397,-0.917315 -1.992787,-0.917315c-0.914152,0 -1.588958,0.309283 -2.024419,0.927859c-0.435461,0.611543 -0.653719,1.497227 -0.653719,2.65705c0,1.159823 0.218258,2.045507 0.653719,2.65705c0.435461,0.604479 1.110267,0.906771 2.024419,0.906771zm10.804282,-8.972815l0,6.87459c0,0.660783 0.150777,1.173847 0.453386,1.539402c0.308935,0.358491 0.769701,0.537736 1.381244,0.537736c0.450222,0 0.871976,-0.098374 1.265262,-0.295228c0.393286,-0.203813 0.766538,-0.481538 1.117648,-0.832964l0,-7.823536l2.604331,0l0,10.817989l-1.592121,0c-0.337403,0 -0.558824,-0.158158 -0.664262,-0.474473l-0.179245,-0.864596c-0.224584,0.2249 -0.456549,0.432298 -0.695894,0.622087c-0.239345,0.182725 -0.495561,0.340883 -0.769701,0.474473c-0.266759,0.126526 -0.558824,0.2249 -0.875139,0.295228c-0.308935,0.077286 -0.643175,0.115982 -1.001666,0.115982c-0.590456,0 -1.114485,-0.098374 -1.571033,-0.295228c-0.450222,-0.203813 -0.829801,-0.488497 -1.138736,-0.854052c-0.308935,-0.365555 -0.545117,-0.797853 -0.706438,-1.296893c-0.154995,-0.506105 -0.231965,-1.061449 -0.231965,-1.665928l0,-6.87459l2.604331,0zm10.656668,10.817989l0,-10.817989l1.592121,0c0.337403,0 0.558824,0.158158 0.664262,0.474473l0.179245,0.854052c0.218258,-0.224932 0.447059,-0.428787 0.68535,-0.611543c0.246726,-0.182757 0.502942,-0.340914 0.769701,-0.474473c0.27414,-0.133559 0.566205,-0.235476 0.875139,-0.305772c0.309989,-0.070296 0.647392,-0.105438 1.012209,-0.105438c0.590456,0 1.114485,0.101927 1.571033,0.305772c0.457603,0.196822 0.837182,0.477984 1.138736,0.843508c0.309989,0.358491 0.541954,0.790789 0.695894,1.296893c0.162375,0.499072 0.242509,1.050874 0.242509,1.655384l0,6.885133l-2.604331,0l0,-6.885133c0,-0.660751 -0.15394,-1.170367 -0.463929,-1.528858c-0.301554,-0.365524 -0.759157,-0.54828 -1.3707,-0.54828c-0.449168,0 -0.870922,0.101927 -1.265262,0.305772c-0.393286,0.203844 -0.765483,0.481506 -1.117648,0.832964l0,7.823536l-2.604331,0zm16.592855,0.168702c-0.934185,0 -1.655384,-0.263596 -2.161489,-0.790789c-0.506105,-0.534257 -0.759157,-1.268741 -0.759157,-2.203664l0,-6.041625l-1.09656,0c-0.140233,0 -0.263596,-0.045686 -0.369035,-0.13707c-0.098058,-0.091384 -0.147614,-0.228454 -0.147614,-0.41121l0,-1.033297l1.739735,-0.284684l0.54828,-2.952278c0.028468,-0.140581 0.091731,-0.249541 0.189789,-0.326859c0.105438,-0.077318 0.236182,-0.115982 0.390122,-0.115982l1.349613,0l0,3.405663l2.846839,0l0,1.855717l-2.846839,0l0,5.86238c0,0.337403 0.084351,0.600999 0.253052,0.790789c0.168702,0.189789 0.39434,0.284684 0.674806,0.284684c0.162375,0 0.295228,-0.017608 0.400666,-0.052719c0.112819,-0.042175 0.207714,-0.084351 0.284684,-0.126526c0.084351,-0.042175 0.158158,-0.080871 0.221421,-0.115982c0.063263,-0.042175 0.126526,-0.063263 0.189789,-0.063263c0.078024,0 0.141288,0.021088 0.189789,0.063263c0.049556,0.035111 0.102275,0.091415 0.158158,0.168702l0.780245,1.265262c-0.379579,0.316315 -0.81504,0.555345 -1.307437,0.716982c-0.491343,0.161637 -1.001666,0.242509 -1.528858,0.242509z"/>
 </g>
</svg>