<svg width="5000" height="1000" viewBox="0 0 5000 1000" fill="none" xmlns="http://www.w3.org/2000/svg">
<g clip-path="url(#clip0_955_74071)">
<rect width="5000" height="1000" fill="#42C7BB"/>
<g clip-path="url(#clip1_955_74071)">
<path d="M-81.0299 909.932L108.338 1593.88L637.379 1742.06L108.359 1593.91L-255.166 1492.1C-255.993 1491.87 -256.814 1491.63 -257.634 1491.39C-258.653 1491.09 -259.664 1490.79 -260.676 1490.47C-260.697 1490.46 -260.711 1490.45 -260.732 1490.45C-262.536 1489.88 -264.333 1489.27 -266.115 1488.65C-266.136 1488.64 -266.157 1488.64 -266.172 1488.64C-271.696 1486.69 -277.107 1484.49 -282.405 1482.03C-283.904 1481.33 -285.404 1480.6 -286.889 1479.85C-304.021 1471.29 -319.738 1459.99 -333.384 1446.34C-355.102 1424.62 -370.866 1397.69 -379.147 1368.12L-543.705 780.517L-543.719 780.503C-536.631 783.348 -529.388 785.796 -522.04 787.828L-81.0724 909.89L-81.037 909.897L-81.0299 909.932Z" fill="#42C7BB"/>
<path d="M487.464 1067.3L487.479 1067.34L642.042 1618.3C653.487 1659.04 651.87 1702.34 637.422 1742.07L637.379 1742.06L108.339 1593.88L-81.0292 909.932L-81.0363 909.897L487.408 1067.29L487.464 1067.3Z" fill="#2E8199"/>
<path d="M1177.11 738.304L1177.13 738.318L1326.12 1275.68C1333.87 1303.63 1347.53 1329.61 1366.19 1351.84L975.477 1742.55C967.105 1750.93 957.955 1758.41 948.168 1764.91C946.131 1766.27 944.059 1767.58 941.966 1768.85C941.047 1769.4 940.127 1769.95 939.208 1770.49C938.338 1770.99 937.468 1771.49 936.599 1771.98C934.845 1772.96 933.07 1773.91 931.288 1774.83C930.404 1775.29 929.498 1775.74 928.6 1776.19C927.25 1776.86 925.899 1777.5 924.527 1778.14C923.841 1778.46 923.148 1778.77 922.469 1779.08C920.234 1780.08 917.971 1781.03 915.701 1781.94C908.877 1784.66 901.861 1786.97 894.704 1788.85C864.131 1796.84 831.972 1796.56 801.515 1788.02L637.421 1742.07C651.869 1702.34 653.486 1659.04 642.041 1618.3L487.478 1067.34L487.464 1067.3L656.226 1114.02C690.735 1123.58 727.145 1123.83 761.742 1114.74C796.332 1105.64 827.879 1087.54 853.151 1062.27L1177.11 738.304Z" fill="#B2A5D1"/>
<path d="M187.26 377.523L-55.0657 619.848C-80.3448 645.127 -98.4509 676.674 -107.546 711.264C-116.634 745.861 -116.385 782.271 -106.816 816.773L-81.0373 909.897L-81.0727 909.89L-522.04 787.827C-529.389 785.796 -536.632 783.347 -543.712 780.496L-675.081 311.399C-683.065 282.88 -683.835 252.836 -677.313 223.974C-670.784 195.119 -657.175 168.352 -637.716 146.092L187.26 377.523V377.523Z" fill="#1E9C96"/>
<path d="M281.973 431.125C306.619 455.757 324.498 486.307 333.912 519.833L487.463 1067.3L487.407 1067.29L-81.0377 909.896L-106.816 816.773C-116.386 782.271 -116.634 745.861 -107.546 711.264C-98.4512 676.674 -80.3451 645.127 -55.0661 619.848L187.259 377.522L187.344 377.551L193.25 379.214C226.776 388.614 257.334 406.5 281.973 431.125V431.125Z" fill="#15657A"/>
<path d="M1361.87 -76.9706L1123.53 161.416C1098.23 186.695 1080.12 218.249 1071.02 252.839C1061.93 287.444 1062.17 323.861 1071.74 358.377L1177.11 738.304L853.151 1062.26C827.879 1087.54 796.332 1105.64 761.741 1114.74C727.144 1123.83 690.735 1123.58 656.225 1114.02L487.463 1067.3L333.912 519.833C324.498 486.307 306.619 455.757 281.973 431.125C257.334 406.5 226.776 388.614 193.25 379.214L187.344 377.551L187.259 377.522L714.655 -149.873C739.934 -175.152 771.481 -193.258 806.071 -202.353C840.675 -211.448 877.078 -211.193 911.587 -201.63L1361.85 -76.9776L1361.86 -76.9635L1361.87 -76.9706Z" fill="#5081A7"/>
<path d="M1434.32 -321.419C1456.03 -299.695 1471.79 -272.759 1480.07 -243.193L1490.56 -205.714L1490.57 -205.699L1361.87 -76.9706L1361.86 -76.9847L911.588 -201.63C877.079 -211.193 840.676 -211.448 806.072 -202.353C771.482 -193.258 739.935 -175.152 714.656 -149.873L187.26 377.522L-637.716 146.092C-657.175 168.352 -670.784 195.119 -677.312 223.974C-683.834 252.835 -683.064 282.88 -675.08 311.398L-543.711 780.495C-543.711 780.495 -543.732 780.488 -543.74 780.481L-675.108 311.37C-683.092 282.852 -683.863 252.807 -677.341 223.945C-676.945 222.205 -676.528 220.473 -676.083 218.754C-675.864 217.884 -675.638 217.036 -675.397 216.173C-675.164 215.317 -674.931 214.461 -674.677 213.613C-674.429 212.757 -674.175 211.908 -673.913 211.053C-673.652 210.211 -673.383 209.362 -673.115 208.514C-671.263 202.771 -669.121 197.135 -666.696 191.626C-666.364 190.855 -666.025 190.091 -665.671 189.327C-665.403 188.719 -665.12 188.111 -664.837 187.517C-664.272 186.315 -663.699 185.12 -663.105 183.932C-662.617 182.963 -662.122 181.987 -661.621 181.018C-660.617 179.08 -659.577 177.178 -658.503 175.283C-657.591 173.678 -656.658 172.093 -655.696 170.524C-654.982 169.343 -654.247 168.183 -653.504 167.016C-652.755 165.856 -651.998 164.718 -651.228 163.565C-647.106 157.476 -642.616 151.628 -637.744 146.063C-635.149 143.1 -632.448 140.215 -629.641 137.408L125.443 -617.676C133.808 -626.041 142.952 -633.515 152.732 -640.012C156.805 -642.727 160.998 -645.265 165.284 -647.627L165.298 -647.641C167.709 -648.963 170.149 -650.242 172.624 -651.458C174.131 -652.201 175.644 -652.922 177.172 -653.615C177.992 -653.982 178.812 -654.364 179.633 -654.717C179.696 -654.753 179.767 -654.781 179.838 -654.809C180.396 -655.057 180.941 -655.29 181.5 -655.523C184.682 -656.88 187.907 -658.153 191.167 -659.319C192.221 -659.694 193.282 -660.061 194.342 -660.415C195.41 -660.775 196.478 -661.122 197.553 -661.461C198.982 -661.913 200.417 -662.344 201.853 -662.761C202.574 -662.973 203.303 -663.178 204.031 -663.383C204.753 -663.567 205.474 -663.765 206.195 -663.948C236.768 -671.941 268.928 -671.658 299.384 -663.122L1356.09 -367.175C1385.65 -358.886 1412.59 -343.13 1434.31 -321.412L1434.32 -321.419Z" fill="#73C8CC"/>
<path d="M1628.51 286.901L1776.02 813.516C1784.55 843.98 1784.83 876.139 1776.84 906.712C1776.43 908.282 1775.99 909.852 1775.55 911.415C1775.52 911.486 1775.5 911.563 1775.48 911.641C1775.48 911.669 1775.47 911.676 1775.46 911.698C1775.46 911.719 1775.44 911.747 1775.43 911.768C1774.96 913.402 1774.46 915.036 1773.93 916.641C1773.89 916.811 1773.84 916.974 1773.78 917.129C1773.72 917.341 1773.65 917.539 1773.58 917.737C1773.57 917.78 1773.55 917.829 1773.53 917.872C1773.41 918.282 1773.27 918.685 1773.12 919.088C1773.09 919.215 1773.05 919.343 1773 919.449C1772.89 919.816 1772.76 920.184 1772.63 920.531C1772.61 920.587 1772.61 920.637 1772.58 920.679C1772.52 920.821 1772.47 920.962 1772.42 921.118C1772.38 921.259 1772.33 921.393 1772.27 921.521C1771.79 922.9 1771.27 924.265 1770.76 925.63C1770.38 926.584 1770 927.546 1769.62 928.508C1769.57 928.607 1769.53 928.72 1769.49 928.819C1769.45 928.918 1769.4 929.017 1769.37 929.109C1769.09 929.781 1768.82 930.453 1768.54 931.118C1768.2 931.903 1767.86 932.687 1767.52 933.48C1767.43 933.713 1767.33 933.925 1767.23 934.137C1766.97 934.696 1766.72 935.255 1766.46 935.82C1766.13 936.535 1765.81 937.242 1765.47 937.949C1765.22 938.493 1764.96 939.038 1764.69 939.575C1764.54 939.894 1764.39 940.205 1764.23 940.516C1764.22 940.551 1764.21 940.58 1764.19 940.615C1763.89 941.223 1763.59 941.824 1763.28 942.433C1762.83 943.302 1762.39 944.172 1761.92 945.035C1761.13 946.548 1760.3 948.041 1759.45 949.511C1759.12 950.113 1758.78 950.706 1758.43 951.293C1758.04 951.986 1757.63 952.672 1757.22 953.351C1756.84 953.974 1756.47 954.603 1756.08 955.218C1755.62 955.975 1755.15 956.71 1754.68 957.453C1754.62 957.538 1754.57 957.622 1754.52 957.7C1754.2 958.202 1753.87 958.712 1753.54 959.2C1753.49 959.291 1753.43 959.376 1753.38 959.461C1753.36 959.497 1753.34 959.532 1753.31 959.56C1753.26 959.631 1753.22 959.702 1753.17 959.772C1753.02 960.006 1752.88 960.232 1752.72 960.458C1752.25 961.173 1751.76 961.887 1751.26 962.594C1751.27 962.601 1751.26 962.615 1751.25 962.622C1750.91 963.117 1750.57 963.598 1750.22 964.086C1749.94 964.496 1749.65 964.899 1749.36 965.302C1748.44 966.596 1747.5 967.876 1746.53 969.149C1746.39 969.34 1746.23 969.538 1746.09 969.736C1745.92 969.962 1745.73 970.189 1745.56 970.408C1745.4 970.62 1745.24 970.825 1745.08 971.044C1744.82 971.377 1744.55 971.716 1744.28 972.056C1743.69 972.798 1743.1 973.533 1742.5 974.276C1741.34 975.683 1740.16 977.09 1738.96 978.462C1738.69 978.78 1738.41 979.099 1738.13 979.403C1737.33 980.322 1736.51 981.227 1735.68 982.125C1735.68 982.139 1735.67 982.146 1735.65 982.153C1735.33 982.514 1735 982.875 1734.66 983.228C1734.17 983.758 1733.67 984.289 1733.16 984.812L1733.13 984.84C1732.85 985.137 1732.56 985.441 1732.28 985.724C1731.71 986.311 1731.13 986.898 1730.55 987.478L1366.19 1351.84C1347.53 1329.61 1333.87 1303.63 1326.12 1275.68L1177.12 738.325L1177.1 738.311L1628.51 286.901V286.901Z" fill="#8B8AD1"/>
<path d="M1540.48 -27.4803L1540.49 -27.4662L1628.51 286.901L1177.11 738.304L1071.74 358.377C1062.17 323.861 1061.93 287.444 1071.02 252.84C1080.12 218.249 1098.23 186.695 1123.53 161.416L1361.87 -76.9704L1540.48 -27.4803V-27.4803Z" fill="#3E6CA7"/>
<path d="M1490.56 -205.692L1540.48 -27.4801L1361.87 -76.9703L1490.56 -205.692Z" fill="#5AA8CC"/>
</g>
<g clip-path="url(#clip2_955_74071)">
<path d="M3409.33 -59.4432L3601.22 623.8L3225.21 1024.37L3601.22 623.841L3859.6 348.603C3860.19 347.975 3860.77 347.345 3861.34 346.714C3862.06 345.933 3862.77 345.149 3863.47 344.353C3863.49 344.336 3863.49 344.316 3863.51 344.311C3864.76 342.888 3865.98 341.437 3867.18 339.982C3867.2 339.965 3867.21 339.948 3867.23 339.94C3870.95 335.416 3874.44 330.733 3877.7 325.891C3878.62 324.509 3879.53 323.116 3880.41 321.705C3890.64 305.514 3898.24 287.706 3902.85 268.968C3910.2 239.146 3909.75 207.939 3901.53 178.355L3738.27 -409.61L3738.27 -409.63C3733.68 -403.528 3728.75 -397.685 3723.51 -392.143L3409.34 -59.5015L3409.32 -59.4771L3409.33 -59.4432Z" fill="#42C7BB"/>
<path d="M3004.31 369.403L3004.32 369.446L3157.17 920.877C3168.47 961.667 3192.26 997.88 3225.18 1024.4L3225.21 1024.37L3601.22 623.8L3409.33 -59.4431L3409.32 -59.477L3004.35 369.361L3004.31 369.403Z" fill="#2E8199"/>
<path d="M2243.93 444.767L2243.93 444.786L2394.51 981.708C2402.34 1009.63 2404.1 1038.93 2399.64 1067.61L2936.16 1199.75C2947.65 1202.58 2959.35 1204.25 2971.09 1204.75C2973.54 1204.86 2975.99 1204.91 2978.44 1204.91C2979.51 1204.91 2980.58 1204.9 2981.65 1204.89C2982.65 1204.87 2983.66 1204.85 2984.65 1204.81C2986.66 1204.74 2988.67 1204.64 2990.67 1204.5C2991.67 1204.44 2992.68 1204.36 2993.67 1204.28C2995.18 1204.15 2996.67 1204 2998.17 1203.84C2998.92 1203.75 2999.67 1203.66 3000.42 1203.58C3002.85 1203.28 3005.28 1202.92 3007.69 1202.52C3014.94 1201.32 3022.13 1199.66 3029.23 1197.57C3059.53 1188.59 3086.9 1171.7 3108.54 1148.64L3225.18 1024.4C3192.26 997.88 3168.47 961.667 3157.17 920.877L3004.32 369.446L3004.31 369.403L2884.08 496.709C2859.5 522.749 2828.47 541.803 2794.16 551.93C2759.86 562.048 2723.49 562.88 2688.79 554.333L2243.93 444.767Z" fill="#B2A5D1"/>
<path d="M2850.94 -281.305C2842.59 -247.474 2843.1 -212.08 2852.4 -178.52L3004.31 369.402L3004.35 369.361L3409.32 -59.4772L3383.19 -152.502C3373.52 -186.977 3354.89 -218.262 3329.21 -243.163C3303.53 -268.055 3271.71 -285.68 3237 -294.23L2904.24 -376.186L2904.18 -376.117L2899.99 -371.638C2876.17 -346.245 2859.28 -315.127 2850.94 -281.305V-281.305Z" fill="#15657A"/>
<path d="M1663.95 -157.248L1991.26 -76.6018C2025.98 -68.0596 2057.81 -50.4324 2083.49 -25.5405C2109.18 -0.636392 2127.82 30.65 2137.49 65.1375L2243.93 444.766L2688.79 554.332C2723.49 562.879 2759.86 562.047 2794.16 551.93C2828.47 541.803 2859.5 522.749 2884.08 496.708L3004.31 369.402L2852.4 -178.521C2843.1 -212.08 2842.59 -247.474 2850.94 -281.306C2859.28 -315.127 2876.17 -346.245 2899.99 -371.638L2904.19 -376.118L2904.24 -376.186L2180.04 -554.554C2145.32 -563.104 2108.96 -562.272 2074.65 -552.155C2040.34 -542.03 2009.32 -522.973 1984.74 -496.933L1663.96 -157.265L1663.96 -157.245L1663.95 -157.248Z" fill="#5081A7"/>
<path d="M1475.45 -328.929C1468.12 -299.104 1468.57 -267.898 1476.78 -238.314L1487.21 -200.818L1487.2 -200.799L1663.94 -157.247L1663.95 -157.267L1984.74 -496.932C2009.32 -522.973 2040.34 -542.029 2074.65 -552.154C2108.96 -562.271 2145.32 -563.103 2180.03 -554.554L2904.24 -376.185L3490.41 -1001.13C3518.58 -992.154 3544.07 -976.292 3564.59 -954.98C3585.11 -933.658 3600 -907.55 3607.92 -879.016L3738.26 -409.632C3738.26 -409.632 3738.28 -409.649 3738.28 -409.659L3607.93 -879.055C3600.01 -907.589 3585.12 -933.697 3564.6 -955.019C3563.36 -956.303 3562.11 -957.57 3560.84 -958.81C3560.2 -959.441 3559.57 -960.05 3558.92 -960.664C3558.27 -961.275 3557.63 -961.887 3556.97 -962.481C3556.32 -963.086 3555.66 -963.68 3555 -964.277C3554.34 -964.862 3553.67 -965.449 3553 -966.036C3548.44 -969.992 3543.69 -973.707 3538.77 -977.166C3538.08 -977.654 3537.4 -978.131 3536.7 -978.602C3536.16 -978.984 3535.6 -979.358 3535.05 -979.72C3533.94 -980.456 3532.84 -981.182 3531.71 -981.891C3530.79 -982.468 3529.87 -983.047 3528.94 -983.616C3527.07 -984.755 3525.2 -985.845 3523.3 -986.91C3521.69 -987.812 3520.07 -988.685 3518.43 -989.53C3517.21 -990.171 3515.98 -990.783 3514.74 -991.397C3513.5 -992.002 3512.27 -992.585 3511.01 -993.172C3504.33 -996.249 3497.46 -998.93 3490.42 -1001.17C3486.66 -1002.36 3482.86 -1003.43 3479 -1004.38L2442.14 -1259.76C2430.65 -1262.59 2418.96 -1264.25 2407.23 -1264.75C2402.34 -1264.96 2397.44 -1264.97 2392.55 -1264.77L2392.53 -1264.77C2389.78 -1264.66 2387.03 -1264.49 2384.28 -1264.25C2382.61 -1264.11 2380.94 -1263.94 2379.28 -1263.74C2378.39 -1263.63 2377.49 -1263.53 2376.6 -1263.41C2376.53 -1263.41 2376.45 -1263.4 2376.38 -1263.38C2375.77 -1263.31 2375.18 -1263.22 2374.59 -1263.14C2371.16 -1262.65 2367.74 -1262.07 2364.35 -1261.38C2363.25 -1261.16 2362.16 -1260.92 2361.07 -1260.67C2359.96 -1260.43 2358.87 -1260.17 2357.78 -1259.91C2356.32 -1259.56 2354.87 -1259.18 2353.42 -1258.8C2352.7 -1258.6 2351.97 -1258.4 2351.24 -1258.2C2350.53 -1257.98 2349.81 -1257.78 2349.09 -1257.56C2318.8 -1248.58 2291.43 -1231.7 2269.78 -1208.63L1518.71 -408.562C1497.71 -386.174 1482.81 -358.749 1475.46 -328.927L1475.45 -328.929Z" fill="#73C8CC"/>
<path d="M1624.08 292.1L1770.37 819.052C1778.84 849.533 1795.24 877.198 1817.9 899.223C1819.06 900.354 1820.25 901.471 1821.44 902.578C1821.5 902.624 1821.56 902.68 1821.62 902.735C1821.63 902.759 1821.64 902.762 1821.66 902.776C1821.68 902.791 1821.7 902.808 1821.72 902.822C1822.97 903.975 1824.25 905.113 1825.53 906.213C1825.65 906.336 1825.78 906.45 1825.91 906.554C1826.07 906.706 1826.23 906.838 1826.39 906.971C1826.43 907 1826.47 907.032 1826.51 907.061C1826.83 907.346 1827.15 907.621 1827.49 907.89C1827.58 907.984 1827.68 908.071 1827.77 908.136C1828.06 908.392 1828.36 908.641 1828.66 908.868C1828.7 908.909 1828.73 908.948 1828.77 908.97C1828.9 909.061 1829.02 909.153 1829.13 909.264C1829.24 909.363 1829.36 909.453 1829.47 909.532C1830.6 910.46 1831.75 911.361 1832.9 912.262C1833.71 912.885 1834.54 913.51 1835.36 914.136C1835.45 914.199 1835.54 914.274 1835.63 914.336C1835.72 914.399 1835.81 914.462 1835.88 914.522C1836.47 914.954 1837.05 915.387 1837.64 915.809C1838.33 916.309 1839.03 916.801 1839.73 917.303C1839.93 917.456 1840.12 917.586 1840.32 917.716C1840.83 918.059 1841.33 918.409 1841.84 918.761C1842.5 919.201 1843.14 919.637 1843.8 920.067C1844.29 920.405 1844.8 920.736 1845.3 921.056C1845.6 921.252 1845.89 921.438 1846.18 921.623C1846.21 921.65 1846.23 921.667 1846.27 921.686C1846.84 922.053 1847.41 922.41 1847.99 922.77C1848.82 923.283 1849.65 923.797 1850.5 924.294C1851.96 925.179 1853.44 926.028 1854.93 926.848C1855.52 927.19 1856.12 927.523 1856.72 927.846C1857.42 928.234 1858.12 928.612 1858.82 928.981C1859.47 929.316 1860.12 929.661 1860.77 929.986C1861.55 930.395 1862.33 930.783 1863.12 931.174C1863.21 931.217 1863.31 931.26 1863.39 931.301C1863.92 931.566 1864.46 931.833 1865 932.079C1865.09 932.132 1865.18 932.176 1865.27 932.219C1865.31 932.238 1865.35 932.257 1865.39 932.267C1865.46 932.306 1865.53 932.344 1865.62 932.375C1865.86 932.498 1866.1 932.619 1866.35 932.732C1867.13 933.098 1867.91 933.456 1868.7 933.805C1868.7 933.815 1868.72 933.82 1868.73 933.822C1869.28 934.07 1869.82 934.306 1870.37 934.544C1870.82 934.749 1871.28 934.944 1871.73 935.139C1873.2 935.767 1874.66 936.375 1876.14 936.967C1876.37 937.054 1876.61 937.142 1876.83 937.239C1877.09 937.344 1877.37 937.443 1877.63 937.539C1877.87 937.64 1878.12 937.731 1878.37 937.835C1878.77 937.984 1879.17 938.135 1879.58 938.287C1880.46 938.618 1881.35 938.94 1882.25 939.264C1883.97 939.872 1885.7 940.465 1887.44 941.017C1887.84 941.147 1888.24 941.276 1888.64 941.394C1889.8 941.763 1890.97 942.113 1892.15 942.454C1892.15 942.466 1892.16 942.468 1892.18 942.463C1892.64 942.607 1893.11 942.744 1893.59 942.871C1894.28 943.072 1894.98 943.266 1895.69 943.45L1895.73 943.46C1896.12 943.568 1896.53 943.678 1896.92 943.773C1897.71 943.979 1898.51 944.185 1899.3 944.381L2399.64 1067.61C2404.1 1038.93 2402.34 1009.63 2394.52 981.708L2243.94 444.789L2243.94 444.769L1624.08 292.1V292.1Z" fill="#8B8AD1"/>
<path d="M1536.72 -22.472L1536.72 -22.4527L1624.08 292.1L2243.93 444.767L2137.49 65.1379C2127.82 30.6504 2109.18 -0.635994 2083.49 -25.54C2057.81 -50.432 2025.98 -68.0592 1991.26 -76.6014L1663.95 -157.247L1536.72 -22.472V-22.472Z" fill="#3E6CA7"/>
</g>
<g clip-path="url(#clip3_955_74071)">
<path d="M3927.92 274.37L3737.86 -409.384L4114.94 -808.944L3737.86 -409.425L3478.74 -134.878C3478.15 -134.252 3477.57 -133.623 3476.99 -132.994C3476.28 -132.215 3475.57 -131.433 3474.86 -130.638C3474.85 -130.621 3474.84 -130.602 3474.82 -130.597C3473.57 -129.177 3472.34 -127.729 3471.14 -126.277C3471.12 -126.26 3471.11 -126.243 3471.1 -126.236C3467.36 -121.722 3463.86 -117.048 3460.58 -112.214C3459.66 -110.835 3458.75 -109.444 3457.86 -108.036C3447.59 -91.8719 3439.95 -74.0847 3435.28 -55.3588C3427.86 -25.5564 3428.22 5.65086 3436.36 35.2569L3598.05 623.657L3598.05 623.676C3602.66 617.586 3607.6 611.756 3612.85 606.229L3927.91 274.428L3927.93 274.404L3927.92 274.37Z" fill="#42C7BB"/>
<path d="M4334.09 -153.392L4334.08 -153.436L4182.7 -705.273C4171.52 -746.093 4147.82 -782.369 4114.97 -808.978L4114.94 -808.944L3737.86 -409.383L3927.92 274.37L3927.94 274.404L4334.05 -153.351L4334.09 -153.392Z" fill="#2E8199"/>
<path d="M5094.66 -226.725L5094.67 -226.744L4945.52 -764.066C4937.76 -792.011 4936.09 -821.317 4940.62 -849.983L4404.46 -983.558C4392.97 -986.42 4381.27 -988.117 4369.54 -988.65C4367.09 -988.764 4364.64 -988.818 4362.19 -988.83C4361.12 -988.829 4360.05 -988.828 4358.98 -988.815C4357.98 -988.797 4356.97 -988.779 4355.98 -988.749C4353.97 -988.682 4351.96 -988.585 4349.96 -988.455C4348.96 -988.393 4347.95 -988.314 4346.95 -988.233C4345.45 -988.113 4343.96 -987.969 4342.46 -987.807C4341.71 -987.726 4340.95 -987.636 4340.21 -987.553C4337.78 -987.262 4335.35 -986.908 4332.93 -986.52C4325.68 -985.336 4318.48 -983.697 4311.38 -981.621C4281.06 -972.719 4253.64 -955.909 4231.94 -932.902L4114.97 -808.978C4147.82 -782.369 4171.52 -746.093 4182.7 -705.273L4334.08 -153.436L4334.09 -153.392L4454.66 -280.377C4479.31 -306.352 4510.39 -325.323 4544.72 -335.358C4579.06 -345.384 4615.42 -346.118 4650.1 -337.479L5094.66 -226.725Z" fill="#B2A5D1"/>
<path d="M4432.16 592.46L4099.63 509.615C4064.94 500.973 4033.17 483.263 4007.55 458.303C3981.94 433.333 3963.39 401.999 3953.82 367.498L3927.93 274.404L3927.91 274.428L3612.85 606.229C3607.6 611.756 3602.66 617.586 3598.06 623.678L3727.14 1093.41C3734.99 1121.96 3749.81 1148.11 3770.27 1169.49C3790.73 1190.86 3816.19 1206.79 3844.33 1215.84L4432.16 592.46V592.46Z" fill="#1E9C96"/>
<path d="M4485.72 497.723C4494.16 463.914 4493.74 428.519 4484.54 394.935L4334.09 -153.392L4334.05 -153.351L3927.94 274.404L3953.82 367.498C3963.39 401.999 3981.94 433.333 4007.55 458.303C4033.17 483.264 4064.94 500.973 4099.63 509.616L4432.16 592.46L4432.22 592.392L4436.43 587.924C4460.32 562.595 4477.29 531.523 4485.72 497.723V497.723Z" fill="#15657A"/>
<path d="M5673.04 376.837L5345.95 295.317C5311.25 286.682 5279.46 268.97 5253.85 244.009C5228.23 219.036 5209.67 187.7 5200.09 153.187L5094.66 -226.725L4650.1 -337.479C4615.42 -346.119 4579.06 -345.384 4544.72 -335.358C4510.39 -325.323 4479.31 -306.352 4454.66 -280.377L4334.09 -153.392L4484.54 394.934C4493.74 428.519 4494.16 463.914 4485.72 497.723C4477.29 531.522 4460.32 562.595 4436.43 587.924L4432.22 592.392L4432.16 592.46L5155.89 772.763C5190.58 781.405 5226.95 780.671 5261.28 770.645C5295.62 760.612 5326.69 741.638 5351.34 715.664L5673.03 376.854L5673.03 376.834L5673.04 376.837Z" fill="#5081A7"/>
<path d="M5861.07 549.022C5868.49 519.217 5868.12 488.01 5859.99 458.403L5849.66 420.88L5849.67 420.86L5673.04 376.837L5673.04 376.856L5351.34 715.664C5326.69 741.638 5295.62 760.612 5261.28 770.645C5226.95 780.671 5190.58 781.405 5155.89 772.763L4432.16 592.46L3844.33 1215.84C3816.19 1206.79 3790.73 1190.86 3770.27 1169.49C3749.81 1148.11 3734.99 1121.96 3727.14 1093.41L3598.06 623.678C3598.06 623.678 3598.04 623.695 3598.04 623.705L3727.13 1093.45C3734.98 1122 3749.8 1148.15 3770.26 1169.53C3771.5 1170.81 3772.75 1172.08 3774.01 1173.33C3774.65 1173.96 3775.28 1174.57 3775.93 1175.19C3776.57 1175.8 3777.21 1176.41 3777.87 1177.01C3778.52 1177.62 3779.18 1178.21 3779.84 1178.81C3780.5 1179.4 3781.17 1179.99 3781.83 1180.58C3786.38 1184.54 3791.12 1188.27 3796.03 1191.74C3796.72 1192.23 3797.4 1192.71 3798.1 1193.19C3798.64 1193.57 3799.2 1193.94 3799.74 1194.31C3800.85 1195.05 3801.96 1195.78 3803.08 1196.49C3803.99 1197.07 3804.92 1197.65 3805.85 1198.22C3807.71 1199.36 3809.58 1200.46 3811.48 1201.53C3813.09 1202.44 3814.7 1203.31 3816.33 1204.16C3817.55 1204.81 3818.78 1205.42 3820.02 1206.04C3821.26 1206.65 3822.49 1207.23 3823.75 1207.82C3830.42 1210.92 3837.28 1213.62 3844.32 1215.88C3848.07 1217.08 3851.87 1218.16 3855.73 1219.12L4891.9 1477.26C4903.38 1480.12 4915.07 1481.82 4926.8 1482.35C4931.69 1482.58 4936.59 1482.59 4941.48 1482.41L4941.5 1482.41C4944.25 1482.3 4947 1482.14 4949.75 1481.91C4951.42 1481.77 4953.09 1481.61 4954.76 1481.42C4955.65 1481.31 4956.55 1481.21 4957.43 1481.09C4957.51 1481.09 4957.58 1481.08 4957.66 1481.07C4958.26 1480.99 4958.85 1480.91 4959.45 1480.82C4962.87 1480.35 4966.29 1479.77 4969.69 1479.09C4970.79 1478.87 4971.88 1478.64 4972.98 1478.4C4974.08 1478.16 4975.17 1477.9 4976.27 1477.64C4977.72 1477.29 4979.18 1476.92 4980.62 1476.54C4981.35 1476.35 4982.08 1476.15 4982.81 1475.95C4983.52 1475.74 4984.24 1475.53 4984.95 1475.32C5015.28 1466.42 5042.69 1449.61 5064.4 1426.6L5817.6 628.539C5838.67 606.207 5853.64 578.822 5861.06 549.019L5861.07 549.022Z" fill="#73C8CC"/>
<path d="M5800.62 242.402L5800.63 242.383L5714.11 -72.4017L5094.66 -226.725L5200.09 153.187C5209.67 187.701 5228.23 219.037 5253.85 244.009C5279.46 268.97 5311.25 286.682 5345.95 295.317L5673.04 376.837L5800.62 242.402V242.402Z" fill="#3E6CA7"/>
</g>
<rect width="5000" height="1000" fill="#3C4A63" fill-opacity="0.8"/>
</g>
<defs>
<clipPath id="clip0_955_74071">
<rect width="5000" height="1000" fill="white"/>
</clipPath>
<clipPath id="clip1_955_74071">
<rect width="2500" height="2270" fill="white" transform="translate(-1136 643.768) rotate(-45)"/>
</clipPath>
<clipPath id="clip2_955_74071">
<rect width="2500" height="2270" fill="white" transform="matrix(-0.970983 -0.239148 -0.239148 0.970983 4174.32 -833.13)"/>
</clipPath>
<clipPath id="clip3_955_74071">
<rect width="2500" height="2270" fill="white" transform="matrix(0.970341 0.241741 0.241741 -0.970341 3160.87 1046.01)"/>
</clipPath>
</defs>
</svg>