<svg width="18" height="18" xmlns="http://www.w3.org/2000/svg">

 <g>
  <title>background</title>
  <rect fill="none" id="canvas_background" height="20" width="20" y="-1" x="-1"/>
 </g>
 <g>
  <title>Layer 1</title>
  <path stroke="null" id="svg_1" fill="#5BB0B5" d="m10.896496,9.029417l6.187441,-6.187446c0.515566,-0.515495 0.515566,-1.351477 0,-1.867053c-0.515511,-0.5155 -1.351515,-0.5155 -1.86708,0l-6.187441,6.187419l-6.187424,-6.187419c-0.5155,-0.515576 -1.351335,-0.515576 -1.86707,0c-0.515582,0.515495 -0.515582,1.351477 0,1.867053l6.187413,6.187446l-6.187413,6.187441c-0.515582,0.515511 -0.515582,1.35146 0,1.86708c0.515576,0.515566 1.351493,0.515566 1.86707,0l6.187424,-6.187441l6.187441,6.187441c0.515402,0.515457 1.351297,0.51562 1.86708,0c0.515566,-0.515511 0.515566,-1.351515 0,-1.86708l-6.187441,-6.187441z"/>
 </g>
</svg>