<svg width="16" height="16" xmlns="http://www.w3.org/2000/svg">

 <g>
  <title>background</title>
  <rect fill="none" id="canvas_background" height="18" width="18" y="-1" x="-1"/>
 </g>
 <g>
  <title>Layer 1</title>
  <path stroke="null" id="svg_1" fill="#5BB0B5" d="m9.764889,7.996226l5.861285,-5.861291c0.488389,-0.488322 0.488389,-1.280237 0,-1.768636c-0.488337,-0.488327 -1.280273,-0.488327 -1.768662,0l-5.861285,5.861265l-5.86127,-5.861265c-0.488327,-0.488399 -1.280103,-0.488399 -1.768652,0c-0.488404,0.488322 -0.488404,1.280237 0,1.768636l5.86126,5.861291l-5.86126,5.861285c-0.488404,0.488337 -0.488404,1.280222 0,1.768662c0.488399,0.488389 1.280253,0.488389 1.768652,0l5.86127,-5.861285l5.861285,5.861285c0.488234,0.488286 1.280067,0.48844 1.768662,0c0.488389,-0.488337 0.488389,-1.280273 0,-1.768662l-5.861285,-5.861285z"/>
 </g>
</svg>