<svg width="31" height="31" viewBox="0 0 31 31" fill="none" xmlns="http://www.w3.org/2000/svg">
<path d="M18.9284 15.5L30.29 4.13839C31.2367 3.19182 31.2367 1.65676 30.29 0.710038C29.3434 -0.236538 27.8083 -0.236538 26.8616 0.710038L15.5 12.0716L4.13843 0.710038C3.19185 -0.23668 1.65706 -0.23668 0.710046 0.710038C-0.236681 1.65661 -0.236681 3.19167 0.710046 4.13839L12.0716 15.5L0.710046 26.8616C-0.236681 27.8082 -0.236681 29.3432 0.710046 30.29C1.65677 31.2367 3.19171 31.2367 4.13843 30.29L15.5 18.9284L26.8616 30.29C27.808 31.2365 29.3429 31.2368 30.29 30.29C31.2367 29.3434 31.2367 27.8083 30.29 26.8616L18.9284 15.5Z" fill="#5BB0B5"/>
</svg>
