<svg width="16" height="16" viewBox="0 0 16 16" fill="none" xmlns="http://www.w3.org/2000/svg">
    <path d="M7.33325 11.3333H8.66659V7.33334H7.33325V11.3333ZM7.99992 1.33334C4.31992 1.33334 1.33325 4.32001 1.33325 8.00001C1.33325 11.68 4.31992 14.6667 7.99992 14.6667C11.6799 14.6667 14.6666 11.68 14.6666 8.00001C14.6666 4.32001 11.6799 1.33334 7.99992 1.33334ZM7.99992 13.3333C5.05992 13.3333 2.66659 10.94 2.66659 8.00001C2.66659 5.06001 5.05992 2.66668 7.99992 2.66668C10.9399 2.66668 13.3333 5.06001 13.3333 8.00001C13.3333 10.94 10.9399 13.3333 7.99992 13.3333ZM7.33325 6.00001H8.66659V4.66668H7.33325V6.00001Z" fill="#878E95"/>
    <circle cx="8" cy="8" r="6" fill="#878E95" fill-opacity="0.3"/>
</svg>
