<svg width="20" height="20" viewBox="0 0 20 20" fill="none" xmlns="http://www.w3.org/2000/svg">
<path d="M9.99999 0C4.47634 0 0 4.47634 0 10C0 15.5237 4.47634 20 9.99999 20C15.5237 20 20 15.5237 20 10C20.0077 4.47634 15.5237 0 9.99999 0ZM10.8223 15.6168H9.13886V8.6346H10.8223V15.6168ZM9.98448 6.98991C9.25523 6.98991 8.64235 6.37704 8.64235 5.65555C8.64235 4.89527 9.25523 4.29791 9.98448 4.29791C10.737 4.29791 11.3654 4.90303 11.3654 5.65555C11.3654 6.37704 10.737 6.98991 9.98448 6.98991Z" fill="#5BB0B5"/>
</svg>
