<svg width="23" height="20" viewBox="0 0 23 20" fill="none" xmlns="http://www.w3.org/2000/svg">
<mask id="mask0" mask-type="alpha" maskUnits="userSpaceOnUse" x="0" y="0" width="23" height="21">
<path d="M15.1529 9.60343e-07C16.2357 9.60343e-07 17.2345 0.5835 17.7663 1.52674L21.7125 8.52674C22.228 9.44126 22.228 10.5587 21.7125 11.4733L17.7663 18.4733C17.2345 19.4165 16.2357 20 15.1529 20H7.3901C6.3073 20 5.30852 19.4165 4.77677 18.4733L0.830545 11.4733C0.314991 10.5587 0.31499 9.44126 0.830545 8.52674L4.77677 1.52675C5.30852 0.583502 6.3073 9.60343e-07 7.3901 9.60343e-07H15.1529Z" fill="#F5B33C"/>
</mask>
<g mask="url(#mask0)">
<path d="M15.1529 9.60343e-07C16.2357 9.60343e-07 17.2345 0.5835 17.7663 1.52674L21.7125 8.52674C22.228 9.44126 22.228 10.5587 21.7125 11.4733L17.7663 18.4733C17.2345 19.4165 16.2357 20 15.1529 20H7.3901C6.3073 20 5.30852 19.4165 4.77677 18.4733L0.830545 11.4733C0.314991 10.5587 0.31499 9.44126 0.830545 8.52674L4.77677 1.52675C5.30852 0.583502 6.3073 9.60343e-07 7.3901 9.60343e-07H15.1529Z" fill="white"/>
<path d="M2.98425 -3.03955C4.06754 -3.03955 5.06669 -2.45553 5.59825 -1.51163L9.84936 6.03715C10.364 6.95106 10.364 8.0674 9.84936 8.98131L5.59825 16.5301C5.06669 17.474 4.06754 18.058 2.98425 18.058H-5.38256C-6.46585 18.058 -7.465 17.474 -7.99656 16.5301L-12.2477 8.98131C-12.7623 8.0674 -12.7623 6.95106 -12.2477 6.03715L-7.99656 -1.51162C-7.465 -2.45553 -6.46585 -3.03955 -5.38256 -3.03955H2.98425Z" fill="#42C7BB" style="mix-blend-mode:multiply"/>
<path d="M16.0378 6.58545C17.1174 6.58545 18.1138 7.16556 18.6467 8.10446L22.7934 15.4093C23.3148 16.3278 23.3148 17.4528 22.7934 18.3713L18.6467 25.6762C18.1138 26.6151 17.1174 27.1952 16.0378 27.1952H7.83898C6.75936 27.1952 5.763 26.6151 5.23002 25.6762L1.08337 18.3713C0.56198 17.4528 0.561981 16.3278 1.08337 15.4093L5.23003 8.10446C5.763 7.16556 6.75936 6.58545 7.83898 6.58545H16.0378Z" fill="#B2A5D1"/>
<path d="M19.9159 -7.31689C20.9955 -7.31689 21.9918 -6.73681 22.5248 -5.79795L27.1563 2.36059C27.6778 3.27911 27.6778 4.40417 27.1563 5.3227L22.5248 13.4812C21.9918 14.4201 20.9955 15.0002 19.9159 15.0002H10.7477C9.66811 15.0002 8.67176 14.4201 8.13878 13.4812L3.50728 5.32269C2.98584 4.40417 2.98584 3.27911 3.50728 2.36059L8.13878 -5.79795C8.67177 -6.73681 9.66811 -7.31689 10.7477 -7.31689H19.9159Z" fill="#73C8CC" style="mix-blend-mode:multiply"/>
<path d="M24.1272 11.8115C25.2072 11.8115 26.2039 12.3921 26.7367 13.3316L30.1879 19.4169C30.7085 20.3349 30.7085 21.4589 30.1879 22.3768L26.7367 28.4622C26.2039 29.4017 25.2072 29.9823 24.1272 29.9823H17.3234C16.2433 29.9823 15.2466 29.4017 14.7138 28.4622L11.2626 22.3768C10.7421 21.4589 10.7421 20.3349 11.2626 19.417L14.7138 13.3316C15.2466 12.3921 16.2433 11.8115 17.3234 11.8115H24.1272Z" fill="#C7D6FF" style="mix-blend-mode:multiply"/>
</g>
</svg>
