<svg width="176" height="21" viewBox="0 0 176 21" fill="none" xmlns="http://www.w3.org/2000/svg">
<path d="M36.466 4.103C36.622 4.103 36.736 4.124 36.808 4.166C36.886 4.202 36.973 4.28 37.069 4.4L44.539 14.12C44.521 13.964 44.509 13.814 44.503 13.67C44.497 13.52 44.494 13.376 44.494 13.238V4.103H46.024V17H45.142C45.004 17 44.887 16.976 44.791 16.928C44.701 16.88 44.611 16.799 44.521 16.685L37.06 6.974C37.072 7.124 37.081 7.271 37.087 7.415C37.093 7.559 37.096 7.691 37.096 7.811V17H35.566V4.103H36.466ZM52.6095 7.739C53.2755 7.739 53.8755 7.85 54.4095 8.072C54.9495 8.294 55.4055 8.609 55.7775 9.017C56.1555 9.425 56.4435 9.92 56.6415 10.502C56.8455 11.078 56.9475 11.723 56.9475 12.437C56.9475 13.157 56.8455 13.805 56.6415 14.381C56.4435 14.957 56.1555 15.449 55.7775 15.857C55.4055 16.265 54.9495 16.58 54.4095 16.802C53.8755 17.018 53.2755 17.126 52.6095 17.126C51.9435 17.126 51.3405 17.018 50.8005 16.802C50.2665 16.58 49.8105 16.265 49.4325 15.857C49.0545 15.449 48.7635 14.957 48.5595 14.381C48.3555 13.805 48.2535 13.157 48.2535 12.437C48.2535 11.723 48.3555 11.078 48.5595 10.502C48.7635 9.92 49.0545 9.425 49.4325 9.017C49.8105 8.609 50.2665 8.294 50.8005 8.072C51.3405 7.85 51.9435 7.739 52.6095 7.739ZM52.6095 15.875C53.5095 15.875 54.1815 15.575 54.6255 14.975C55.0695 14.369 55.2915 13.526 55.2915 12.446C55.2915 11.36 55.0695 10.514 54.6255 9.908C54.1815 9.302 53.5095 8.999 52.6095 8.999C52.1535 8.999 51.7575 9.077 51.4215 9.233C51.0855 9.389 50.8035 9.614 50.5755 9.908C50.3535 10.202 50.1855 10.565 50.0715 10.997C49.9635 11.423 49.9095 11.906 49.9095 12.446C49.9095 12.986 49.9635 13.469 50.0715 13.895C50.1855 14.321 50.3535 14.681 50.5755 14.975C50.8035 15.263 51.0855 15.485 51.4215 15.641C51.7575 15.797 52.1535 15.875 52.6095 15.875ZM58.9214 17V7.883H59.8754C60.1034 7.883 60.2474 7.994 60.3074 8.216L60.4244 9.152C60.7604 8.738 61.1354 8.399 61.5494 8.135C61.9694 7.871 62.4554 7.739 63.0074 7.739C63.6254 7.739 64.1234 7.91 64.5014 8.252C64.8854 8.594 65.1614 9.056 65.3294 9.638C65.4554 9.308 65.6204 9.023 65.8244 8.783C66.0344 8.543 66.2684 8.345 66.5264 8.189C66.7844 8.033 67.0574 7.919 67.3454 7.847C67.6394 7.775 67.9364 7.739 68.2364 7.739C68.7164 7.739 69.1424 7.817 69.5144 7.973C69.8924 8.123 70.2104 8.345 70.4684 8.639C70.7324 8.933 70.9334 9.296 71.0714 9.728C71.2094 10.154 71.2784 10.643 71.2784 11.195V17H69.6764V11.195C69.6764 10.481 69.5204 9.941 69.2084 9.575C68.8964 9.203 68.4434 9.017 67.8494 9.017C67.5854 9.017 67.3334 9.065 67.0934 9.161C66.8594 9.251 66.6524 9.386 66.4724 9.566C66.2924 9.746 66.1484 9.974 66.0404 10.25C65.9384 10.52 65.8874 10.835 65.8874 11.195V17H64.2854V11.195C64.2854 10.463 64.1384 9.917 63.8444 9.557C63.5504 9.197 63.1214 9.017 62.5574 9.017C62.1614 9.017 61.7924 9.125 61.4504 9.341C61.1144 9.551 60.8054 9.839 60.5234 10.205V17H58.9214ZM75.4866 7.883V17H73.8846V7.883H75.4866ZM75.8466 5.021C75.8466 5.177 75.8136 5.324 75.7476 5.462C75.6876 5.594 75.6036 5.714 75.4956 5.822C75.3936 5.924 75.2736 6.005 75.1356 6.065C74.9976 6.125 74.8506 6.155 74.6946 6.155C74.5386 6.155 74.3916 6.125 74.2536 6.065C74.1216 6.005 74.0016 5.924 73.8936 5.822C73.7916 5.714 73.7106 5.594 73.6506 5.462C73.5906 5.324 73.5606 5.177 73.5606 5.021C73.5606 4.865 73.5906 4.718 73.6506 4.58C73.7106 4.436 73.7916 4.313 73.8936 4.211C74.0016 4.103 74.1216 4.019 74.2536 3.959C74.3916 3.899 74.5386 3.869 74.6946 3.869C74.8506 3.869 74.9976 3.899 75.1356 3.959C75.2736 4.019 75.3936 4.103 75.4956 4.211C75.6036 4.313 75.6876 4.436 75.7476 4.58C75.8136 4.718 75.8466 4.865 75.8466 5.021ZM78.3101 17V7.883H79.2641C79.4921 7.883 79.6361 7.994 79.6961 8.216L79.8221 9.206C80.2181 8.768 80.6591 8.414 81.1451 8.144C81.6371 7.874 82.2041 7.739 82.8461 7.739C83.3441 7.739 83.7821 7.823 84.1601 7.991C84.5441 8.153 84.8621 8.387 85.1141 8.693C85.3721 8.993 85.5671 9.356 85.6991 9.782C85.8311 10.208 85.8971 10.679 85.8971 11.195V17H84.2951V11.195C84.2951 10.505 84.1361 9.971 83.8181 9.593C83.5061 9.209 83.0261 9.017 82.3781 9.017C81.9041 9.017 81.4601 9.131 81.0461 9.359C80.6381 9.587 80.2601 9.896 79.9121 10.286V17H78.3101ZM95.008 17H94.297C94.141 17 94.015 16.976 93.919 16.928C93.823 16.88 93.76 16.778 93.73 16.622L93.55 15.776C93.31 15.992 93.076 16.187 92.848 16.361C92.62 16.529 92.38 16.673 92.128 16.793C91.876 16.907 91.606 16.994 91.318 17.054C91.036 17.114 90.721 17.144 90.373 17.144C90.019 17.144 89.686 17.096 89.374 17C89.068 16.898 88.801 16.748 88.573 16.55C88.345 16.352 88.162 16.103 88.024 15.803C87.892 15.497 87.826 15.137 87.826 14.723C87.826 14.363 87.925 14.018 88.123 13.688C88.321 13.352 88.639 13.055 89.077 12.797C89.521 12.539 90.1 12.329 90.814 12.167C91.528 11.999 92.401 11.903 93.433 11.879V11.168C93.433 10.46 93.28 9.926 92.974 9.566C92.674 9.2 92.227 9.017 91.633 9.017C91.243 9.017 90.913 9.068 90.643 9.17C90.379 9.266 90.148 9.377 89.95 9.503C89.758 9.623 89.59 9.734 89.446 9.836C89.308 9.932 89.17 9.98 89.032 9.98C88.924 9.98 88.828 9.953 88.744 9.899C88.666 9.839 88.603 9.767 88.555 9.683L88.267 9.17C88.771 8.684 89.314 8.321 89.896 8.081C90.478 7.841 91.123 7.721 91.831 7.721C92.341 7.721 92.794 7.805 93.19 7.973C93.586 8.141 93.919 8.375 94.189 8.675C94.459 8.975 94.663 9.338 94.801 9.764C94.939 10.19 95.008 10.658 95.008 11.168V17ZM90.85 16.019C91.132 16.019 91.39 15.992 91.624 15.938C91.858 15.878 92.077 15.797 92.281 15.695C92.491 15.587 92.689 15.458 92.875 15.308C93.067 15.158 93.253 14.987 93.433 14.795V12.896C92.695 12.92 92.068 12.98 91.552 13.076C91.036 13.166 90.616 13.286 90.292 13.436C89.968 13.586 89.731 13.763 89.581 13.967C89.437 14.171 89.365 14.399 89.365 14.651C89.365 14.891 89.404 15.098 89.482 15.272C89.56 15.446 89.665 15.59 89.797 15.704C89.929 15.812 90.085 15.893 90.265 15.947C90.445 15.995 90.64 16.019 90.85 16.019ZM100.198 17.144C99.4781 17.144 98.9231 16.943 98.5331 16.541C98.1491 16.139 97.9571 15.56 97.9571 14.804V9.224H96.8591C96.7631 9.224 96.6821 9.197 96.6161 9.143C96.5501 9.083 96.5171 8.993 96.5171 8.873V8.234L98.0111 8.045L98.3801 5.228C98.3921 5.138 98.4311 5.066 98.4971 5.012C98.5631 4.952 98.6471 4.922 98.7491 4.922H99.5591V8.063H102.169V9.224H99.5591V14.696C99.5591 15.08 99.6521 15.365 99.8381 15.551C100.024 15.737 100.264 15.83 100.558 15.83C100.726 15.83 100.87 15.809 100.99 15.767C101.116 15.719 101.224 15.668 101.314 15.614C101.404 15.56 101.479 15.512 101.539 15.47C101.605 15.422 101.662 15.398 101.71 15.398C101.794 15.398 101.869 15.449 101.935 15.551L102.403 16.316C102.127 16.574 101.794 16.778 101.404 16.928C101.014 17.072 100.612 17.144 100.198 17.144ZM107.759 7.739C108.305 7.739 108.809 7.832 109.271 8.018C109.733 8.198 110.132 8.462 110.468 8.81C110.804 9.152 111.065 9.578 111.251 10.088C111.443 10.592 111.539 11.168 111.539 11.816C111.539 12.068 111.512 12.236 111.458 12.32C111.404 12.404 111.302 12.446 111.152 12.446H105.086C105.098 13.022 105.176 13.523 105.32 13.949C105.464 14.375 105.662 14.732 105.914 15.02C106.166 15.302 106.466 15.515 106.814 15.659C107.162 15.797 107.552 15.866 107.984 15.866C108.386 15.866 108.731 15.821 109.019 15.731C109.313 15.635 109.565 15.533 109.775 15.425C109.985 15.317 110.159 15.218 110.297 15.128C110.441 15.032 110.564 14.984 110.666 14.984C110.798 14.984 110.9 15.035 110.972 15.137L111.422 15.722C111.224 15.962 110.987 16.172 110.711 16.352C110.435 16.526 110.138 16.67 109.82 16.784C109.508 16.898 109.184 16.982 108.848 17.036C108.512 17.096 108.179 17.126 107.849 17.126C107.219 17.126 106.637 17.021 106.103 16.811C105.575 16.595 105.116 16.283 104.726 15.875C104.342 15.461 104.042 14.951 103.826 14.345C103.61 13.739 103.502 13.043 103.502 12.257C103.502 11.621 103.598 11.027 103.79 10.475C103.988 9.923 104.27 9.446 104.636 9.044C105.002 8.636 105.449 8.318 105.977 8.09C106.505 7.856 107.099 7.739 107.759 7.739ZM107.795 8.918C107.021 8.918 106.412 9.143 105.968 9.593C105.524 10.037 105.248 10.655 105.14 11.447H110.099C110.099 11.075 110.048 10.736 109.946 10.43C109.844 10.118 109.694 9.851 109.496 9.629C109.298 9.401 109.055 9.227 108.767 9.107C108.485 8.981 108.161 8.918 107.795 8.918ZM120.006 17C119.778 17 119.634 16.889 119.574 16.667L119.43 15.56C119.04 16.034 118.593 16.415 118.089 16.703C117.591 16.985 117.018 17.126 116.37 17.126C115.848 17.126 115.374 17.027 114.948 16.829C114.522 16.625 114.159 16.328 113.859 15.938C113.559 15.548 113.328 15.062 113.166 14.48C113.004 13.898 112.923 13.229 112.923 12.473C112.923 11.801 113.013 11.177 113.193 10.601C113.373 10.019 113.631 9.515 113.967 9.089C114.309 8.663 114.723 8.33 115.209 8.09C115.695 7.844 116.247 7.721 116.865 7.721C117.423 7.721 117.9 7.817 118.296 8.009C118.692 8.195 119.046 8.459 119.358 8.801V3.743H120.96V17H120.006ZM116.901 15.83C117.423 15.83 117.879 15.71 118.269 15.47C118.665 15.23 119.028 14.891 119.358 14.453V10.043C119.064 9.647 118.74 9.371 118.386 9.215C118.038 9.053 117.651 8.972 117.225 8.972C116.373 8.972 115.719 9.275 115.263 9.881C114.807 10.487 114.579 11.351 114.579 12.473C114.579 13.067 114.63 13.577 114.732 14.003C114.834 14.423 114.984 14.771 115.182 15.047C115.38 15.317 115.623 15.515 115.911 15.641C116.199 15.767 116.529 15.83 116.901 15.83ZM136.161 4.103V5.57H131.994V17H130.248V5.57H126.063V4.103H136.161ZM142.188 17H141.477C141.321 17 141.195 16.976 141.099 16.928C141.003 16.88 140.94 16.778 140.91 16.622L140.73 15.776C140.49 15.992 140.256 16.187 140.028 16.361C139.8 16.529 139.56 16.673 139.308 16.793C139.056 16.907 138.786 16.994 138.498 17.054C138.216 17.114 137.901 17.144 137.553 17.144C137.199 17.144 136.866 17.096 136.554 17C136.248 16.898 135.981 16.748 135.753 16.55C135.525 16.352 135.342 16.103 135.204 15.803C135.072 15.497 135.006 15.137 135.006 14.723C135.006 14.363 135.105 14.018 135.303 13.688C135.501 13.352 135.819 13.055 136.257 12.797C136.701 12.539 137.28 12.329 137.994 12.167C138.708 11.999 139.581 11.903 140.613 11.879V11.168C140.613 10.46 140.46 9.926 140.154 9.566C139.854 9.2 139.407 9.017 138.813 9.017C138.423 9.017 138.093 9.068 137.823 9.17C137.559 9.266 137.328 9.377 137.13 9.503C136.938 9.623 136.77 9.734 136.626 9.836C136.488 9.932 136.35 9.98 136.212 9.98C136.104 9.98 136.008 9.953 135.924 9.899C135.846 9.839 135.783 9.767 135.735 9.683L135.447 9.17C135.951 8.684 136.494 8.321 137.076 8.081C137.658 7.841 138.303 7.721 139.011 7.721C139.521 7.721 139.974 7.805 140.37 7.973C140.766 8.141 141.099 8.375 141.369 8.675C141.639 8.975 141.843 9.338 141.981 9.764C142.119 10.19 142.188 10.658 142.188 11.168V17ZM138.03 16.019C138.312 16.019 138.57 15.992 138.804 15.938C139.038 15.878 139.257 15.797 139.461 15.695C139.671 15.587 139.869 15.458 140.055 15.308C140.247 15.158 140.433 14.987 140.613 14.795V12.896C139.875 12.92 139.248 12.98 138.732 13.076C138.216 13.166 137.796 13.286 137.472 13.436C137.148 13.586 136.911 13.763 136.761 13.967C136.617 14.171 136.545 14.399 136.545 14.651C136.545 14.891 136.584 15.098 136.662 15.272C136.74 15.446 136.845 15.59 136.977 15.704C137.109 15.812 137.265 15.893 137.445 15.947C137.625 15.995 137.82 16.019 138.03 16.019ZM144.615 17V7.883H145.533C145.707 7.883 145.827 7.916 145.893 7.982C145.959 8.048 146.004 8.162 146.028 8.324L146.136 9.746C146.448 9.11 146.832 8.615 147.288 8.261C147.75 7.901 148.29 7.721 148.908 7.721C149.16 7.721 149.388 7.751 149.592 7.811C149.796 7.865 149.985 7.943 150.159 8.045L149.952 9.242C149.91 9.392 149.817 9.467 149.673 9.467C149.589 9.467 149.46 9.44 149.286 9.386C149.112 9.326 148.869 9.296 148.557 9.296C147.999 9.296 147.531 9.458 147.153 9.782C146.781 10.106 146.469 10.577 146.217 11.195V17H144.615ZM154.944 7.73C155.34 7.73 155.709 7.775 156.051 7.865C156.399 7.949 156.714 8.075 156.996 8.243H159.471V8.837C159.471 9.035 159.345 9.161 159.093 9.215L158.058 9.359C158.262 9.749 158.364 10.184 158.364 10.664C158.364 11.108 158.277 11.513 158.103 11.879C157.935 12.239 157.698 12.548 157.392 12.806C157.092 13.064 156.732 13.262 156.312 13.4C155.898 13.538 155.442 13.607 154.944 13.607C154.518 13.607 154.116 13.556 153.738 13.454C153.546 13.574 153.399 13.703 153.297 13.841C153.201 13.979 153.153 14.114 153.153 14.246C153.153 14.462 153.24 14.627 153.414 14.741C153.588 14.849 153.819 14.927 154.107 14.975C154.395 15.023 154.722 15.053 155.088 15.065C155.454 15.077 155.826 15.098 156.204 15.128C156.588 15.152 156.963 15.197 157.329 15.263C157.695 15.329 158.022 15.437 158.31 15.587C158.598 15.737 158.829 15.944 159.003 16.208C159.177 16.472 159.264 16.814 159.264 17.234C159.264 17.624 159.165 18.002 158.967 18.368C158.775 18.734 158.496 19.058 158.13 19.34C157.764 19.628 157.317 19.856 156.789 20.024C156.261 20.198 155.664 20.285 154.998 20.285C154.332 20.285 153.747 20.219 153.243 20.087C152.745 19.955 152.331 19.778 152.001 19.556C151.671 19.334 151.422 19.076 151.254 18.782C151.092 18.494 151.011 18.191 151.011 17.873C151.011 17.423 151.152 17.042 151.434 16.73C151.722 16.412 152.115 16.16 152.613 15.974C152.355 15.854 152.148 15.695 151.992 15.497C151.842 15.293 151.767 15.023 151.767 14.687C151.767 14.555 151.791 14.42 151.839 14.282C151.887 14.138 151.959 13.997 152.055 13.859C152.157 13.721 152.28 13.589 152.424 13.463C152.568 13.337 152.736 13.226 152.928 13.13C152.478 12.878 152.124 12.545 151.866 12.131C151.614 11.711 151.488 11.222 151.488 10.664C151.488 10.22 151.572 9.818 151.74 9.458C151.914 9.092 152.154 8.783 152.46 8.531C152.766 8.273 153.129 8.075 153.549 7.937C153.975 7.799 154.44 7.73 154.944 7.73ZM157.788 17.495C157.788 17.267 157.725 17.084 157.599 16.946C157.473 16.808 157.302 16.703 157.086 16.631C156.87 16.553 156.621 16.496 156.339 16.46C156.057 16.424 155.76 16.4 155.448 16.388C155.136 16.37 154.818 16.352 154.494 16.334C154.17 16.316 153.861 16.283 153.567 16.235C153.225 16.397 152.946 16.595 152.73 16.829C152.52 17.063 152.415 17.342 152.415 17.666C152.415 17.87 152.466 18.059 152.568 18.233C152.676 18.413 152.838 18.566 153.054 18.692C153.27 18.824 153.54 18.926 153.864 18.998C154.194 19.076 154.581 19.115 155.025 19.115C155.457 19.115 155.844 19.076 156.186 18.998C156.528 18.92 156.816 18.809 157.05 18.665C157.29 18.521 157.473 18.35 157.599 18.152C157.725 17.954 157.788 17.735 157.788 17.495ZM154.944 12.545C155.268 12.545 155.553 12.5 155.799 12.41C156.051 12.32 156.261 12.194 156.429 12.032C156.597 11.87 156.723 11.678 156.807 11.456C156.891 11.228 156.933 10.979 156.933 10.709C156.933 10.151 156.762 9.707 156.42 9.377C156.084 9.047 155.592 8.882 154.944 8.882C154.302 8.882 153.81 9.047 153.468 9.377C153.132 9.707 152.964 10.151 152.964 10.709C152.964 10.979 153.006 11.228 153.09 11.456C153.18 11.678 153.309 11.87 153.477 12.032C153.645 12.194 153.852 12.32 154.098 12.41C154.344 12.5 154.626 12.545 154.944 12.545ZM164.677 7.739C165.223 7.739 165.727 7.832 166.189 8.018C166.651 8.198 167.05 8.462 167.386 8.81C167.722 9.152 167.983 9.578 168.169 10.088C168.361 10.592 168.457 11.168 168.457 11.816C168.457 12.068 168.43 12.236 168.376 12.32C168.322 12.404 168.22 12.446 168.07 12.446H162.004C162.016 13.022 162.094 13.523 162.238 13.949C162.382 14.375 162.58 14.732 162.832 15.02C163.084 15.302 163.384 15.515 163.732 15.659C164.08 15.797 164.47 15.866 164.902 15.866C165.304 15.866 165.649 15.821 165.937 15.731C166.231 15.635 166.483 15.533 166.693 15.425C166.903 15.317 167.077 15.218 167.215 15.128C167.359 15.032 167.482 14.984 167.584 14.984C167.716 14.984 167.818 15.035 167.89 15.137L168.34 15.722C168.142 15.962 167.905 16.172 167.629 16.352C167.353 16.526 167.056 16.67 166.738 16.784C166.426 16.898 166.102 16.982 165.766 17.036C165.43 17.096 165.097 17.126 164.767 17.126C164.137 17.126 163.555 17.021 163.021 16.811C162.493 16.595 162.034 16.283 161.644 15.875C161.26 15.461 160.96 14.951 160.744 14.345C160.528 13.739 160.42 13.043 160.42 12.257C160.42 11.621 160.516 11.027 160.708 10.475C160.906 9.923 161.188 9.446 161.554 9.044C161.92 8.636 162.367 8.318 162.895 8.09C163.423 7.856 164.017 7.739 164.677 7.739ZM164.713 8.918C163.939 8.918 163.33 9.143 162.886 9.593C162.442 10.037 162.166 10.655 162.058 11.447H167.017C167.017 11.075 166.966 10.736 166.864 10.43C166.762 10.118 166.612 9.851 166.414 9.629C166.216 9.401 165.973 9.227 165.685 9.107C165.403 8.981 165.079 8.918 164.713 8.918ZM173.27 17.144C172.55 17.144 171.995 16.943 171.605 16.541C171.221 16.139 171.029 15.56 171.029 14.804V9.224H169.931C169.835 9.224 169.754 9.197 169.688 9.143C169.622 9.083 169.589 8.993 169.589 8.873V8.234L171.083 8.045L171.452 5.228C171.464 5.138 171.503 5.066 171.569 5.012C171.635 4.952 171.719 4.922 171.821 4.922H172.631V8.063H175.241V9.224H172.631V14.696C172.631 15.08 172.724 15.365 172.91 15.551C173.096 15.737 173.336 15.83 173.63 15.83C173.798 15.83 173.942 15.809 174.062 15.767C174.188 15.719 174.296 15.668 174.386 15.614C174.476 15.56 174.551 15.512 174.611 15.47C174.677 15.422 174.734 15.398 174.782 15.398C174.866 15.398 174.941 15.449 175.007 15.551L175.475 16.316C175.199 16.574 174.866 16.778 174.476 16.928C174.086 17.072 173.684 17.144 173.27 17.144Z" fill="#3F5EAB"/>
<mask id="mask0" mask-type="alpha" maskUnits="userSpaceOnUse" x="0" y="0" width="23" height="21">
<path d="M15.1529 9.60343e-07C16.2357 9.60343e-07 17.2345 0.5835 17.7663 1.52674L21.7125 8.52674C22.228 9.44126 22.228 10.5587 21.7125 11.4733L17.7663 18.4733C17.2345 19.4165 16.2357 20 15.1529 20H7.3901C6.3073 20 5.30852 19.4165 4.77677 18.4733L0.830545 11.4733C0.314991 10.5587 0.31499 9.44126 0.830545 8.52674L4.77677 1.52675C5.30852 0.583502 6.3073 9.60343e-07 7.3901 9.60343e-07H15.1529Z" fill="#F5B33C"/>
</mask>
<g mask="url(#mask0)">
<path d="M15.1529 9.60343e-07C16.2357 9.60343e-07 17.2345 0.5835 17.7663 1.52674L21.7125 8.52674C22.228 9.44126 22.228 10.5587 21.7125 11.4733L17.7663 18.4733C17.2345 19.4165 16.2357 20 15.1529 20H7.3901C6.3073 20 5.30852 19.4165 4.77677 18.4733L0.830545 11.4733C0.314991 10.5587 0.31499 9.44126 0.830545 8.52674L4.77677 1.52675C5.30852 0.583502 6.3073 9.60343e-07 7.3901 9.60343e-07H15.1529Z" fill="white"/>
<path d="M2.98425 -3.03955C4.06754 -3.03955 5.06669 -2.45553 5.59825 -1.51163L9.84936 6.03715C10.364 6.95106 10.364 8.0674 9.84936 8.98131L5.59825 16.5301C5.06669 17.474 4.06754 18.058 2.98425 18.058H-5.38256C-6.46585 18.058 -7.465 17.474 -7.99656 16.5301L-12.2477 8.98131C-12.7623 8.0674 -12.7623 6.95106 -12.2477 6.03715L-7.99656 -1.51162C-7.465 -2.45553 -6.46585 -3.03955 -5.38256 -3.03955H2.98425Z" fill="#42C7BB" style="mix-blend-mode:multiply"/>
<path d="M16.0378 6.58545C17.1174 6.58545 18.1138 7.16556 18.6467 8.10446L22.7934 15.4093C23.3148 16.3278 23.3148 17.4528 22.7934 18.3713L18.6467 25.6762C18.1138 26.6151 17.1174 27.1952 16.0378 27.1952H7.83898C6.75936 27.1952 5.763 26.6151 5.23002 25.6762L1.08337 18.3713C0.56198 17.4528 0.561981 16.3278 1.08337 15.4093L5.23003 8.10446C5.763 7.16556 6.75936 6.58545 7.83898 6.58545H16.0378Z" fill="#B2A5D1"/>
<path d="M19.9159 -7.31689C20.9955 -7.31689 21.9918 -6.73681 22.5248 -5.79795L27.1563 2.36059C27.6778 3.27911 27.6778 4.40417 27.1563 5.3227L22.5248 13.4812C21.9918 14.4201 20.9955 15.0002 19.9159 15.0002H10.7477C9.66811 15.0002 8.67176 14.4201 8.13878 13.4812L3.50728 5.32269C2.98584 4.40417 2.98584 3.27911 3.50728 2.36059L8.13878 -5.79795C8.67177 -6.73681 9.66811 -7.31689 10.7477 -7.31689H19.9159Z" fill="#73C8CC" style="mix-blend-mode:multiply"/>
<path d="M24.1272 11.8115C25.2072 11.8115 26.2039 12.3921 26.7367 13.3316L30.1879 19.4169C30.7085 20.3349 30.7085 21.4589 30.1879 22.3768L26.7367 28.4622C26.2039 29.4017 25.2072 29.9823 24.1272 29.9823H17.3234C16.2433 29.9823 15.2466 29.4017 14.7138 28.4622L11.2626 22.3768C10.7421 21.4589 10.7421 20.3349 11.2626 19.417L14.7138 13.3316C15.2466 12.3921 16.2433 11.8115 17.3234 11.8115H24.1272Z" fill="#C7D6FF" style="mix-blend-mode:multiply"/>
</g>
</svg>
